<svg width="450" height="451" viewBox="0 0 450 451" fill="none" xmlns="http://www.w3.org/2000/svg">
<path d="M76.942 209.476C81.4093 209.43 85.8682 209.078 90.2871 208.421C98.8502 207.249 129.387 201.95 142.696 200.751C142.861 200.747 143.024 200.71 143.175 200.642C143.325 200.575 143.461 200.478 143.574 200.358C143.687 200.237 143.775 200.095 143.833 199.94C143.891 199.786 143.917 199.621 143.91 199.456C143.904 199.291 143.864 199.128 143.795 198.979C143.725 198.829 143.626 198.695 143.504 198.583C143.381 198.472 143.238 198.386 143.083 198.331C142.927 198.276 142.762 198.252 142.597 198.261C133.668 198.175 124.748 198.821 115.925 200.193C112.22 200.713 85.2487 205.214 83.6944 205.513C81.2832 206.01 78.9934 206.568 76.6429 207.026C76.3282 207.078 76.0457 207.249 75.8544 207.504C75.6631 207.759 75.5779 208.078 75.6165 208.395C75.6552 208.711 75.8147 209.001 76.0618 209.202C76.3088 209.404 76.6243 209.502 76.942 209.476Z" fill="#38A1FF"/>
<path d="M23.2217 211.217C24.8884 211.181 26.5485 210.995 28.1814 210.659C36.9762 208.846 40.8787 208.356 42.9031 207.911C44.5159 207.573 46.0521 207.175 47.6042 206.815C47.7677 206.802 47.927 206.757 48.073 206.682C48.219 206.607 48.3489 206.505 48.4552 206.38C48.5615 206.255 48.6422 206.11 48.6926 205.954C48.743 205.798 48.7622 205.634 48.7491 205.47C48.7359 205.307 48.6907 205.147 48.616 205.001C48.5413 204.855 48.4385 204.725 48.3136 204.619C48.1887 204.513 48.0441 204.432 47.888 204.382C47.7319 204.331 47.5675 204.312 47.404 204.325C44.1537 204.114 40.8904 204.235 37.6645 204.685C33.7891 205.155 29.9581 205.937 26.2088 207.024C24.9115 207.543 23.6596 208.169 22.466 208.896C22.1582 208.995 21.9019 209.212 21.7525 209.499C21.6031 209.786 21.5726 210.12 21.6675 210.43C21.7738 210.737 21.9953 210.991 22.2853 211.138C22.5754 211.285 22.9111 211.313 23.2217 211.217Z" fill="#38A1FF"/>
<path d="M164.993 194.03C167.409 194.579 167.143 194.734 175.133 193.493C177.244 193.183 179.319 192.663 181.327 191.941C181.651 191.895 181.945 191.728 182.149 191.472C182.353 191.216 182.451 190.892 182.423 190.567C182.38 190.236 182.211 189.934 181.951 189.724C181.691 189.515 181.361 189.414 181.028 189.442C178.253 189.08 175.438 189.147 172.683 189.64C165.609 190.495 166.549 190.764 164.635 191.592C164.476 191.613 164.323 191.665 164.185 191.746C164.046 191.826 163.925 191.934 163.829 192.062C163.733 192.19 163.663 192.336 163.623 192.491C163.584 192.646 163.577 192.808 163.601 192.967C163.646 193.291 163.818 193.585 164.079 193.784C164.339 193.983 164.668 194.071 164.993 194.03Z" fill="#38A1FF"/>
<path d="M390.2 228.94C390.755 231.367 391.487 233.75 392.391 236.07C396.889 247.316 407.686 259.431 419.607 262.882C422.573 263.817 425.71 264.082 428.791 263.658C429.121 263.618 429.422 263.449 429.628 263.187C429.833 262.926 429.926 262.593 429.886 262.263C429.847 261.933 429.678 261.632 429.416 261.426C429.154 261.221 428.822 261.128 428.492 261.168C423.629 261.392 417.574 258.412 413.552 255.691C403.383 248.961 398.419 239.828 392.557 228.103C392.437 227.803 392.206 227.561 391.912 227.427C391.618 227.294 391.283 227.28 390.979 227.389C390.674 227.497 390.424 227.719 390.28 228.008C390.136 228.298 390.11 228.631 390.207 228.94H390.2Z" fill="#38A1FF"/>
<path d="M385.862 244.54C386.49 247.618 387.562 250.589 389.044 253.359C392.466 259.918 397.296 265.639 403.188 270.112C406.014 272.372 409.302 273.983 412.82 274.833C416.337 275.683 419.998 275.751 423.544 275.031C423.705 275.008 423.86 274.953 423.999 274.87C424.139 274.786 424.261 274.677 424.358 274.546C424.455 274.416 424.525 274.268 424.565 274.11C424.605 273.953 424.614 273.789 424.59 273.628C424.567 273.467 424.512 273.312 424.428 273.173C424.345 273.033 424.235 272.911 424.105 272.814C423.975 272.717 423.826 272.647 423.669 272.607C423.511 272.567 423.347 272.558 423.187 272.582C416.827 272.852 410.589 270.791 405.642 266.785C400.298 262.575 395.849 257.34 392.556 251.387C391.33 249.304 389.224 245.93 388.151 243.699C388.034 243.393 387.802 243.145 387.504 243.008C387.207 242.87 386.868 242.853 386.559 242.961C386.406 243.014 386.265 243.097 386.146 243.207C386.026 243.317 385.931 243.45 385.865 243.598C385.8 243.746 385.766 243.907 385.765 244.069C385.764 244.231 385.797 244.391 385.862 244.54Z" fill="#38A1FF"/>
<path d="M321.79 278.595C320.699 289.655 321.047 300.81 322.825 311.781C336.613 304.681 349.181 295.428 360.055 284.371C358.47 284.454 356.881 284.368 355.314 284.112C353.263 286.443 351.004 288.582 348.566 290.505C341.95 296.242 334.544 300.998 326.574 304.628C324.593 294.718 324.492 296.254 324.282 287.837C324.148 285.001 324.201 282.159 324.442 279.33C324.757 279.33 322.946 279.031 321.79 278.595Z" fill="#38A1FF"/>
<path d="M162.893 315.679C172.34 330.549 174.113 340.538 197.933 373.036C202.971 368.987 207.414 364.372 212.175 360.008C218.091 354.531 224.207 349.092 229.745 343.176C227.945 342.299 226.098 341.503 224.245 340.745C216.496 348.197 208.07 355.048 199.865 362.021C190.164 348.476 180.82 334.69 174.326 319.192C170.482 317.759 166.598 316.583 162.733 315.308L162.893 315.679Z" fill="#38A1FF"/>
<path d="M341.79 239.587C340.926 239.212 340.042 240.525 339.419 241.519C338.299 244.034 337.548 246.698 337.19 249.428C337.19 250.413 336.846 251.351 337.786 251.639C338.648 251.88 339.012 251.054 339.779 249.347C340.725 247.102 341.529 244.8 342.188 242.455C342.366 241.213 342.564 239.904 341.79 239.587Z" fill="white"/>
<path d="M345.035 254.881C344.473 254.316 343.883 254.687 342.923 255.279C342.02 255.779 341.089 256.224 340.134 256.613C339.187 256.838 338.843 256.698 337.684 256.055C337.023 255.686 336.404 255.265 335.885 255.697C335.259 256.217 335.583 256.921 336.224 258.171C336.597 258.705 337.1 259.134 337.687 259.416C338.273 259.698 338.922 259.825 339.571 259.784C340.402 259.762 341.218 259.564 341.966 259.203C342.714 258.843 343.378 258.328 343.912 257.692C345.012 256.439 345.665 255.585 345.035 254.881Z" fill="white"/>
<path d="M372.333 245.427C372.953 244.392 373.347 243.237 373.489 242.038C373.631 240.84 373.518 239.625 373.157 238.474C372.796 237.322 372.195 236.26 371.393 235.358C370.592 234.455 369.609 233.733 368.509 233.238C368.613 231.948 368.388 230.652 367.855 229.473C367.322 228.294 366.498 227.269 365.461 226.495C364.424 225.721 363.208 225.222 361.926 225.046C360.643 224.87 359.338 225.023 358.13 225.489C357.782 224.367 357.205 223.329 356.437 222.441C355.548 221.46 354.392 220.76 353.111 220.427C351.83 220.094 350.479 220.143 349.225 220.567C347.732 221.11 346.368 221.959 345.222 223.06C344.076 224.162 343.173 225.491 342.572 226.962C340.483 226.682 338.368 227.243 336.692 228.52C335.015 229.797 333.914 231.687 333.629 233.775C333.384 235.995 333.749 238.24 334.684 240.269C334.72 240.38 334.779 240.481 334.856 240.568C334.934 240.656 335.028 240.726 335.134 240.775C333.841 242.622 332.675 244.554 331.645 246.558C329.388 251.263 328.205 256.41 328.179 261.628C328.187 264.064 328.751 266.467 329.828 268.652C330.905 270.837 332.466 272.748 334.394 274.238C333.468 276.563 332.671 278.938 332.005 281.35C331.928 281.583 331.945 281.836 332.053 282.056C332.16 282.276 332.35 282.445 332.581 282.527C332.811 282.602 333.061 282.584 333.278 282.476C333.494 282.367 333.659 282.178 333.737 281.949C334.362 280.325 336.425 276.141 337.243 274.278C337.366 274.007 337.393 273.702 337.321 273.413C337.248 273.124 337.081 272.868 336.845 272.686C330.759 267.904 330.322 260.609 332.441 253.164C333.63 249.312 335.014 245.522 336.587 241.81C336.453 241.733 336.343 241.623 336.267 241.49C336.191 241.356 336.151 241.205 336.153 241.052C336.154 240.898 336.197 240.748 336.276 240.616C336.355 240.485 336.468 240.376 336.602 240.303C339.035 236.094 342.735 232.761 347.174 230.779C347.972 231.873 349.014 232.765 350.217 233.384C351.421 234.004 352.753 234.333 354.106 234.347C353.999 234.99 353.98 235.644 354.048 236.292C352.629 236.091 351.182 236.228 349.825 236.692C348.469 237.156 347.242 237.934 346.243 238.962C345.555 239.947 345.008 240.696 345.584 241.274C346.099 241.85 346.553 241.457 347.516 241.074C349.729 240.199 351.371 238.658 355.164 239.369C355.764 240.301 356.566 241.085 357.512 241.664C355.917 245.294 356.264 250.24 359.784 252.042C361.392 252.858 364.309 254.012 364.822 255.805C364.903 256.124 364.962 256.363 364.863 256.543C364.701 256.909 363.668 257.08 363.27 257.121C361.854 257.257 360.427 257.052 359.107 256.522C358.653 256.367 358.162 256.36 357.704 256.503C357.246 256.646 356.846 256.932 356.563 257.319C346.618 271.795 345.192 277.616 343.967 281.46C343.89 281.69 343.905 281.941 344.009 282.16C344.113 282.379 344.298 282.549 344.524 282.635C344.742 282.709 344.981 282.696 345.19 282.6C345.399 282.504 345.563 282.331 345.649 282.117L349.345 275.219C351.277 275.303 353.198 274.882 354.917 273.995C356.637 273.109 358.095 271.79 359.147 270.167C360.528 270.077 361.85 269.578 362.946 268.734C364.043 267.89 364.863 266.739 365.303 265.427C367.045 264.823 368.521 263.632 369.481 262.058C370.44 260.484 370.822 258.626 370.562 256.801C372.084 255.374 373.084 253.48 373.405 251.419C373.726 249.358 373.348 247.248 372.333 245.427Z" fill="white"/>
<path d="M402.94 200.42C403.477 198.729 403.994 197.154 404.433 195.641C406.562 188.267 407.904 180.689 408.437 173.033C408.643 166.766 408.038 160.498 406.637 154.386C406.627 154.268 406.593 154.153 406.537 154.049C406.48 153.944 406.403 153.853 406.309 153.78C406.215 153.707 406.108 153.654 405.993 153.625C405.878 153.596 405.758 153.591 405.641 153.61C405.52 153.626 405.404 153.665 405.299 153.725C405.194 153.786 405.101 153.867 405.027 153.963C404.953 154.059 404.899 154.17 404.868 154.287C404.836 154.404 404.829 154.527 404.845 154.647C406.925 175.566 403.814 183.461 401.777 195.063C401.599 196.637 401.399 198.29 401.181 200.042C401.134 200.277 401.181 200.521 401.311 200.721C401.441 200.922 401.645 201.064 401.878 201.118C401.994 201.146 402.114 201.151 402.232 201.131C402.349 201.11 402.461 201.066 402.561 201.001C402.661 200.935 402.746 200.85 402.811 200.75C402.876 200.65 402.92 200.538 402.94 200.42Z" fill="white"/>
<path d="M415.68 170.734C414.818 169.814 414.188 169.112 413.489 169.58C412.859 170.001 413.086 170.48 413.727 172.468C413.727 172.468 415.214 176.011 415.54 176.989C417.751 184.165 415.833 185.863 417.34 186.252C418.599 186.58 419.092 183.967 419.292 182.687C419.631 178.39 418.341 174.124 415.68 170.734Z" fill="white"/>
<path d="M420.39 145.41C419.443 145.108 419.218 146.174 418.537 147.641C417.258 150.467 416.322 153.436 415.75 156.485C415.188 158.2 414.924 159.999 414.972 161.803C415.17 164.23 415.271 164.866 416.027 164.911C416.983 164.97 417.118 164.054 417.741 161.904C418.132 160.554 418.283 159.058 418.996 156.186C419.338 154.812 420.363 150.596 420.489 149.811C421.034 146.417 421.362 145.693 420.39 145.41Z" fill="white"/>
<path d="M427.621 148.23C426.807 147.859 426.193 148.833 425.597 149.944C424.049 152.575 422.806 155.375 421.893 158.289C421.475 159.298 421.22 160.367 421.137 161.456C421.027 162.549 420.898 163.464 421.674 163.748C422.322 163.921 422.835 163.624 423.845 161.615C424.351 160.61 427.174 152.843 427.352 152.213C428.166 149.442 428.442 148.623 427.621 148.23Z" fill="white"/>
<path d="M432.633 153.185C431.07 152.368 427.757 158.824 427.01 160.414C426.432 161.618 425.984 162.88 425.676 164.179C425.514 165.691 425.426 166.654 426.214 166.908C426.85 167.104 427.251 166.777 428.326 164.917C428.751 164.278 429.57 162.218 430.139 161.071C430.909 159.67 431.585 158.22 432.163 156.73C432.944 154.73 433.459 153.635 432.633 153.185Z" fill="white"/>
<path d="M253.187 158.141C253.052 157.307 252.928 156.488 252.737 155.651C252.204 153.627 251.088 150.253 250.386 148.321C250.1 147.159 249.645 146.045 249.037 145.014C248.326 143.829 248.051 143.086 247.183 143.32C246.353 143.622 246.565 144.51 246.706 145.75C246.811 147.013 247.09 148.256 247.536 149.443C247.57 149.549 249.729 155.921 249.786 156.076C249.995 156.65 250.236 157.232 250.481 157.79C251.77 160.559 251.916 161.196 252.834 160.975C253.708 160.689 253.466 159.828 253.187 158.141Z" fill="white"/>
<path d="M257.234 154.421C257.173 153.784 257.133 153.168 257.034 152.529C256.935 151.89 255.459 145.572 255.234 144.94C255.075 144.6 254.924 144.299 254.784 143.964C254.335 142.916 253.95 142.164 253.192 142.331C252.434 142.497 252.335 143.388 252.335 144.702V145.576C252.822 148.168 253.46 150.729 254.247 153.247C254.485 153.845 254.737 154.416 254.985 154.999C255.506 156.229 255.776 157.037 256.638 156.812C257.56 156.571 257.342 155.608 257.234 154.421Z" fill="white"/>
<path d="M263.236 152.947C263.18 150.671 262.846 148.41 262.24 146.215C262.059 144.796 261.705 143.404 261.185 142.072C260.706 140.994 260.449 140.166 259.631 140.299C258.731 140.441 258.675 142.683 258.675 142.908C258.707 144.225 258.881 145.534 259.192 146.813C259.502 149.083 260.097 151.305 260.965 153.426C261.432 154.654 261.673 155.536 262.6 155.358C263.437 155.129 263.353 154.247 263.236 152.947Z" fill="white"/>
<path d="M263.983 164.612C263.195 164.286 262.824 164.977 262.183 165.928C261.89 166.349 261.624 166.788 261.385 167.242C260.6 169.124 260.129 171.122 259.99 173.157C260.031 173.436 260.091 173.677 260.13 173.936C260.442 174.873 260.404 175.62 261.227 175.667C261.88 175.706 262.15 175.249 262.779 173.776C263.036 173.178 263.324 171.142 263.976 168.796C264.095 168.418 264.136 168.038 264.235 167.671C264.511 165.426 264.766 164.943 263.983 164.612Z" fill="white"/>
<path d="M345.034 140.669C312.237 145.644 313.272 146.117 308.202 146.445C307.975 146.454 307.754 146.514 307.554 146.621C307.354 146.728 307.181 146.878 307.048 147.062C298.073 159.352 291.28 170.421 282.465 183.397C282.296 183.64 282.2 183.926 282.19 184.222C282.179 184.518 282.254 184.81 282.405 185.064C282.557 185.319 282.779 185.524 283.044 185.655C283.309 185.787 283.606 185.839 283.9 185.806C284.674 185.709 285.475 185.581 286.269 185.439C287.618 187.695 288.622 190.14 289.249 192.693C289.764 195.19 289.198 198.589 286.62 198.667C281.685 198.874 273.707 194.776 270.227 202.691C269.734 203.805 269.456 205.001 269.408 206.218C269.378 206.464 269.447 206.712 269.6 206.906C269.753 207.101 269.977 207.228 270.222 207.257C270.468 207.287 270.716 207.218 270.911 207.065C271.106 206.913 271.232 206.689 271.262 206.443C271.407 205.482 271.732 204.557 272.218 203.715C272.68 202.777 273.406 201.995 274.305 201.462C275.204 200.929 276.239 200.668 277.283 200.712C276.021 201.632 274.931 202.766 274.062 204.063C273.495 205.199 272.487 207.831 273.684 208.247C273.907 208.319 274.15 208.301 274.36 208.197C274.57 208.092 274.731 207.91 274.809 207.689C275.817 206.322 276.957 205.057 278.212 203.913C277.53 205.218 277.06 206.625 276.822 208.078C276.597 209.297 276.457 212.5 277.758 212.5C278.707 212.5 278.579 211.754 279.013 210.429C279.687 207.6 280.932 204.938 282.672 202.608C282.91 202.29 283.225 202.037 283.587 201.875C283.95 201.712 284.348 201.645 284.744 201.679C285.397 201.74 286.052 201.761 286.708 201.742C291.431 201.571 293.141 196.695 292.205 192.102C291.652 189.453 290.429 186.991 288.653 184.951C291.08 184.391 293.692 183.626 296.06 182.965C298.901 187.401 301.665 192.862 303.35 193.741C304.302 194.06 305.336 194.039 306.274 193.681C311.817 192.098 317.128 189.795 322.071 186.829C330.128 182.106 339.035 174.737 341.865 165.794C341.982 165.77 342.096 165.73 342.202 165.675C342.405 165.539 342.546 165.329 342.594 165.09C342.643 164.852 342.596 164.603 342.463 164.399C339.681 160.06 338.844 158.445 337.202 155.616C340.308 151.398 343.05 146.499 346.199 142.747C346.359 142.547 346.455 142.304 346.475 142.05C346.496 141.795 346.44 141.54 346.315 141.317C346.19 141.094 346.002 140.913 345.773 140.798C345.545 140.682 345.288 140.637 345.034 140.669ZM305.651 168.495C305.5 168.687 305.281 168.813 305.04 168.846C304.798 168.88 304.553 168.819 304.356 168.675C304.164 168.524 304.04 168.302 304.01 168.06C303.981 167.817 304.048 167.573 304.198 167.379C307.187 163.077 311.074 159.475 315.591 156.821C319.838 154.23 327.672 150.298 332.841 150.548C333.02 150.525 333.202 150.552 333.367 150.626C333.532 150.7 333.674 150.818 333.776 150.966L334.732 152.698C334.851 152.903 334.887 153.145 334.831 153.375C334.776 153.605 334.634 153.805 334.435 153.933C334.334 153.998 334.221 154.041 334.102 154.061C333.984 154.081 333.862 154.077 333.745 154.05C333.628 154.022 333.518 153.971 333.421 153.9C333.324 153.829 333.242 153.739 333.18 153.636L332.483 152.898C322.345 155.7 313.103 161.073 305.651 168.495ZM331.997 171.332C324.799 179.568 320.87 181.03 315.352 184.2C312.744 185.771 310.021 187.142 307.205 188.302C308.94 185.667 310.918 183.199 313.112 180.932C315.846 178.133 318.798 175.555 321.938 173.221C324.554 171.307 327.349 169.65 330.283 168.272C332.198 167.457 334.169 166.78 336.181 166.248C334.998 168.106 333.593 169.813 331.997 171.332Z" fill="white"/>
<path d="M259.484 226.031C257.618 225.668 255.696 225.709 253.847 226.15C251.205 226.874 248.609 227.757 246.074 228.793C248.323 226.281 251.486 221.924 255.521 220.199C255.744 220.13 255.932 219.977 256.044 219.772C256.157 219.567 256.185 219.326 256.123 219.1C256.061 218.875 255.914 218.683 255.712 218.564C255.511 218.445 255.271 218.41 255.044 218.464C250.902 219.551 247.285 222.08 244.843 225.597C243.431 227.336 242.09 229.817 240.52 230.638C233.772 230.665 231.354 228.325 229.438 222.707C228.519 219.541 227.853 216.306 227.447 213.035L227.749 212.785C227.943 212.625 228.095 212.419 228.188 212.185C228.282 211.952 228.316 211.698 228.286 211.448C228.256 211.198 228.164 210.959 228.018 210.754C227.872 210.549 227.676 210.384 227.449 210.275C209.401 201.32 218.902 207.187 195.959 194.201C194.572 193.405 193.146 192.68 191.686 192.028C191.423 191.916 191.136 191.875 190.852 191.91C190.569 191.945 190.3 192.055 190.073 192.229L169.737 208.862C164.823 212.385 160.133 216.21 155.695 220.316C155.535 220.477 155.415 220.672 155.342 220.886C155.269 221.1 155.247 221.329 155.275 221.553C155.304 221.778 155.383 221.993 155.507 222.182C155.631 222.372 155.797 222.53 155.991 222.646C161.1 225.654 166.674 227.788 172.486 228.96L172.823 236.158C172.825 236.331 172.863 236.503 172.935 236.661C173.008 236.819 173.113 236.96 173.244 237.075C176.842 239.977 181.042 240.157 185.39 240.762C185.493 240.778 185.599 240.773 185.701 240.748C185.803 240.723 185.898 240.677 185.982 240.614C186.066 240.551 186.136 240.472 186.189 240.382C186.242 240.291 186.276 240.191 186.29 240.087L186.361 239.518C186.379 239.388 186.368 239.255 186.328 239.129C186.289 239.004 186.223 238.888 186.134 238.791C186.045 238.694 185.936 238.617 185.815 238.567C185.693 238.516 185.562 238.493 185.43 238.499C182.993 238.3 180.627 237.571 178.5 236.364C178.445 236.336 178.397 236.295 178.359 236.245C178.322 236.195 178.296 236.137 178.285 236.076C178.273 236.015 178.275 235.952 178.291 235.891C178.307 235.831 178.336 235.775 178.376 235.728C180.7 233.034 183.743 231.058 187.149 230.033C196.506 227.086 209.282 230.788 209.579 232.662C209.765 233.665 206.628 235.467 205.53 235.849C205.298 235.924 205.105 236.087 204.993 236.303C204.88 236.519 204.856 236.77 204.927 237.003C205.193 237.937 205.553 238.171 206.486 238.773C206.653 238.878 206.844 238.938 207.041 238.949C207.238 238.959 207.434 238.919 207.611 238.832C210.441 237.866 213.093 236.439 215.458 234.608C218.281 231.684 216.615 229.349 215.958 223.912C215.886 223.316 215.857 222.718 215.798 222.113C219.285 219.731 221.723 217.738 225.335 214.773C225.243 217.79 225.674 220.8 226.608 223.669C231.485 241.086 249.283 229.293 257.464 234.446C257.564 234.515 257.676 234.564 257.794 234.59C257.912 234.616 258.035 234.618 258.154 234.597C258.273 234.576 258.387 234.531 258.489 234.466C258.591 234.401 258.679 234.316 258.749 234.216C258.818 234.117 258.867 234.005 258.893 233.887C258.919 233.768 258.921 233.646 258.9 233.527C258.878 233.407 258.834 233.294 258.769 233.191C258.703 233.089 258.618 233.001 258.519 232.932C256.185 231.395 253.483 230.508 250.692 230.363C252.458 229.725 254.26 229.192 256.09 228.766C258.272 228.292 258.521 227.952 259.477 227.851C259.719 227.852 259.95 227.757 260.122 227.587C260.293 227.417 260.39 227.186 260.391 226.944C260.391 226.703 260.296 226.471 260.126 226.3C259.956 226.129 259.725 226.032 259.484 226.031ZM213.459 217.772C213.385 217.868 213.292 217.949 213.186 218.009C213.079 218.069 212.962 218.106 212.841 218.119C212.72 218.132 212.597 218.12 212.481 218.085C212.364 218.049 212.256 217.99 212.163 217.911C207.721 215.205 202.625 213.759 197.424 213.727C192.217 213.87 187.102 215.127 182.423 217.414C182.222 217.546 181.977 217.593 181.741 217.544C181.505 217.496 181.299 217.355 181.167 217.154C181.035 216.953 180.988 216.708 181.036 216.472C181.085 216.237 181.225 216.03 181.427 215.898C185.967 212.278 191.662 210.418 197.464 210.659C203.296 210.511 208.965 212.589 213.319 216.472C213.503 216.63 213.619 216.853 213.645 217.094C213.671 217.335 213.605 217.578 213.459 217.772Z" fill="white"/>
<path d="M96.9782 106.19C99.6369 102.454 102.919 99.2048 106.679 96.5828C110.573 94.2119 115.048 92.9662 119.606 92.9839C119.726 93.0002 119.847 92.9924 119.963 92.961C120.079 92.9295 120.188 92.8751 120.283 92.8008C120.378 92.7266 120.457 92.634 120.515 92.5287C120.573 92.4234 120.61 92.3074 120.623 92.1877C120.646 91.9453 120.573 91.7035 120.421 91.5137C120.268 91.3238 120.048 91.2009 119.806 91.171C117.286 90.644 114.687 90.6191 112.158 91.0977C109.628 91.5763 107.218 92.549 105.064 93.9601C100.647 96.558 97.238 100.574 95.3925 105.355C95.2898 105.57 95.2741 105.816 95.3487 106.043C95.4233 106.269 95.5824 106.458 95.7928 106.57C95.8952 106.625 96.0076 106.658 96.1232 106.669C96.2389 106.679 96.3555 106.666 96.4661 106.631C96.5767 106.595 96.679 106.538 96.767 106.462C96.855 106.386 96.9268 106.294 96.9782 106.19Z" fill="white"/>
<path d="M118.017 103.314C113.895 103.547 109.909 104.866 106.462 107.138C101.703 109.927 97.2129 114.394 96.8823 119.927C96.8628 120.045 96.8668 120.166 96.894 120.283C96.9212 120.399 96.9711 120.509 97.0408 120.607C97.1106 120.704 97.1988 120.787 97.3005 120.85C97.4022 120.913 97.5154 120.956 97.6336 120.975C97.7517 120.995 97.8725 120.991 97.9892 120.964C98.1058 120.936 98.2159 120.886 98.3132 120.817C98.4106 120.747 98.4932 120.659 98.5564 120.557C98.6197 120.455 98.6622 120.342 98.6817 120.224C99.7232 116.002 104.305 112.073 108.084 109.787C111.423 108.023 114.861 106.454 118.381 105.086C118.497 105.063 118.608 105.017 118.707 104.95C118.805 104.884 118.89 104.799 118.955 104.7C119.021 104.601 119.067 104.49 119.089 104.374C119.112 104.257 119.112 104.138 119.089 104.021C119.065 103.905 119.019 103.794 118.953 103.696C118.886 103.597 118.801 103.513 118.703 103.447C118.604 103.381 118.493 103.336 118.376 103.313C118.26 103.29 118.14 103.29 118.023 103.314H118.017Z" fill="white"/>
<path d="M136.447 131.16C137.797 142.492 137.986 143.839 139.256 159.087C139.276 159.205 139.272 159.326 139.244 159.442C139.217 159.558 139.166 159.668 139.096 159.764C139.026 159.861 138.937 159.942 138.834 160.004C138.732 160.066 138.619 160.107 138.501 160.124C138.38 160.143 138.257 160.138 138.139 160.109C138.021 160.08 137.909 160.028 137.811 159.955C137.713 159.883 137.63 159.793 137.567 159.689C137.504 159.584 137.462 159.469 137.443 159.348C135.019 146.181 134.351 138.655 133.341 130.922C133.294 130.513 133.401 130.101 133.64 129.766C135.486 127.65 136.845 125.155 137.622 122.456C138.4 119.758 138.576 116.922 138.139 114.149C137.622 111.154 136.37 108.334 134.495 105.943C134.335 105.762 134.252 105.525 134.263 105.284C134.274 105.042 134.378 104.814 134.553 104.648C134.639 104.569 134.74 104.508 134.85 104.468C134.96 104.429 135.077 104.411 135.193 104.417C135.31 104.423 135.424 104.451 135.53 104.501C135.635 104.551 135.73 104.622 135.808 104.708C138.434 107.034 140.26 110.129 141.027 113.553C141.605 116.644 141.494 119.824 140.702 122.868C139.911 125.911 138.458 128.742 136.447 131.16Z" fill="white"/>
<path d="M190.224 268.656C189.63 270.439 189.549 269.947 189.866 274.792C189.927 275.388 189.927 275.986 190.026 276.591C190.129 277.59 190.295 278.58 190.523 279.558C190.517 279.678 190.534 279.799 190.574 279.913C190.614 280.026 190.675 280.131 190.756 280.221C190.836 280.311 190.934 280.384 191.042 280.436C191.151 280.488 191.269 280.518 191.389 280.525C191.51 280.532 191.63 280.515 191.744 280.475C191.858 280.435 191.962 280.373 192.052 280.292C192.142 280.212 192.215 280.115 192.267 280.006C192.319 279.897 192.35 279.78 192.356 279.659C192.858 278.216 193.055 276.684 192.934 275.161C192.934 273.779 192.759 271.355 192.676 270.579C192.531 269.918 192.31 269.276 192.017 268.667C192.017 268.549 191.993 268.432 191.948 268.322C191.903 268.213 191.837 268.114 191.753 268.031C191.67 267.947 191.57 267.881 191.461 267.836C191.352 267.79 191.235 267.767 191.117 267.767C190.881 267.769 190.656 267.863 190.489 268.029C190.322 268.195 190.227 268.42 190.224 268.656Z" fill="white"/>
<path d="M199.109 284.754C198.975 286.493 198.613 288.207 198.034 289.853C196.424 294.066 191.176 297.051 187.336 293.081C185.498 290.789 184.413 287.985 184.23 285.053C184.211 284.835 184.241 284.615 184.316 284.409C184.392 284.203 184.512 284.017 184.668 283.862C184.824 283.708 185.012 283.59 185.218 283.517C185.425 283.444 185.645 283.417 185.863 283.438C189.462 283.865 194.635 283.235 198.252 283.359C198.893 283.31 199.429 283.892 199.109 284.754ZM196.878 285.39C193.779 286.015 190.635 286.391 187.476 286.515C187.774 287.8 188.286 289.025 188.99 290.141C190.371 292.316 191.844 292.228 193.772 290.876C195.165 289.275 196.221 287.409 196.878 285.39Z" fill="white"/>
<path d="M288.422 378.647C279.953 392.115 273.529 401.866 270.276 407.69C270.225 407.801 270.151 407.901 270.06 407.984C269.969 408.067 269.862 408.131 269.746 408.171C269.63 408.212 269.507 408.23 269.385 408.222C269.262 408.215 269.142 408.183 269.031 408.129C268.921 408.074 268.823 407.998 268.742 407.905C268.662 407.812 268.601 407.704 268.563 407.587C268.525 407.47 268.51 407.346 268.521 407.224C268.531 407.101 268.566 406.982 268.623 406.873C275.182 392.979 277.454 390.678 286.411 376.096C286.581 375.823 286.831 375.61 287.127 375.485C287.423 375.36 287.75 375.33 288.064 375.399C307.981 380.122 325.459 387.419 342.286 394.641C342.428 394.705 342.555 394.799 342.657 394.917C342.76 395.035 342.835 395.174 342.878 395.324C342.921 395.474 342.93 395.632 342.906 395.786C342.881 395.94 342.823 396.087 342.735 396.216L340.036 399.9C339.898 400.11 339.683 400.257 339.437 400.309C339.191 400.361 338.934 400.315 338.723 400.179C338.527 400.038 338.393 399.827 338.348 399.59C338.303 399.352 338.351 399.107 338.482 398.904L340.295 396.117C322.112 389.347 304.299 382.448 288.422 378.647Z" fill="white"/>
<path d="M336.388 403.295C334.74 402.378 333.013 401.612 331.228 401.005C328.46 399.952 325.625 399.087 322.741 398.416C321.702 398.237 320.646 398.17 319.592 398.216C319.477 398.186 319.357 398.18 319.24 398.197C319.122 398.215 319.01 398.255 318.908 398.316C318.806 398.377 318.717 398.458 318.647 398.553C318.576 398.649 318.525 398.757 318.497 398.873C318.446 399.11 318.491 399.358 318.622 399.563C318.752 399.768 318.958 399.913 319.194 399.968C320.316 400.598 321.505 401.1 322.739 401.464C322.964 401.538 332.474 404.599 333.716 404.968C337.44 406.007 338.165 406.259 338.536 405.366C338.907 404.473 337.825 404.014 336.388 403.295Z" fill="white"/>
<path d="M330.488 408.787C327.181 407.18 323.758 405.821 320.249 404.722C318.034 404.272 317.564 404.313 317.301 404.922C316.947 405.737 317.708 406.137 318.754 406.893C319.089 407.143 319.442 407.369 319.811 407.568C323.112 409.05 326.491 410.354 329.933 411.472C332.308 412.136 333.273 412.683 333.738 411.751C334.11 410.876 333.28 410.337 330.488 408.787Z" fill="white"/>
<path d="M327.833 416.092C325.929 414.808 323.858 413.789 321.679 413.064C319.818 412.365 317.923 411.76 316.002 411.252C315.573 411.177 315.14 411.131 314.706 411.112C313.482 411.031 312.524 410.824 312.295 411.67C312.065 412.516 312.88 412.898 314.706 413.822C315.579 414.272 318.575 415.226 319.706 415.622C328.253 418.796 329.088 419.313 329.646 418.371C330.154 417.462 328.944 416.803 327.833 416.092Z" fill="white"/>
<path d="M132.068 135.946C131.737 133.681 131.264 131.44 130.654 129.234C129.965 126.6 129.659 125.941 128.899 125.986C127.774 126.053 127.86 128.588 127.905 129.711C128.702 133.787 129.24 137.91 129.515 142.055C128.615 141.599 127.616 141.369 126.607 141.385C125.597 141.401 124.607 141.662 123.721 142.147C122.176 142.822 119.63 144.493 120.912 145.573C121.003 145.648 121.108 145.704 121.221 145.737C121.333 145.771 121.452 145.782 121.569 145.769C121.686 145.756 121.799 145.719 121.902 145.662C122.005 145.604 122.095 145.527 122.167 145.433C123.359 144.559 124.794 144.079 126.272 144.059C126.722 144.034 127.577 144.079 127.864 144.437C128.276 144.954 127.475 146.871 126.211 147.964C123.1 150.663 116.886 151.176 113.928 148.603C114.767 145.956 116.362 143.614 118.518 141.864C120.673 140.115 123.294 139.035 126.056 138.757C126.272 138.744 126.482 138.683 126.671 138.579C126.86 138.474 127.023 138.329 127.149 138.153C127.275 137.978 127.36 137.776 127.398 137.564C127.436 137.351 127.427 137.133 127.37 136.924C125.986 131.977 124.915 126.947 124.162 121.865C124.15 121.742 124.112 121.622 124.051 121.514C123.99 121.406 123.908 121.311 123.809 121.236C123.71 121.162 123.596 121.108 123.476 121.079C123.355 121.05 123.229 121.047 123.107 121.069C122.869 121.102 122.653 121.226 122.504 121.416C122.356 121.605 122.286 121.844 122.311 122.083C122.626 126.76 123.244 131.412 124.162 136.009C121.885 136.421 119.718 137.301 117.798 138.593C115.878 139.886 114.247 141.562 113.008 143.517C112.94 142.035 111.973 129.475 111.912 128.199C111.924 128.082 111.911 127.963 111.874 127.851C111.838 127.739 111.778 127.636 111.699 127.548C111.621 127.46 111.525 127.389 111.417 127.34C111.31 127.291 111.194 127.265 111.076 127.264C110.837 127.258 110.606 127.344 110.428 127.503C110.251 127.662 110.14 127.883 110.12 128.121C109.27 135.262 109.404 142.487 110.518 149.592C110.544 149.847 110.634 150.091 110.778 150.303C110.923 150.514 111.118 150.687 111.345 150.804C111.573 150.921 111.826 150.98 112.083 150.974C112.339 150.969 112.589 150.9 112.812 150.773C116.411 154.806 124.178 153.826 128.204 150.274C130.024 148.529 131.368 146.347 132.107 143.935C132.595 141.293 132.582 138.583 132.068 135.946Z" fill="white"/>
<path d="M139.612 45.8098C129.491 43.6347 112.659 43.6819 111.028 53.9568C109.501 64.1704 109.246 74.5341 110.27 84.8104C110.288 85.0459 110.395 85.2657 110.569 85.4249C110.744 85.5842 110.972 85.6709 111.208 85.6674C111.329 85.6668 111.449 85.6409 111.559 85.5913C111.669 85.5417 111.768 85.4695 111.849 85.3795C111.929 85.2894 111.99 85.1835 112.028 85.0684C112.065 84.9533 112.078 84.8317 112.065 84.7115C112.013 74.5838 112.685 64.4654 114.076 54.4336C115.246 46.9817 129.401 47.1751 136.904 48.3987C130.024 60.5157 123.858 71.8027 121.924 85.5887C121.886 85.8259 121.941 86.0687 122.079 86.2657C122.217 86.4626 122.426 86.5981 122.662 86.6436C125.179 87.0935 121.917 82.0055 134.252 59.2943C135.273 60.6046 136.101 62.0544 136.711 63.5995C133.28 71.0127 131.325 79.023 130.955 87.1834C130.858 89.925 130.811 92.6681 130.815 95.4114C130.805 95.5321 130.819 95.6537 130.857 95.7688C130.894 95.884 130.955 95.9903 131.035 96.0815C131.115 96.1727 131.212 96.2468 131.321 96.2994C131.43 96.352 131.549 96.382 131.67 96.3876C131.911 96.3934 132.145 96.3085 132.326 96.1497C132.506 95.991 132.621 95.7699 132.646 95.5306C132.779 94.2327 133.663 87.7817 133.901 85.8586C134.588 78.4344 136.528 71.1804 139.639 64.4048C139.738 64.2306 139.798 64.0371 139.815 63.8375C139.832 63.638 139.806 63.4371 139.738 63.2486C138.915 60.8712 137.377 58.8065 135.334 57.3375C137.057 54.2217 138.815 51.1257 140.609 48.0501C140.721 47.8417 140.784 47.6103 140.793 47.3737C140.802 47.1372 140.757 46.9017 140.66 46.6854C140.564 46.4691 140.42 46.2777 140.238 46.1259C140.056 45.9741 139.842 45.866 139.612 45.8098Z" fill="white"/>
<path d="M199.135 267.854C200.37 267.854 201.346 269.191 201.346 270.864C201.346 272.538 200.37 273.851 199.135 273.851C197.901 273.851 196.924 272.517 196.924 270.864C196.924 269.211 197.901 267.854 199.135 267.854Z" fill="white"/>
<path d="M351.136 243.209C351.757 243.518 352.234 244.058 352.464 244.712C352.695 245.367 352.661 246.085 352.371 246.716C351.894 248.308 350.56 249.305 349.384 248.945C348.764 248.63 348.289 248.087 348.059 247.431C347.828 246.774 347.861 246.054 348.149 245.42C348.628 243.846 349.962 242.851 351.136 243.209Z" fill="white"/>
<path d="M184.175 268.399C185.41 268.399 186.386 269.733 186.386 271.389C186.386 273.044 185.41 274.396 184.175 274.396C182.94 274.396 181.964 273.046 181.964 271.389C181.964 269.731 182.94 268.399 184.175 268.399Z" fill="white"/>
<path d="M277.915 381.388C270.718 366.673 258.846 357.959 244.889 349.376C241.045 346.709 236.942 344.437 232.641 342.594C230.264 339.787 227.072 336.125 228.608 332.787C230.158 329.224 236.386 327.377 235.46 321.354C234.598 318.471 232.658 316.03 230.043 314.541C228.899 313.866 227.254 313.279 226.856 312.33C226.984 311.941 227.165 311.573 227.394 311.234C228.834 309.693 229.868 307.816 230.401 305.775C230.697 304.21 230.652 302.599 230.27 301.053C229.889 299.506 229.179 298.06 228.19 296.812C224.591 291.773 220.601 290.595 220.601 280.14C220.7 275.398 221.597 270.578 221.357 265.857C220.77 256.272 214.211 246.834 204.566 244.443C202.69 241.948 199.905 240.294 196.817 239.841C188.719 238.492 180.194 244.153 174.846 250.44C170.24 255.869 167.129 262.405 165.821 269.404C165.121 273.424 164.741 277.493 164.685 281.573C164.116 286.701 161.141 289.115 159.287 293.107C158.003 295.297 157.615 297.898 158.206 300.367C158.796 302.836 160.318 304.981 162.454 306.353C163.259 307.107 165.308 308.897 165.124 309.999C164.973 310.753 163.801 311.603 163.192 311.871C162.517 312.168 162.067 312.132 161.635 312.662L157.193 310.915C155.54 310.278 153.947 309.439 152.353 308.724C151.889 308.517 151.485 308.197 151.178 307.793C150.871 307.388 150.671 306.914 150.596 306.412C146.727 280.637 148.029 254.228 147.148 228.914C146.329 207.195 143.945 182.579 144.361 162.222C144.371 161.994 144.329 161.767 144.24 161.556C144.15 161.346 144.015 161.159 143.843 161.008C142.62 159.93 144.242 161.264 104.667 166.669C104.1 159.022 103.354 149.073 104.629 141.641C104.662 141.251 104.578 140.86 104.388 140.517C100.079 134.394 103.714 129.113 109.47 124.322C111.789 122.412 114.245 120.674 116.818 119.121C117.019 119.006 117.171 118.82 117.245 118.6C117.319 118.38 117.309 118.141 117.218 117.927C117.101 117.711 116.907 117.547 116.674 117.47C116.44 117.392 116.187 117.406 115.963 117.509C113.065 118.71 110.3 120.212 107.715 121.991C100.704 127.124 96.6733 134.345 101.482 141.752C100.133 151.199 101.437 158.745 102.74 166.944C86.6886 169.121 82.451 170.43 75.5366 170.561C75.1504 170.571 74.7824 170.727 74.5057 170.997C74.229 171.266 74.0638 171.63 74.0431 172.016C71.0942 228.192 69.4455 306.673 85.2378 360.316C85.2378 361.045 83.6116 383.983 84.68 395.374C84.6854 395.493 84.7146 395.61 84.7658 395.718C84.817 395.826 84.8892 395.923 84.9782 396.003C85.0672 396.083 85.1712 396.144 85.2842 396.183C85.3971 396.222 85.5167 396.238 85.636 396.231C85.7554 396.223 85.8722 396.191 85.9792 396.138C86.0863 396.084 86.1816 396.009 86.2595 395.919C86.3375 395.828 86.3965 395.722 86.4331 395.608C86.4697 395.494 86.4831 395.374 86.4727 395.255C86.2948 383.695 86.7009 372.134 87.6896 360.615V360.197C87.6896 360.197 87.6896 360.138 87.5884 360.078C87.5778 359.995 87.5435 359.917 87.4894 359.853L87.6288 359.833C72.7497 306.112 74.1645 229.243 77.0324 173.59C79.6911 173.467 122.918 167.493 141.272 164.011C140.71 184.688 143.522 208.358 144.361 229.027C144.361 229.252 146.185 305.438 148.149 309.813C150.598 316.426 153.347 322.859 156.336 329.157C161.77 340.707 175.846 368.07 183.665 379.912C186.894 384.846 190.561 389.48 194.621 393.757C194.83 393.974 195.103 394.121 195.399 394.174C195.696 394.228 196.003 394.187 196.275 394.056C202.361 391.062 207.746 386.226 212.47 382.584C224.089 373.801 234.555 363.588 243.618 352.185C256.398 360.091 268.439 369.25 276.321 382.281C276.379 382.387 276.458 382.481 276.553 382.556C276.648 382.632 276.757 382.688 276.873 382.722C276.99 382.755 277.112 382.765 277.233 382.751C277.353 382.737 277.47 382.7 277.576 382.641C277.682 382.582 277.776 382.503 277.851 382.408C277.926 382.313 277.981 382.203 278.012 382.086C278.044 381.969 278.052 381.847 278.035 381.727C278.019 381.607 277.978 381.492 277.915 381.388ZM183.53 267.211C187.736 262.202 192.727 257.91 198.31 254.502C200.809 264.019 202.735 268.801 204.158 274.96C205.089 281.413 204.832 287.981 203.4 294.342C202.649 298.546 200.847 302.492 198.162 305.813C197.928 306.085 197.801 306.432 197.804 306.79C198.525 313.864 198.845 320.973 198.76 328.084C198.762 328.275 198.812 328.463 198.906 328.631C199 328.798 199.135 328.938 199.298 329.04C201.22 330.239 203.204 331.369 205.249 332.429C202.928 334.358 200.598 336.276 198.259 338.183C195.946 335.335 193.616 332.526 191.466 329.577C186.58 322.665 187.48 322.645 186.652 322.137C186.373 317.681 186.504 312.66 186.371 307.608C188.775 308.079 191.245 308.105 193.659 307.683C193.778 307.676 193.894 307.646 194.002 307.594C194.109 307.542 194.205 307.47 194.285 307.381C194.364 307.292 194.425 307.189 194.465 307.076C194.504 306.964 194.521 306.844 194.515 306.725C194.508 306.606 194.478 306.49 194.426 306.382C194.374 306.275 194.302 306.179 194.213 306.099C194.124 306.02 194.021 305.959 193.908 305.919C193.796 305.88 193.677 305.863 193.557 305.87C190.179 306.119 186.813 305.25 183.978 303.395C180.298 300.674 178.82 295.748 178.219 291.184C176.958 281.406 177.61 274.694 183.53 267.211ZM210.9 380.495C206.23 384.422 201.232 387.941 195.96 391.012C192.351 387.042 189.08 382.777 186.18 378.263C173.303 357.052 161.979 334.937 152.296 312.091C153.531 312.687 154.806 313.286 156.041 313.785C166.015 317.665 174.935 321.291 184.785 324.68C188.313 330.542 192.36 336.075 196.877 341.213C196.994 341.367 197.14 341.495 197.308 341.591C197.475 341.687 197.661 341.747 197.852 341.77C198.044 341.792 198.238 341.775 198.423 341.72C198.608 341.666 198.78 341.574 198.929 341.451C202.032 338.978 205.085 336.443 208.086 333.846C210.155 334.859 212.251 335.817 214.357 336.755C230.984 344.789 233.28 345.464 242.043 351.15C232.901 362.169 222.442 372.024 210.9 380.495Z" fill="white"/>
<path d="M284.309 189.241C281.806 189.228 279.307 189.447 276.844 189.896C275.651 184.381 274.511 178.855 273.423 173.319C271.834 165.056 270.782 156.698 270.274 148.3C270.278 148.181 270.258 148.064 270.217 147.953C270.175 147.842 270.112 147.741 270.032 147.654C269.951 147.568 269.854 147.499 269.746 147.45C269.639 147.401 269.522 147.373 269.404 147.37C269.286 147.366 269.168 147.385 269.058 147.426C268.947 147.468 268.846 147.531 268.759 147.612C268.673 147.692 268.603 147.789 268.554 147.897C268.505 148.005 268.478 148.121 268.474 148.239C268.123 150.466 267.956 152.719 267.975 154.973C268.249 161.346 269.07 167.684 270.427 173.917C271.497 179.003 272.213 181.243 274.925 190.31C268.56 191.949 262.396 194.287 256.546 197.283C255.743 194.086 244.688 154.04 244.229 152.724C243.572 150.751 242.879 148.839 242.178 146.876C242.152 146.759 242.103 146.65 242.033 146.553C241.962 146.457 241.873 146.376 241.77 146.317C241.667 146.257 241.553 146.219 241.434 146.206C241.316 146.192 241.196 146.204 241.082 146.239C240.857 146.308 240.667 146.459 240.549 146.662C240.431 146.865 240.394 147.105 240.446 147.335C240.77 149.206 241.541 153.603 242.038 155.482C243.748 162.634 248.948 180.494 250.484 185.301C251.148 187.417 250.484 185.301 254.798 198.18C252.889 199.163 250.381 200.621 248.5 201.7C248.237 201.826 248.027 202.041 247.906 202.307C247.785 202.572 247.763 202.872 247.841 203.153C248.595 206.102 249.146 207.58 250.091 210.664C250.115 210.782 250.163 210.894 250.232 210.992C250.302 211.091 250.39 211.174 250.493 211.238C250.595 211.301 250.71 211.342 250.829 211.36C250.948 211.377 251.07 211.37 251.186 211.339C251.306 211.311 251.419 211.26 251.519 211.188C251.619 211.116 251.704 211.026 251.768 210.921C251.833 210.817 251.877 210.7 251.896 210.579C251.916 210.458 251.912 210.334 251.883 210.214L250.59 203.581C255.797 200.976 261.956 197.982 266.744 196.158C272.543 194.046 278.48 192.335 284.514 191.039C284.752 191.011 284.97 190.891 285.119 190.703C285.269 190.515 285.337 190.276 285.31 190.038C285.283 189.799 285.162 189.582 284.975 189.432C284.787 189.283 284.548 189.214 284.309 189.241Z" fill="white"/>
<path d="M283.014 324.132C274.424 299.644 262.995 262.642 258.074 237.462C258.028 237.227 258.075 236.984 258.205 236.783C258.335 236.582 258.538 236.44 258.771 236.386C258.884 236.359 259.001 236.354 259.115 236.372C259.23 236.39 259.339 236.431 259.438 236.492C259.536 236.554 259.621 236.634 259.689 236.728C259.756 236.823 259.803 236.93 259.828 237.043C267.129 263.333 276.957 297.801 285.92 323.713C286.275 324.579 285.889 324.224 281.219 335.306C278.97 340.626 276.817 345.984 274.566 351.303C274.47 351.525 274.292 351.701 274.069 351.794C273.846 351.887 273.596 351.889 273.371 351.8C273.259 351.758 273.157 351.694 273.071 351.611C272.984 351.529 272.916 351.429 272.869 351.319C272.822 351.209 272.799 351.091 272.799 350.971C272.8 350.852 272.824 350.734 272.872 350.624C276.05 342.02 279.217 333.043 283.014 324.132Z" fill="white"/>
<path d="M438.676 159.19C438.726 159.082 438.754 158.964 438.758 158.845C438.763 158.726 438.744 158.607 438.702 158.495C438.661 158.383 438.597 158.28 438.516 158.193C438.435 158.105 438.337 158.034 438.229 157.985C438.12 157.935 438.003 157.907 437.884 157.902C437.764 157.898 437.645 157.917 437.533 157.959C437.421 158 437.319 158.063 437.231 158.145C437.144 158.226 437.073 158.324 437.023 158.432C429.565 173.882 423.446 189.943 418.734 206.439C417.252 211.955 415.97 217.523 414.89 223.131C414.854 223.246 414.842 223.368 414.856 223.488C414.87 223.608 414.909 223.723 414.972 223.827C415.034 223.93 415.117 224.02 415.216 224.088C415.315 224.157 415.428 224.204 415.547 224.227C415.663 224.256 415.784 224.261 415.902 224.243C416.021 224.224 416.134 224.182 416.236 224.12C416.338 224.057 416.427 223.974 416.497 223.877C416.566 223.779 416.616 223.669 416.642 223.552C417.279 221.361 420.434 210.782 421.404 207.683C424.718 211.979 427.671 216.541 430.235 221.323C432.505 226.033 434.269 230.971 435.498 236.053C426.709 235.164 418.481 231.32 412.161 225.147C405.84 218.975 401.801 210.841 400.704 202.075C400.657 201.726 400.492 201.403 400.235 201.16C399.979 200.918 399.648 200.77 399.296 200.742C398.945 200.714 398.594 200.808 398.303 201.007C398.012 201.206 397.798 201.499 397.696 201.837C391.002 225.115 382.365 264.368 365.068 281.676C362.607 284.137 351.246 282.351 347.379 282.272C347.26 282.264 347.141 282.281 347.028 282.32C346.915 282.359 346.811 282.42 346.722 282.5C346.633 282.58 346.56 282.676 346.509 282.784C346.458 282.892 346.429 283.01 346.423 283.129C346.412 283.248 346.427 283.368 346.465 283.481C346.503 283.594 346.564 283.698 346.645 283.787C346.726 283.875 346.824 283.945 346.933 283.993C347.043 284.041 347.161 284.065 347.28 284.065L347.836 284.105C344.872 287.513 341.139 290.165 336.945 291.841C330.802 293.602 328.107 287.99 329.234 280.745C329.302 280.527 329.283 280.292 329.181 280.088C329.08 279.884 328.904 279.727 328.69 279.649C326.977 278.968 325.223 278.392 323.44 277.924C322.246 277.625 321.049 277.407 319.099 277.067C311.831 255.726 299.544 224.708 292.505 205.159C292.425 204.931 292.26 204.743 292.046 204.631C291.831 204.52 291.582 204.495 291.349 204.561C291.236 204.595 291.131 204.652 291.039 204.727C290.948 204.802 290.872 204.895 290.817 204.999C290.761 205.104 290.727 205.218 290.716 205.336C290.704 205.454 290.716 205.572 290.751 205.686C297.614 230.756 311.741 264.637 316.672 277.593C312.945 297.639 313.615 308.036 312.799 329.327C312.788 329.515 312.812 329.702 312.871 329.881C310.846 333.466 310.07 335.61 307.439 341.015C301.105 354.272 306.408 342.632 299.91 357.03C299.8 357.25 299.779 357.504 299.854 357.738C299.928 357.973 300.091 358.169 300.308 358.285C300.519 358.396 300.766 358.418 300.994 358.347C301.222 358.277 301.412 358.118 301.523 357.907C305.048 352.589 308.145 347 310.786 341.192C312.482 337.871 313.859 334.396 314.897 330.814C315.022 330.765 315.141 330.701 315.25 330.623C329.871 319.907 361.307 296.848 368.467 281.514C384.684 264.302 392.514 231.933 398.951 208.695C401.231 216.827 405.914 224.081 412.387 229.505C418.86 234.93 426.821 238.272 435.226 239.094C427.142 272.116 397.98 314.406 376.722 340.882C376.047 341.332 370.977 363.006 364.371 373.722C364.236 373.923 364.185 374.17 364.229 374.408C364.274 374.647 364.41 374.858 364.609 374.997C364.825 375.124 365.082 375.163 365.326 375.107C365.57 375.052 365.784 374.906 365.925 374.698C368.346 370.642 370.379 366.367 371.998 361.929C374.947 354.463 378.415 343.145 378.651 342.268C401.117 315.035 430.88 272.337 438.609 238.048C438.707 237.67 438.653 237.267 438.457 236.928C438.262 236.589 437.94 236.34 437.563 236.236C436.813 228.019 433.923 220.143 429.18 213.392C427.251 210.399 424.849 207.74 422.067 205.519C426.714 189.771 432.259 174.303 438.676 159.19ZM316.006 326.271C316.407 313.747 316.652 293.827 318.28 279.35C321.298 279.61 324.281 280.181 327.181 281.055C326.858 281.902 326.593 282.769 326.387 283.651C325.262 290.437 330.04 297.147 337.8 294.767C342.996 292.853 347.343 289.155 350.065 284.332C353.983 284.782 360.581 285.668 364.346 284.557C355.4 296.958 330.494 315.539 316.006 326.271Z" fill="white"/>
<path d="M38.2107 88.3623C35.3711 90.93 32.6077 93.5808 29.9243 96.3113C36.7478 101.436 42.4186 107.938 46.5692 115.394C48.8114 113.934 51.1858 112.687 53.6612 111.67C49.7339 103.264 44.8619 94.3342 38.2107 88.3623Z" fill="#38A1FF"/>
<path d="M54.4056 113.382C51.7167 114.692 49.173 116.281 46.8165 118.123C46.678 118.221 46.5206 118.288 46.3544 118.321C46.1882 118.354 46.017 118.351 45.8519 118.314C45.6867 118.276 45.5313 118.204 45.3956 118.103C45.2599 118.002 45.1471 117.873 45.0643 117.725C40.4081 109.876 34.1578 103.09 26.7167 97.8052C26.5382 97.6751 26.3891 97.5088 26.279 97.3172C26.169 97.1256 26.1005 96.913 26.078 96.6932C26.0555 96.4734 26.0795 96.2514 26.1485 96.0415C26.2175 95.8316 26.3298 95.6386 26.4783 95.4749C29.6273 92.1392 33.8448 88.1107 37.1557 85.1574C37.4325 84.9129 37.7881 84.7763 38.1574 84.7725C38.5267 84.7688 38.885 84.8983 39.1666 85.1371C43.3623 88.7384 46.9124 93.0295 49.6641 97.8255C52.3741 102.535 54.5334 107.542 56.0993 112.745C56.1838 112.97 56.1755 113.219 56.0764 113.437C55.9772 113.656 55.7954 113.826 55.5708 113.91C55.3462 113.995 55.0972 113.986 54.8787 113.887C54.6602 113.788 54.49 113.606 54.4056 113.382ZM38.2107 88.3626C35.3713 90.9306 32.6079 93.5814 29.9242 96.3117C36.7481 101.436 42.419 107.938 46.5691 115.395C48.8108 113.933 51.1853 112.686 53.6611 111.67C52.5927 109.376 50.7955 105.747 49.3177 103.163C46.4857 97.6328 42.7293 92.6272 38.2107 88.3626Z" fill="white"/>
<path d="M168.18 46.5226C168.25 46.3925 168.351 46.2814 168.474 46.199C168.597 46.1166 168.738 46.0653 168.885 46.0496C169.032 46.0339 169.18 46.0542 169.318 46.1088C169.455 46.1634 169.577 46.2506 169.673 46.3629L169.932 46.3224C170.169 46.2836 170.413 46.339 170.61 46.4768C170.807 46.6146 170.942 46.8239 170.987 47.0602C171.02 47.28 170.974 47.5044 170.858 47.6938C170.741 47.8831 170.562 48.0252 170.351 48.0949C172.892 55.7691 174.399 63.7479 174.831 71.8205C174.837 72.1911 174.709 72.5515 174.472 72.8362C174.235 73.121 173.903 73.3112 173.538 73.3725C169.763 73.9326 164.952 74.8076 160.789 75.1854C160.406 75.2193 160.025 75.1095 159.72 74.8774C159.414 74.6453 159.206 74.3077 159.136 73.9303C158.087 68.0822 156.112 56.9549 154.495 50.2677C154.404 49.8781 154.471 49.4684 154.682 49.1284C154.893 48.7885 155.23 48.5462 155.62 48.4547C157.275 48.1691 161.221 47.3526 168.18 46.5226ZM168.439 48.5132C166.221 49.089 160.903 50.4116 157.741 51.0437C159.358 57.6544 160.865 66.114 161.945 71.9982C169.023 71.067 166.088 71.4246 171.783 70.6036C171.436 63.1442 170.315 55.7411 168.439 48.5132Z" fill="white"/>
<path d="M232.905 88.5776C230.714 89.6528 223.203 93.1999 221.71 93.877C221.822 96.3625 222.281 98.3756 222.587 100.749C225.023 100.544 227.502 100.695 229.956 100.551C232.282 100.416 234.32 100.13 236.949 100.13C235.39 96.3562 234.04 92.4996 232.905 88.5776Z" fill="#38A1FF"/>
<path d="M238.103 102.044C235.404 102.206 232.9 102.706 230.197 103.079C227.414 103.435 224.079 103.426 221.611 103.857C221.224 103.909 220.832 103.81 220.516 103.58C220.201 103.35 219.986 103.007 219.917 102.623C219.278 99.4171 218.819 96.1782 218.543 92.9213C218.54 92.6138 218.629 92.3124 218.8 92.0565C218.97 91.8005 219.214 91.6018 219.499 91.4863C220.873 90.8879 229.956 86.5873 233.143 85.0712C233.339 84.978 233.552 84.9279 233.769 84.9245C233.986 84.9211 234.201 84.9644 234.399 85.0515C234.598 85.1386 234.775 85.2674 234.919 85.4291C235.064 85.5909 235.171 85.7818 235.235 85.989C236.759 90.6593 238.035 95.4066 239.059 100.211C239.28 100.288 239.464 100.445 239.575 100.651C239.686 100.856 239.717 101.096 239.66 101.323C239.604 101.55 239.465 101.747 239.271 101.877C239.076 102.007 238.84 102.059 238.609 102.024C238.444 102.07 238.271 102.077 238.103 102.044ZM232.905 88.5779C230.714 89.6531 223.204 93.2002 221.71 93.8773C221.823 96.3672 222.284 98.4006 222.587 100.749C225.044 100.544 227.498 100.695 229.956 100.551C232.282 100.416 234.32 100.13 236.949 100.13C235.417 96.4685 234.032 92.269 232.905 88.5779Z" fill="white"/>
<path d="M285.913 59.3532C286.073 59.3437 286.233 59.3758 286.377 59.4463C286.521 59.5168 286.644 59.6234 286.734 59.7556C286.825 59.8878 286.88 60.0412 286.894 60.2008C286.907 60.3605 286.88 60.521 286.813 60.6668C285.126 64.6975 282.332 69.4188 280.917 73.1369C280.755 73.4842 280.471 73.7601 280.119 73.9129C279.744 74.0493 279.33 74.0355 278.965 73.8747C275.195 72.1789 271.437 70.4589 267.689 68.7148C267.498 68.626 267.327 68.499 267.186 68.3415C267.046 68.1841 266.939 67.9995 266.873 67.7993C266.511 66.7624 266.913 66.8883 272.631 56.6832C273.367 55.2684 274.163 53.8536 274.86 52.4208C274.966 52.2162 275.117 52.0383 275.302 51.9005C275.486 51.7627 275.7 51.6686 275.926 51.6253C276.152 51.582 276.386 51.5906 276.608 51.6505C276.831 51.7103 277.037 51.8199 277.211 51.971C278.002 52.6795 283.623 57.5627 285.913 59.3532ZM276.711 55.4889C273.879 60.7972 273.322 61.6205 270.476 66.6432L278.902 70.6469C280.735 66.9828 282.679 64.3984 284.66 60.8062C281.838 59.3062 279.175 57.5247 276.711 55.4889Z" fill="white"/>
<path d="M346.817 86.8643C346.969 86.7075 347.064 86.504 347.085 86.2867C347.107 86.0695 347.054 85.8513 346.936 85.6676C346.936 85.6676 345.123 82.6401 343.369 79.8509C342.413 78.3574 341.498 76.9426 340.98 76.0676C340.864 75.8852 340.709 75.7305 340.527 75.6141C340.345 75.4978 340.14 75.4228 339.925 75.3943C339.711 75.3658 339.493 75.3845 339.287 75.4491C339.08 75.5138 338.891 75.6228 338.731 75.7685C334.212 79.6845 329.983 84.6892 325.026 89.4892C324.788 89.7101 324.627 90.0012 324.566 90.3201C324.506 90.6389 324.548 90.9688 324.688 91.2617C325.874 93.6999 329.036 98.8665 330.604 101.46C330.723 101.668 330.89 101.843 331.092 101.973C331.293 102.102 331.522 102.181 331.76 102.203C331.999 102.225 332.239 102.19 332.46 102.099C332.682 102.009 332.878 101.867 333.033 101.685C336.374 97.6587 343.315 90.3799 346.817 86.8643ZM339.487 79.1154C338.528 80.0511 330.939 87.9799 327.993 90.9063C328.443 91.806 330.073 94.7728 332.136 98.1985C336.147 93.9037 340.418 89.8587 344.923 86.086C343.033 83.8247 341.219 81.4998 339.487 79.1154Z" fill="white"/>
<path d="M364.18 55.2817C364.405 55.3582 363.923 55.2525 374.119 58.2688C374.373 55.2279 374.859 52.211 375.575 49.2446C376.153 46.3565 377.055 40.4723 377.599 38.1308C373.406 36.9859 371.994 37.3166 367.898 36.3179C366.602 41.5475 365.572 46.8394 364.812 52.1732C364.618 53.2079 364.418 54.2448 364.18 55.2817Z" fill="#38A1FF"/>
<path d="M379.459 38.3899L378.164 49.6837C377.865 51.6946 377.446 53.8876 377.208 56.0582C376.774 60.3476 377.536 60.4646 376.609 61.3373C376.434 61.4894 376.227 61.599 376.002 61.6575C375.778 61.716 375.543 61.7219 375.316 61.6747C374.657 61.5555 374.02 61.3756 373.292 61.1776C364.504 58.5414 363.395 58.375 361.76 57.6327C361.417 57.4913 361.137 57.2323 360.968 56.9024C360.8 56.5725 360.755 56.1934 360.842 55.8333C362.191 50.5632 362.603 46.3862 363.552 41.35C364.175 38.3854 364.956 35.8977 365.304 34.1793C365.35 33.972 365.438 33.7766 365.563 33.6054C365.688 33.4342 365.848 33.2911 366.032 33.1852C366.216 33.0793 366.42 33.013 366.631 32.9905C366.841 32.968 367.055 32.9899 367.257 33.0546C370.244 34.204 375.354 34.7326 379.347 36.7997C379.497 36.8654 379.627 36.9711 379.722 37.1052C379.817 37.2394 379.873 37.3969 379.884 37.5608C379.896 37.7246 379.862 37.8885 379.787 38.0347C379.713 38.1808 379.599 38.3037 379.459 38.3899ZM367.905 36.3183C366.609 41.548 365.579 46.8399 364.819 52.1737C364.618 53.2083 364.42 54.2453 364.18 55.2822C364.405 55.3587 363.923 55.253 374.119 58.2693C374.373 55.2284 374.86 52.2115 375.575 49.2451C376.153 46.357 377.055 40.4728 377.599 38.1313C373.413 36.9774 372.001 37.317 367.9 36.3183H367.905Z" fill="white"/>
<path d="M399.051 66.3689C399.046 66.1586 399.112 65.9526 399.238 65.7847C399.365 65.6168 399.545 65.4969 399.749 65.4446C399.953 65.3924 400.168 65.4109 400.36 65.497C400.552 65.5832 400.709 65.732 400.806 65.919C406.04 76.3356 407.306 87.6675 408.633 97.8096C408.68 98.1601 408.603 98.5159 408.413 98.8146C408.224 99.1133 407.936 99.3357 407.599 99.4426C404.375 100.475 401.323 102.196 398.196 103.089C397.831 103.196 397.439 103.163 397.096 102.997C396.753 102.831 396.485 102.543 396.343 102.189C394.094 96.3004 392.859 91.9637 391.343 87.6271C389.423 82.6669 387.891 77.5652 386.761 72.3678C386.705 72.0054 386.784 71.6353 386.983 71.3271C387.181 71.0189 387.486 70.7938 387.838 70.6943C391.843 70.0726 395.667 68.5975 399.051 66.3689ZM399.789 68.2201C396.874 70.529 393.509 72.2052 389.91 73.1416C391.068 77.7281 392.518 82.2359 394.251 86.6374C396.95 94.7124 395.277 90.0608 398.694 99.7058C400.617 99.031 403.163 97.8029 405.486 96.9549C404.405 87.2244 403.152 76.7247 399.789 68.2201Z" fill="white"/>
<path d="M374.559 148.381C374.506 156.61 373.619 164.812 371.909 172.862C376.509 173.987 379.399 174.875 382.168 175.671C383.585 166.686 384.384 157.614 384.559 148.52C381.237 148.17 377.89 148.123 374.559 148.381Z" fill="#38A1FF"/>
<path d="M382.369 177.763C377.67 176.69 374.046 175.84 370.058 175.134C369.732 175.053 369.447 174.855 369.26 174.576C368.623 173.512 369.505 174.18 370.915 160.333C371.346 155.911 371.531 151.469 371.471 147.026C371.46 146.647 371.591 146.278 371.838 145.991C372.085 145.703 372.431 145.518 372.807 145.472C377.265 144.974 381.766 145.021 386.213 145.611C386.575 145.648 386.911 145.817 387.157 146.085C387.402 146.354 387.541 146.703 387.546 147.067C387.789 156.904 386.581 166.724 383.961 176.209L384.46 176.348C384.696 176.415 384.898 176.567 385.027 176.775C385.156 176.983 385.203 177.232 385.158 177.473C385.088 177.704 384.933 177.9 384.724 178.022C384.516 178.143 384.269 178.182 384.033 178.13L383.016 177.891C382.792 177.936 382.559 177.89 382.369 177.763ZM384.559 148.522C381.237 148.172 377.89 148.125 374.559 148.383C374.506 156.612 373.619 164.814 371.909 172.864C376.509 173.989 379.4 174.877 382.168 175.673C383.585 166.687 384.384 157.615 384.559 148.52V148.522Z" fill="white"/>
<path d="M23.6218 154C22.1871 149.641 20.0762 145.535 17.3665 141.831C16.577 140.898 15.9067 140.18 15.2364 140.614C14.4401 141.03 14.7595 141.818 15.4748 143.781C15.9652 145.007 19.9442 152.466 20.673 153.678C22.3329 156.407 22.6973 157.203 23.5813 156.805C24.4653 156.407 24.0919 155.59 23.6218 154Z" fill="white"/>
<path d="M24.1755 136.171C23.7797 135.568 22.3761 133.947 21.5866 134.417C20.7633 134.882 21.4179 137.116 21.5281 137.426C22.4608 139.406 23.4236 141.371 24.4162 143.322C25.2462 144.818 26.3709 146.979 27.383 146.568C29.2972 145.794 25.2372 137.777 24.1755 136.171Z" fill="white"/>
<path d="M32.0804 137.673C31.8924 136.645 31.6262 135.633 31.2841 134.646C31.1124 133.967 30.8921 133.302 30.6251 132.655C30.3214 131.98 29.4015 130.631 28.6344 130.822C28.2318 130.926 27.8967 130.908 27.8359 133.452C28.1929 135.188 28.7072 136.888 29.3722 138.53C30.2 140.044 30.7218 141.286 31.6215 140.98C32.5437 140.67 32.1411 137.97 32.0804 137.673Z" fill="white"/>
<path d="M64.8972 257.276C54.2445 235.298 51.4463 210.583 47.7057 186.103C47.682 185.903 47.6175 185.71 47.5161 185.536C47.4147 185.361 47.2786 185.21 47.1163 185.09C46.9539 184.971 46.7687 184.886 46.5722 184.841C46.3757 184.796 46.172 184.791 45.9738 184.828C44.8491 185.015 43.7245 185.222 42.5998 185.44C42.5526 184.012 42.5481 182.581 42.4919 181.153C42.1815 163.399 41.6619 166.292 42.0937 145.839C42.1522 144.593 42.1927 139.898 42.1927 138.25C42.2193 138.011 42.1499 137.771 42 137.584C41.85 137.396 41.6317 137.276 41.3931 137.25C41.1545 137.223 40.9151 137.292 40.7276 137.442C40.5401 137.592 40.4198 137.811 40.3933 138.049C39.8373 140.558 39.4384 143.1 39.1989 145.659C38.3744 159.062 38.8981 172.514 40.7622 185.813C35.7507 186.855 31.8032 187.858 26.3059 188.924C26.0095 185.645 25.5455 182.384 24.9158 179.153C23.5932 172.144 20.6759 161.188 16.0716 155.706C15.1097 154.575 14.0782 153.504 12.9833 152.501C12.8128 152.326 12.5823 152.223 12.3385 152.212C12.0946 152.2 11.8555 152.282 11.6697 152.44C11.583 152.521 11.5131 152.619 11.4641 152.726C11.4152 152.834 11.388 152.951 11.3842 153.07C11.3805 153.188 11.4002 153.306 11.4422 153.417C11.4843 153.528 11.5478 153.629 11.6292 153.716C14.4016 157.788 16.6817 162.175 18.4221 166.784C20.3137 172.079 20.6939 173.791 24.4615 189.277C23.0152 189.531 21.5554 189.759 20.0776 189.938C19.8783 189.958 19.6849 190.017 19.5086 190.112C19.3323 190.207 19.1768 190.336 19.0511 190.492C18.9255 190.647 18.8321 190.827 18.7766 191.019C18.7212 191.212 18.7046 191.413 18.728 191.612C24.999 251.844 33.308 309.518 55.061 365.591C55.1487 365.82 55.3235 366.005 55.5473 366.106C55.7711 366.207 56.0256 366.215 56.2553 366.129C56.4797 366.035 56.6581 365.857 56.7517 365.633C56.8452 365.409 56.8463 365.157 56.7547 364.932C53.3043 356.106 50.5579 347.045 47.8699 337.981C33.8613 290.781 27.0954 241.504 21.9332 192.786C30.2557 191.578 37.2285 189.498 44.9616 188.105C48.646 212.677 51.6398 235.887 63.3069 258.104C63.3533 258.22 63.4235 258.325 63.513 258.413C63.6025 258.5 63.7093 258.568 63.8265 258.612C63.9437 258.656 64.0689 258.675 64.1939 258.668C64.3189 258.661 64.441 258.628 64.5525 258.571C64.664 258.514 64.7623 258.434 64.8412 258.337C64.9201 258.24 64.9778 258.127 65.0107 258.006C65.0435 257.885 65.0508 257.759 65.032 257.635C65.0133 257.511 64.9689 257.393 64.9017 257.287L64.8972 257.276Z" fill="white"/>
<path d="M173.443 121.468C173.443 118.978 173.344 118.094 172.487 117.982C171.549 117.874 171.552 118.657 170.933 120.274C170.541 121.72 170.307 123.204 170.236 124.701C169.679 128.909 169.632 133.169 170.096 137.389C170.321 139.224 170.267 140.374 171.273 140.358C172.532 140.336 172.526 138.041 172.766 132.888C172.789 132.584 173.493 122.152 173.443 121.468Z" fill="white"/>
<path d="M179.726 121.36C178.718 121.054 177.654 123.726 177.576 124.03C176.512 127.607 175.974 131.319 175.981 135.051C175.981 136.248 175.981 137.442 176.937 137.541C177.837 137.633 177.976 136.77 178.631 134.017C179.081 132.1 178.982 132.408 179.627 128.796C179.983 126.949 181.265 121.792 179.726 121.36Z" fill="white"/>
<path d="M186.282 124.125C185.383 123.812 184.586 125.371 184.01 126.599C183.126 129.273 182.414 132.001 181.88 134.766C181.46 137.782 181.354 139.199 182.317 139.406C183.23 139.604 183.39 138.862 184.269 136.518C184.921 134.784 186.701 128.223 186.82 127.395C186.921 126.821 187.227 124.388 186.282 124.125Z" fill="white"/>
<path d="M193.13 127.161C192.909 127.06 192.658 127.05 192.43 127.135C192.202 127.219 192.017 127.39 191.916 127.611C189.914 130.972 188.278 134.538 187.035 138.247C183.511 147.026 181.282 156.27 180.417 165.689C177.267 164.979 174.013 164.854 170.817 165.322C170.878 159.63 170.087 153.961 168.471 148.502C167.348 144.407 165.869 140.418 164.049 136.581C163.164 134.975 162.172 133.431 161.08 131.958C161.03 131.854 160.96 131.761 160.873 131.685C160.786 131.609 160.684 131.552 160.574 131.516C160.464 131.481 160.348 131.468 160.233 131.479C160.118 131.49 160.007 131.525 159.906 131.581C159.798 131.635 159.702 131.71 159.625 131.803C159.548 131.896 159.49 132.004 159.456 132.119C159.423 132.235 159.413 132.357 159.429 132.477C159.444 132.597 159.484 132.712 159.546 132.815C162.618 141.415 163.554 142.177 165.482 149.348C166.916 154.71 168.043 160.151 168.856 165.642C167.58 165.878 166.292 166.177 164.987 166.523C164.691 166.603 164.428 166.772 164.231 167.007C164.035 167.242 163.917 167.532 163.892 167.837C163.442 172.92 161.242 206.343 161.042 207.758C161.008 207.994 161.065 208.235 161.202 208.431C161.339 208.627 161.546 208.763 161.779 208.813C162.017 208.851 162.26 208.795 162.456 208.657C162.653 208.52 162.789 208.311 162.834 208.075C165.196 197.503 165.716 180.584 166.838 169.232C171.596 167.781 176.67 167.726 181.459 169.074C181.126 175.768 181.684 184.025 181.776 191.761C181.775 192.003 181.868 192.236 182.036 192.411C182.204 192.586 182.433 192.689 182.675 192.699C182.923 192.7 183.161 192.605 183.339 192.434C183.518 192.262 183.623 192.028 183.631 191.781C183.751 186.259 184.268 170.466 184.468 168.116C184.495 167.801 184.418 167.487 184.249 167.221C184.079 166.954 183.827 166.751 183.53 166.643C183.1 166.482 182.666 166.332 182.228 166.193C186.621 146.941 188.456 143.844 193.627 128.328C193.712 128.107 193.707 127.862 193.615 127.644C193.522 127.426 193.348 127.253 193.13 127.161Z" fill="white"/>
<path d="M158.886 233.179C157.181 238.75 158.407 235.428 154.345 252.7C154.008 254.275 153.688 255.827 153.349 257.381C153.274 257.609 153.287 257.856 153.387 258.074C153.487 258.291 153.665 258.464 153.886 258.555C154.124 258.631 154.382 258.613 154.608 258.506C154.833 258.399 155.01 258.211 155.103 257.979C155.44 257.201 155.8 256.425 156.079 255.647C158.934 248.572 160.498 241.043 160.699 233.417C160.72 233.179 160.649 232.941 160.501 232.753C160.353 232.565 160.14 232.439 159.903 232.403C159.785 232.386 159.665 232.393 159.55 232.424C159.435 232.454 159.327 232.506 159.233 232.579C159.138 232.651 159.059 232.741 159 232.844C158.94 232.947 158.902 233.061 158.886 233.179Z" fill="white"/>
<path d="M274.279 214.746C273.829 213.423 270.504 213.846 269.976 213.95C267.952 214.424 265.977 215.09 264.08 215.94C263.205 216.494 261.698 217.715 262.087 218.669C262.402 219.708 265.095 219.694 265.333 219.665C267.614 219.111 269.826 218.303 271.928 217.256C273.563 216.21 274.508 215.828 274.279 214.746Z" fill="#38A1FF"/>
<path d="M296.168 218.549C295.844 217.168 294.258 217.506 288.102 218.947C280.851 221.09 273.728 223.643 266.767 226.595C263.409 228.244 262.464 228.808 262.883 229.841C263.191 230.826 263.949 230.929 268.362 229.942C271.304 229.256 287.535 223.172 289.506 222.391C295.408 220.085 296.573 219.883 296.168 218.549Z" fill="#38A1FF"/>
</svg>
