<svg width="470" height="449" viewBox="0 0 470 449" fill="none" xmlns="http://www.w3.org/2000/svg">
<path d="M85.019 148.324C83.2811 135.99 84.2276 135.377 82.5741 134.653C81.0429 134.045 80.552 135.475 78.598 136.436C76.7566 137.34 76.3715 136.405 75.2465 137.262C74.8984 137.575 74.6756 138.003 74.6194 138.467C74.1493 143.487 74.3984 148.549 75.3592 153.498C75.3012 153.656 75.2865 153.826 75.3167 153.992C75.3468 154.157 75.4207 154.311 75.5307 154.438C76.8091 156.429 78.7589 157.897 81.0264 158.574C81.547 158.741 82.0982 158.792 82.6406 158.722C83.1831 158.653 83.7035 158.464 84.1648 158.17C84.6261 157.877 85.0169 157.485 85.3095 157.023C85.6021 156.561 85.7892 156.04 85.8575 155.497C85.9103 153.079 85.6281 150.665 85.019 148.324Z" fill="#38A1FF"/>
<path d="M72.2288 126.663C71.5383 130.827 77.4662 132.506 80.3526 129.817C81.4776 128.77 80.658 127.353 79.2159 127.856C78.2765 128.187 74.709 127.71 74.3285 126.466C73.9339 125.162 72.4731 125.181 72.2288 126.663Z" fill="white"/>
<path d="M76.9033 118.981C76.9033 119.649 77.0694 120.289 77.3649 120.761C77.6604 121.234 78.0613 121.499 78.4792 121.499C78.8972 121.499 79.298 121.234 79.5936 120.761C79.8891 120.289 80.0551 119.649 80.0551 118.981C80.0551 118.313 79.8891 117.673 79.5936 117.201C79.298 116.729 78.8972 116.463 78.4792 116.463C78.0613 116.463 77.6604 116.729 77.3649 117.201C77.0694 117.673 76.9033 118.313 76.9033 118.981Z" fill="white"/>
<path d="M85.1816 176.616C85.6983 178.692 87.4316 187.654 89.4444 187.159C91.6591 186.67 89.3856 178.922 88.4767 175.34C88.1127 173.903 86.9407 169.436 86.4311 168.191C85.4376 165.977 84.8317 164.229 83.7044 164.581C81.6916 165.15 83.8829 171.39 85.1816 176.616Z" fill="#38A1FF"/>
<path d="M99.6698 174.097C100.774 176.697 101.638 179.381 102.624 181.95C103.876 185.217 104.36 186.392 105.466 186.122C108.106 185.476 103.956 175.222 102.909 172.734C101.807 170.01 100.457 167.393 98.876 164.916C97.7533 163.434 95.9614 161.031 94.8998 161.792C93.3474 162.779 96.5274 166.689 99.6698 174.097Z" fill="#38A1FF"/>
<path d="M56.4912 224.415C57.0307 215.069 58.1113 205.761 59.7275 196.54C59.7834 196.247 59.7216 195.945 59.5556 195.698C59.3896 195.451 59.1328 195.279 58.841 195.22C58.5493 195.161 58.2461 195.22 57.9974 195.384C57.7487 195.547 57.5746 195.802 57.5128 196.093C55.6206 205.359 54.3114 214.734 53.593 224.164C53.593 226.832 54.1449 224.946 63.3655 239.787C66.1486 244.197 68.7673 248.686 71.3179 253.188L53.7621 271.535C20.5552 254.543 5.94688 224.335 21.4336 189.397C27.3051 176.01 36.777 166.529 47.2283 156.231C47.3936 156.065 47.5241 155.867 47.612 155.65C47.7 155.433 47.7436 155.201 47.7403 154.967C47.4678 143.879 46.5378 130.687 49.4454 119.867C50.17 116.869 51.1587 113.942 52.3999 111.119C60.5496 93.8892 83.2864 91.7543 84.3409 102.884C84.3523 103.019 84.3901 103.149 84.452 103.269C84.514 103.389 84.5989 103.495 84.7019 103.582C84.805 103.669 84.9241 103.735 85.0526 103.776C85.1811 103.816 85.3163 103.832 85.4506 103.82C85.5849 103.809 85.7157 103.771 85.8354 103.709C85.9551 103.647 86.0615 103.562 86.1484 103.459C86.2353 103.356 86.3011 103.237 86.3419 103.109C86.3828 102.98 86.398 102.845 86.3865 102.711C85.6514 92.3767 72.1564 91.5969 62.8653 96.2613C57.1036 99.218 52.4395 103.941 49.5557 109.74C42.6884 123.43 43.9402 141.117 44.2714 154.298C38.1365 160.072 32.4396 166.294 27.2276 172.913C12.8753 191.864 6.82995 217.231 16.4404 239.244C22.9743 254.219 35.9832 266.577 53.3699 275.178C53.6945 275.341 54.0629 275.396 54.421 275.334C54.7791 275.272 55.1079 275.097 55.3591 274.835C57.9708 272.16 70.7542 258.66 74.6177 254.606C74.86 254.342 75.0131 254.008 75.0552 253.652C75.0974 253.296 75.0265 252.936 74.8526 252.622C69.4469 242.773 63.3092 233.344 56.4912 224.415Z" fill="white"/>
<path d="M141.543 191.74C137.523 183.492 137.823 184.178 135.691 180.352C125.486 162.716 110.911 145.083 90.6422 147.347C90.2613 142.316 89.4807 137.324 88.3077 132.417C88.064 131.744 87.8017 131.078 87.5209 130.42C87.798 129.321 87.9664 128.197 88.0235 127.064L91.9997 125.42C92.4125 125.23 92.7336 124.884 92.8932 124.459C93.0528 124.033 93.0381 123.562 92.8522 123.147C88.9113 114.013 86.4711 108.132 81.0341 101.443C80.7346 101.003 80.3065 100.667 79.8083 100.479C79.3102 100.292 78.7663 100.263 78.251 100.396C76.0606 101.312 74.101 102.703 72.5133 104.468C69.5582 108.23 67.7809 112.781 67.4051 117.55C67.3875 117.751 67.4058 117.953 67.4591 118.147C64.9132 127.863 66.367 138.408 69.3944 147.903C70.1433 149.985 71.3031 151.894 72.8048 153.518C74.3065 155.142 76.1195 156.447 78.1359 157.357C85.6115 160.931 87.6618 155.926 84.7284 148.998C84.6284 148.711 84.4187 148.476 84.1454 148.344C83.8721 148.212 83.5576 148.195 83.2711 148.294C82.9846 148.394 82.7495 148.604 82.6176 148.877C82.4857 149.151 82.4677 149.465 82.5677 149.752C82.8989 150.884 83.5846 154.487 82.7391 155.313C82.145 155.757 74.7069 152.965 72.7388 146.858C69.7991 137.991 68.8755 128.579 70.0356 119.309C72.0969 118.882 74.0568 118.063 75.8084 116.895C78.8498 115.202 81.2985 112.616 82.8237 109.487C84.4677 112.947 84.1554 111.935 88.9888 122.898L85.581 124.272C85.2711 124.412 85.0086 124.639 84.8255 124.925C84.6425 125.212 84.5467 125.545 84.5499 125.885C84.5499 131.757 81.6823 136.099 75.9141 137.1C75.5557 137.156 75.2265 137.33 74.9791 137.596C74.7317 137.861 74.5804 138.202 74.5496 138.563C74.2276 141.88 74.3231 145.225 74.8338 148.519C74.8681 148.814 75.0158 149.083 75.2456 149.271C75.4755 149.459 75.7694 149.549 76.065 149.524C76.3607 149.499 76.6348 149.359 76.8294 149.135C77.0239 148.911 77.1236 148.62 77.1072 148.324C77.0944 145.59 77.2844 142.859 77.6756 140.153C80.7755 139.502 83.5189 137.713 85.3649 135.139C85.6444 136.837 86.1188 140.379 87.4481 146.196C87.899 147.723 88.3124 149.667 89.6253 149.364C90.2124 149.698 90.9804 149.223 95.6283 149.973C117.534 153.495 128.337 175.206 139.547 192.839C139.616 192.971 139.712 193.088 139.827 193.182C139.943 193.277 140.076 193.347 140.219 193.388C140.363 193.43 140.513 193.442 140.661 193.424C140.809 193.406 140.952 193.358 141.081 193.283C141.34 193.133 141.532 192.89 141.618 192.603C141.704 192.317 141.678 192.008 141.543 191.74Z" fill="white"/>
<path d="M58.7625 275.089C58.9602 275.942 59.2856 276.76 59.7277 277.515C60.9976 279.103 62.6358 280.356 64.5001 281.167C65.7806 281.9 67.2301 282.285 68.7053 282.285C70.1804 282.285 71.63 281.9 72.9105 281.167C73.1957 281.077 73.4335 280.877 73.5713 280.611C73.7092 280.346 73.7359 280.036 73.6456 279.751C73.5553 279.466 73.3553 279.228 73.0897 279.09C72.8241 278.952 72.5146 278.926 72.2294 279.016C71.5639 279.032 70.8984 278.99 70.2401 278.891C69.7845 278.863 69.3876 278.854 68.9319 278.8C66.833 278.524 64.8593 277.644 63.2507 276.268C62.8537 275.977 62.5696 275.664 62.229 275.364C62.1327 275.286 60.787 274.262 60.585 274.077C60.4508 273.835 60.226 273.657 59.9602 273.581C59.6944 273.505 59.4093 273.537 59.1676 273.672C58.9259 273.806 58.7475 274.031 58.6715 274.296C58.5955 274.562 58.6282 274.847 58.7625 275.089Z" fill="white"/>
<path d="M70.977 275.492C71.2712 275.939 71.6361 276.336 72.0574 276.666C73.1242 277.235 74.2744 277.632 75.4652 277.841C76.315 278.138 77.2206 278.24 78.1151 278.139C79.0096 278.038 79.8699 277.737 80.6322 277.258C80.7812 277.232 80.9234 277.175 81.0504 277.093C81.1773 277.011 81.2865 276.903 81.3715 276.778C81.4565 276.653 81.5155 276.512 81.5451 276.363C81.5747 276.215 81.5743 276.062 81.5439 275.914C81.5134 275.765 81.4537 275.625 81.368 275.5C81.2824 275.375 81.1726 275.269 81.0451 275.187C80.9177 275.105 80.7752 275.05 80.626 275.024C80.4769 274.998 80.324 275.002 80.1765 275.036C79.7232 274.968 79.3263 274.748 78.8707 274.687C78.0182 274.578 77.1656 274.583 76.3131 274.428C75.0988 274.212 73.8776 273.724 73.0743 273.644C72.6211 273.599 72.3369 273.681 71.94 273.66C71.8187 273.579 71.6818 273.525 71.5381 273.5C71.3944 273.476 71.2472 273.482 71.106 273.518C70.9647 273.554 70.8326 273.619 70.7182 273.709C70.6037 273.799 70.5096 273.913 70.4417 274.042C70.3739 274.171 70.334 274.313 70.3245 274.458C70.315 274.603 70.3362 274.749 70.3866 274.886C70.4371 275.023 70.5157 275.147 70.6174 275.252C70.7192 275.356 70.8417 275.438 70.977 275.492Z" fill="white"/>
<path d="M72.285 261.353C72.2984 262.21 72.4515 263.06 72.7383 263.868C73.6086 265.546 74.716 267.09 76.0264 268.453C77.6529 270.634 79.9808 272.19 82.6189 272.859C82.8846 273.001 83.1961 273.033 83.4851 272.946C83.774 272.86 84.0166 272.662 84.1596 272.396C84.3025 272.13 84.3341 271.819 84.2473 271.53C84.1606 271.241 83.9626 270.998 83.6969 270.855C83.1849 270.409 82.795 269.843 82.2196 269.336C79.6481 267.368 77.4211 264.987 75.6295 262.29C75.5402 262.177 74.3307 260.824 74.2649 260.714C74.173 260.458 73.9852 260.249 73.7413 260.129C73.4975 260.01 73.2166 259.99 72.9584 260.074C72.7001 260.158 72.4846 260.339 72.3576 260.579C72.2306 260.819 72.2021 261.099 72.278 261.36L72.285 261.353Z" fill="white"/>
<path d="M96.6597 437.194C93.2119 433.956 88.9703 433.228 84.1017 432.732C78.4462 432.274 72.8495 432.154 71.5061 432.178C71.4239 431.003 71.2713 429.888 71.1233 428.939C71.9641 428.981 72.8072 429.014 73.648 429.031C74.0332 429.036 74.4095 428.914 74.718 428.684C75.0265 428.453 75.2499 428.127 75.3531 427.755C80.8113 408.699 84.2238 387.296 87.284 367.429C89.8464 351.062 92.047 336.547 93.0804 320.006C93.1 319.667 93.0115 319.331 92.8274 319.045C92.6433 318.76 92.3733 318.54 92.0564 318.419C79.7779 314.123 73.0938 298.984 72.6264 285.975H72.7391C72.7379 285.81 72.702 285.648 72.634 285.498C72.5659 285.348 72.4671 285.214 72.344 285.105C72.2208 284.996 72.0761 284.914 71.9193 284.864C71.7624 284.815 71.5968 284.799 71.4333 284.817C69.4787 285.049 67.497 284.856 65.6238 284.251C63.7507 283.647 62.0303 282.644 60.5804 281.313C60.401 281.091 60.1507 280.937 59.8715 280.878C59.5922 280.818 59.3011 280.857 59.0468 280.986C56.9025 282.064 60.2892 283.687 60.9257 304.754C61.2239 316.535 60.3925 328.116 60.3009 338.83C59.8312 367.927 59.6692 396.371 55.9278 425.48C55.8668 425.934 55.9873 426.395 56.2635 426.761C56.5396 427.127 56.9489 427.37 57.4028 427.436L58.3821 427.584C57.6889 429.067 57.2901 430.67 57.2078 432.305C55.3236 433.789 53.8485 435.729 52.9216 437.941C50.7186 442.855 51.644 448.548 57.2947 450.22C63.3541 451.937 70.2355 451.105 76.2714 450.924C82.0866 450.736 87.7913 451.19 93.5994 449.515C94.8876 449.23 96.0707 448.591 97.0155 447.671C97.9603 446.75 98.6294 445.583 98.9474 444.303C99.2654 443.023 99.2198 441.679 98.8156 440.423C98.4114 439.167 97.6648 438.049 96.6597 437.194ZM68.723 428.801C68.4513 430.133 68.2747 431.483 68.1946 432.84C65.6883 433.433 63.0757 433.41 60.5804 432.772C60.5804 431.814 60.8599 430.287 60.7965 427.939C63.4387 428.303 66.0315 428.599 68.723 428.801ZM95.5887 443.416C94.3533 447.989 84.0336 447.174 76.1587 447.437C70.3976 447.634 63.6712 448.437 58.2036 446.967C53.0931 445.661 54.8874 438.265 57.6588 434.869C59.8359 437.688 70.6254 437.218 71.492 434.451C71.9618 434.451 77.9343 435.156 78.8854 435.278C82.8725 435.569 86.8158 436.295 90.6449 437.443C93.3411 438.484 96.3591 440.649 95.5887 443.416Z" fill="white"/>
<path d="M170.116 429.518C166.668 426.274 162.413 425.549 157.561 425.055C150.719 424.504 148.617 424.616 145.061 424.501C144.786 424.501 145.172 424.713 144.535 420.999C144.849 420.961 145.139 420.81 145.351 420.575C145.564 420.34 145.684 420.036 145.691 419.719C146.379 392.145 145.759 389.136 142.283 351.521C140.59 334.58 139.77 329.93 138.02 317.663C137.991 317.434 137.915 317.213 137.798 317.014C137.681 316.815 137.525 316.642 137.339 316.505C137.153 316.369 136.941 316.271 136.716 316.218C136.491 316.166 136.258 316.16 136.031 316.2C128.576 317.741 120.921 318.069 113.362 317.17C113.077 317.119 112.784 317.139 112.509 317.227C112.233 317.316 111.983 317.471 111.782 317.678C111.58 317.886 111.432 318.139 111.351 318.417C111.27 318.695 111.258 318.989 111.317 319.272C115.283 336.903 130.406 402.178 130.406 420.239C130.425 420.494 130.526 420.737 130.696 420.93C130.866 421.122 131.094 421.254 131.345 421.305C130.916 422.361 130.684 423.486 130.66 424.626C128.774 426.114 127.299 428.058 126.373 430.274C124.17 435.185 125.096 440.878 130.747 442.55C136.827 444.272 143.753 443.436 149.723 443.255C155.482 443.069 161.245 443.523 167.054 441.846C168.344 441.563 169.53 440.925 170.477 440.004C171.424 439.082 172.094 437.915 172.413 436.633C172.731 435.351 172.685 434.005 172.279 432.748C171.873 431.49 171.124 430.372 170.116 429.518ZM142.187 421.063C141.914 422.413 141.735 423.78 141.651 425.154C139.146 425.75 136.535 425.731 134.039 425.098C134.039 424.393 134.274 422.514 134.274 421.27L142.187 421.063ZM169.036 435.737C167.8 440.31 157.478 439.495 149.606 439.758C143.847 439.955 137.123 440.758 131.653 439.288C126.54 437.982 128.337 430.598 131.106 427.19C133.274 430.009 144.07 429.539 144.939 426.775C145.409 426.775 151.381 427.479 152.333 427.599C156.321 427.89 160.265 428.617 164.094 429.767C166.8 430.798 169.816 432.97 169.036 435.744V435.737Z" fill="white"/>
<path d="M99.9864 232.946C100.726 232.862 101.474 232.893 102.203 233.04C102.807 233.186 103.371 233.462 103.858 233.847C104.344 234.233 104.742 234.72 105.022 235.274C105.958 237.284 106.375 239.496 106.236 241.709C106.236 244.879 105.933 247.698 103.22 249.675C102.453 250.173 101.582 250.487 100.673 250.591C99.7647 250.695 98.8444 250.588 97.9845 250.277C97.1246 249.966 96.3485 249.46 95.7171 248.798C95.0856 248.137 94.616 247.338 94.3451 246.465C92.8302 242.789 93.2248 235.948 96.5809 233.709C97.0665 233.357 97.6191 233.107 98.2047 232.976C98.7904 232.844 99.3967 232.834 99.9864 232.946ZM99.8572 235.011C96.9027 235.102 96.4799 241.303 97.2057 244.126C97.2929 244.872 97.6164 245.57 98.1289 246.12C98.6415 246.669 99.3162 247.04 100.055 247.179C100.326 247.199 100.598 247.158 100.852 247.06C101.105 246.962 101.333 246.808 101.52 246.61C102.532 245.192 103.001 243.458 102.84 241.723C102.844 240.105 102.715 238.489 102.455 236.892C101.891 235.645 101.893 235.518 100.2 235.135C100.08 235.111 99.9644 235.069 99.8572 235.011Z" fill="white"/>
<path d="M128.361 230.633C129.102 230.564 129.849 230.612 130.576 230.773C131.178 230.931 131.739 231.217 132.22 231.613C132.7 232.009 133.089 232.505 133.359 233.066C134.253 235.095 134.625 237.317 134.439 239.527C134.366 242.695 134.012 245.506 131.257 247.425C130.48 247.907 129.602 248.202 128.692 248.288C127.781 248.373 126.863 248.247 126.01 247.918C125.157 247.589 124.392 247.067 123.775 246.393C123.157 245.718 122.704 244.91 122.452 244.031C121.015 240.325 121.55 233.496 124.951 231.328C125.442 230.987 125.998 230.749 126.584 230.629C127.171 230.51 127.775 230.511 128.361 230.633ZM128.19 232.695C125.233 232.725 124.681 238.916 125.348 241.753C125.421 242.5 125.731 243.204 126.232 243.762C126.733 244.321 127.399 244.705 128.133 244.858C128.404 244.884 128.677 244.849 128.933 244.755C129.189 244.662 129.42 244.512 129.61 244.318C130.647 242.92 131.147 241.197 131.02 239.461C131.057 237.843 130.962 236.225 130.735 234.623C130.198 233.366 130.202 233.24 128.518 232.821C128.403 232.793 128.292 232.749 128.19 232.69V232.695Z" fill="white"/>
<path d="M112.968 262.639C113.709 262.57 114.458 262.617 115.185 262.778C115.787 262.936 116.347 263.223 116.828 263.618C117.308 264.014 117.697 264.509 117.968 265.07C118.862 267.1 119.234 269.321 119.048 271.531C118.975 274.702 118.618 277.513 115.866 279.432C115.089 279.913 114.21 280.208 113.3 280.293C112.39 280.379 111.472 280.252 110.619 279.923C109.766 279.594 109 279.073 108.383 278.399C107.765 277.724 107.312 276.916 107.059 276.038C105.624 272.332 106.159 265.5 109.56 263.332C110.051 262.991 110.606 262.753 111.192 262.634C111.778 262.515 112.382 262.517 112.968 262.639ZM112.799 264.701C109.842 264.729 109.29 270.923 109.957 273.757C110.029 274.503 110.338 275.206 110.837 275.764C111.336 276.322 112 276.707 112.733 276.862C113.004 276.888 113.277 276.853 113.532 276.76C113.788 276.667 114.019 276.518 114.21 276.324C115.248 274.927 115.748 273.202 115.619 271.465C115.659 269.848 115.564 268.231 115.337 266.629C114.8 265.371 114.804 265.244 113.12 264.826C113.008 264.8 112.899 264.758 112.799 264.701Z" fill="white"/>
<path d="M140.763 260.369C141.505 260.3 142.253 260.348 142.98 260.51C143.582 260.667 144.143 260.954 144.624 261.35C145.104 261.746 145.493 262.241 145.763 262.802C146.657 264.832 147.028 267.053 146.844 269.263C146.771 272.431 146.414 275.243 143.661 277.164C142.884 277.645 142.006 277.94 141.095 278.025C140.185 278.11 139.267 277.983 138.414 277.654C137.561 277.325 136.795 276.803 136.178 276.129C135.56 275.455 135.107 274.646 134.854 273.768C133.419 270.062 133.955 263.232 137.355 261.064C137.846 260.723 138.402 260.485 138.988 260.366C139.574 260.246 140.178 260.247 140.763 260.369ZM140.594 262.431C137.635 262.461 137.085 268.652 137.752 271.489C137.825 272.236 138.135 272.939 138.635 273.498C139.136 274.056 139.801 274.44 140.535 274.594C140.806 274.62 141.079 274.585 141.335 274.492C141.59 274.399 141.822 274.25 142.013 274.056C143.054 272.66 143.559 270.935 143.434 269.197C143.473 267.58 143.378 265.963 143.149 264.361C142.614 263.103 142.616 262.976 140.935 262.558C140.815 262.534 140.7 262.491 140.594 262.431Z" fill="white"/>
<path d="M143.556 229.928C144.298 229.86 145.046 229.907 145.773 230.069C146.375 230.227 146.936 230.514 147.416 230.91C147.897 231.305 148.285 231.801 148.556 232.361C149.449 234.392 149.819 236.613 149.634 238.822C149.561 241.991 149.207 244.802 146.454 246.723C145.677 247.205 144.798 247.499 143.888 247.585C142.977 247.67 142.06 247.543 141.206 247.214C140.353 246.885 139.588 246.363 138.97 245.688C138.353 245.014 137.9 244.206 137.647 243.327C136.209 239.621 136.747 232.791 140.146 230.623C140.637 230.282 141.193 230.045 141.779 229.925C142.365 229.806 142.97 229.807 143.556 229.928ZM143.384 231.99C140.427 232.021 139.878 238.212 140.545 241.049C140.618 241.795 140.927 242.499 141.428 243.057C141.928 243.616 142.594 244 143.328 244.154C143.599 244.18 143.872 244.145 144.127 244.052C144.383 243.959 144.614 243.81 144.805 243.616C145.847 242.219 146.351 240.495 146.226 238.757C146.266 237.14 146.171 235.522 145.942 233.921C145.404 232.662 145.409 232.535 143.725 232.117C143.605 232.089 143.49 232.042 143.384 231.979V231.99Z" fill="white"/>
<path d="M182.406 226.605C183.148 226.537 183.896 226.584 184.624 226.744C188.099 227.526 188.543 231.969 188.543 235.518C188.543 246.286 178.989 246.596 176.441 240.034C175.032 236.432 175.544 229.557 178.999 227.3C179.49 226.96 180.046 226.723 180.631 226.604C181.217 226.485 181.821 226.485 182.406 226.605ZM182.237 228.705C179.302 228.733 178.794 234.914 179.452 237.737C179.802 239.238 180.532 240.589 182.179 240.819C182.44 240.845 182.705 240.811 182.951 240.719C183.197 240.627 183.419 240.48 183.6 240.288C184.699 238.928 185.229 237.195 185.077 235.452C185.102 233.836 184.988 232.22 184.736 230.624C184.565 230.032 184.368 229.398 183.656 229.151C183.28 229.01 182.425 228.806 182.237 228.705Z" fill="white"/>
<path d="M172.622 256.745C173.364 256.676 174.112 256.722 174.839 256.881C178.315 257.663 178.759 262.107 178.759 265.655C178.759 276.426 169.207 276.734 166.657 270.172C165.248 266.569 165.76 259.695 169.214 257.438C169.706 257.097 170.261 256.86 170.847 256.741C171.433 256.622 172.037 256.623 172.622 256.745ZM172.453 258.842C169.517 258.87 169.01 265.052 169.668 267.875C170.018 269.375 170.748 270.726 172.394 270.958C172.656 270.984 172.92 270.95 173.166 270.858C173.413 270.766 173.635 270.619 173.815 270.428C174.916 269.067 175.446 267.333 175.293 265.59C175.318 263.974 175.204 262.359 174.952 260.763C174.915 260.445 174.796 260.142 174.607 259.884C174.418 259.625 174.166 259.42 173.874 259.288C173.498 259.147 172.643 258.945 172.455 258.842H172.453Z" fill="white"/>
<path d="M113.231 239.149C113.061 239.356 112.89 239.563 112.721 239.779C112.599 240.028 112.383 240.218 112.121 240.309C111.859 240.399 111.571 240.381 111.322 240.259C111.073 240.137 110.883 239.922 110.793 239.659C110.702 239.397 110.72 239.11 110.842 238.86C111.209 236.719 112.001 234.673 113.172 232.843C113.35 232.521 113.627 232.265 113.963 232.114C114.299 231.963 114.675 231.925 115.034 232.007C115.393 232.088 115.716 232.284 115.954 232.565C116.193 232.846 116.333 233.197 116.354 233.564C117.322 246.399 116.669 246.428 116.526 248.83C116.533 249.131 116.425 249.422 116.225 249.646C116.024 249.869 115.745 250.006 115.445 250.03C115.296 250.042 115.147 250.024 115.005 249.976C114.863 249.929 114.733 249.853 114.622 249.753C114.51 249.654 114.42 249.533 114.356 249.398C114.293 249.262 114.257 249.116 114.252 248.967C113.411 245.766 113.066 242.455 113.231 239.149Z" fill="white"/>
<path d="M97.8404 271.158C97.6713 271.367 97.4999 271.573 97.3308 271.789C97.209 272.039 96.9933 272.229 96.731 272.319C96.4687 272.409 96.1814 272.391 95.9322 272.27C95.683 272.148 95.4925 271.932 95.4024 271.67C95.3123 271.408 95.3301 271.12 95.4519 270.871C95.818 268.729 96.6103 266.682 97.7817 264.852C97.9595 264.529 98.2372 264.273 98.5732 264.122C98.9091 263.971 99.285 263.934 99.6441 264.015C100.003 264.096 100.326 264.292 100.564 264.573C100.802 264.854 100.943 265.205 100.964 265.573C101.932 278.41 101.279 278.438 101.133 280.839C101.141 281.138 101.033 281.43 100.833 281.653C100.632 281.876 100.354 282.014 100.055 282.039C99.9064 282.051 99.7567 282.033 99.6151 281.985C99.4735 281.938 99.343 281.862 99.2315 281.763C99.12 281.664 99.0297 281.543 98.9662 281.408C98.9027 281.273 98.8673 281.126 98.8621 280.977C98.021 277.776 97.6765 274.464 97.8404 271.158Z" fill="white"/>
<path d="M125.637 268.889C125.468 269.095 125.296 269.302 125.125 269.518C125.064 269.641 124.98 269.752 124.878 269.843C124.775 269.933 124.655 270.003 124.525 270.048C124.395 270.092 124.258 270.111 124.121 270.103C123.984 270.094 123.85 270.059 123.726 269.998C123.603 269.938 123.492 269.854 123.402 269.751C123.311 269.648 123.241 269.528 123.196 269.398C123.152 269.269 123.133 269.131 123.142 268.994C123.15 268.857 123.186 268.723 123.246 268.6C123.612 266.458 124.405 264.412 125.576 262.583C125.753 262.26 126.031 262.004 126.367 261.853C126.703 261.702 127.079 261.665 127.438 261.746C127.797 261.827 128.12 262.023 128.358 262.304C128.596 262.585 128.737 262.936 128.758 263.304C129.723 276.139 129.073 276.167 128.927 278.57C128.935 278.869 128.827 279.161 128.627 279.384C128.426 279.607 128.148 279.745 127.849 279.77C127.7 279.782 127.55 279.763 127.409 279.715C127.267 279.668 127.137 279.592 127.025 279.493C126.914 279.393 126.824 279.272 126.76 279.137C126.697 279.002 126.661 278.855 126.656 278.706C125.815 275.505 125.472 272.194 125.637 268.889Z" fill="white"/>
<path d="M157.061 235.224C156.889 235.412 156.776 235.603 156.605 235.798C156.543 235.921 156.458 236.031 156.354 236.121C156.25 236.212 156.129 236.281 155.998 236.324C155.867 236.368 155.729 236.385 155.591 236.375C155.454 236.366 155.319 236.329 155.196 236.267C155.072 236.206 154.962 236.12 154.872 236.016C154.782 235.912 154.713 235.791 154.669 235.66C154.626 235.529 154.608 235.391 154.618 235.253C154.628 235.116 154.664 234.981 154.726 234.858C155.095 232.724 155.866 230.679 156.997 228.832C157.186 228.508 157.473 228.253 157.817 228.103C158.161 227.953 158.543 227.916 158.909 227.998C159.275 228.079 159.605 228.275 159.852 228.557C160.1 228.838 160.251 229.191 160.285 229.564C160.755 235.783 160.741 238.67 160.741 242.089C160.628 242.998 160.506 243.877 160.4 244.826C160.41 244.977 160.389 245.128 160.34 245.272C160.291 245.415 160.214 245.547 160.114 245.661C160.013 245.774 159.892 245.867 159.755 245.933C159.619 245.999 159.471 246.038 159.32 246.047C159.012 246.062 158.711 245.957 158.479 245.756C158.246 245.554 158.1 245.271 158.071 244.964C157.278 241.781 156.938 238.502 157.061 235.224Z" fill="white"/>
<path d="M186.751 262.657C186.579 262.847 186.466 263.035 186.295 263.232C186.233 263.355 186.148 263.465 186.044 263.556C185.939 263.646 185.818 263.715 185.688 263.759C185.557 263.802 185.419 263.82 185.281 263.81C185.143 263.8 185.009 263.763 184.886 263.702C184.762 263.64 184.652 263.555 184.562 263.45C184.472 263.346 184.403 263.225 184.359 263.094C184.315 262.964 184.298 262.825 184.308 262.688C184.318 262.55 184.354 262.416 184.416 262.293C184.784 260.159 185.555 258.114 186.687 256.268C186.875 255.943 187.162 255.687 187.506 255.536C187.85 255.385 188.233 255.348 188.6 255.429C188.966 255.511 189.297 255.708 189.545 255.99C189.792 256.273 189.943 256.627 189.975 257.001C190.445 263.218 190.431 266.107 190.431 269.524C190.318 270.433 190.196 271.314 190.09 272.26C190.1 272.411 190.08 272.563 190.032 272.707C189.983 272.85 189.906 272.983 189.805 273.096C189.705 273.21 189.583 273.302 189.446 273.369C189.31 273.435 189.161 273.473 189.01 273.481C188.703 273.496 188.402 273.392 188.169 273.191C187.937 272.99 187.79 272.707 187.76 272.401C186.966 269.217 186.626 265.936 186.751 262.657Z" fill="white"/>
<path d="M167.303 234.459C167.132 234.647 167.019 234.835 166.848 235.032C166.786 235.155 166.701 235.265 166.596 235.356C166.492 235.446 166.371 235.515 166.24 235.559C166.11 235.602 165.971 235.62 165.834 235.61C165.696 235.6 165.562 235.563 165.439 235.502C165.315 235.44 165.205 235.355 165.115 235.25C165.024 235.146 164.955 235.025 164.912 234.894C164.868 234.763 164.851 234.625 164.861 234.488C164.87 234.35 164.907 234.216 164.969 234.092C165.337 231.958 166.108 229.914 167.24 228.068C167.428 227.743 167.715 227.487 168.059 227.336C168.403 227.185 168.786 227.148 169.153 227.229C169.519 227.311 169.85 227.507 170.097 227.79C170.345 228.073 170.496 228.427 170.528 228.801C170.998 235.02 170.984 237.907 170.984 241.324C170.871 242.235 170.749 243.113 170.643 244.06C170.653 244.211 170.633 244.363 170.584 244.507C170.535 244.65 170.458 244.783 170.357 244.896C170.257 245.01 170.135 245.103 169.999 245.169C169.862 245.236 169.714 245.275 169.563 245.284C169.255 245.298 168.954 245.194 168.721 244.992C168.489 244.791 168.342 244.507 168.313 244.201C167.517 241.018 167.177 237.738 167.303 234.459Z" fill="white"/>
<path d="M157.521 264.596C157.349 264.783 157.236 264.974 157.065 265.169C157.003 265.292 156.918 265.402 156.814 265.492C156.709 265.583 156.589 265.652 156.458 265.695C156.327 265.739 156.189 265.756 156.051 265.747C155.913 265.737 155.779 265.7 155.656 265.638C155.532 265.577 155.422 265.491 155.332 265.387C155.242 265.283 155.173 265.162 155.129 265.031C155.085 264.9 155.068 264.762 155.078 264.624C155.088 264.487 155.124 264.353 155.186 264.229C155.554 262.094 156.324 260.049 157.457 258.203C157.646 257.879 157.933 257.624 158.277 257.474C158.621 257.324 159.003 257.287 159.369 257.369C159.734 257.451 160.065 257.646 160.312 257.928C160.56 258.209 160.711 258.562 160.745 258.935C161.215 265.155 161.201 268.041 161.201 271.461C161.088 272.369 160.966 273.248 160.86 274.197C160.87 274.348 160.849 274.499 160.8 274.643C160.751 274.786 160.674 274.918 160.574 275.032C160.473 275.145 160.352 275.238 160.215 275.304C160.079 275.37 159.931 275.409 159.78 275.418C159.472 275.433 159.171 275.328 158.938 275.127C158.706 274.925 158.56 274.642 158.53 274.335C157.736 271.153 157.396 267.874 157.521 264.596Z" fill="white"/>
<path d="M172.167 43.3666C172.167 45.1599 172.879 46.8798 174.147 48.1478C175.415 49.4159 177.135 50.1282 178.928 50.1282C180.721 50.1282 182.441 49.4159 183.709 48.1478C184.977 46.8798 185.69 45.1599 185.69 43.3666C185.69 41.5733 184.977 39.8535 183.709 38.5854C182.441 37.3174 180.721 36.605 178.928 36.605C177.135 36.605 175.415 37.3174 174.147 38.5854C172.879 39.8535 172.167 41.5733 172.167 43.3666Z" fill="#38A1FF"/>
<path d="M178.929 35.4635C177.84 35.3703 176.744 35.5067 175.712 35.864C174.679 36.2213 173.733 36.7915 172.935 37.5376C172.137 38.2837 171.504 39.1892 171.078 40.1953C170.652 41.2015 170.442 42.2859 170.462 43.3783C170.443 44.7772 170.77 46.159 171.416 47.4C172.062 48.641 173.006 49.7024 174.162 50.489C175.319 51.2756 176.653 51.7628 178.045 51.907C179.436 52.0512 180.842 51.8479 182.136 51.3152C183.429 50.7825 184.57 49.9372 185.457 48.855C186.343 47.7728 186.948 46.4875 187.215 45.1143C187.483 43.7412 187.405 42.3231 186.99 40.9872C186.575 39.6513 185.835 38.4393 184.836 37.4598C184.034 36.7537 183.096 36.2197 182.079 35.8909C181.063 35.562 179.99 35.4453 178.927 35.5481L178.929 35.4635ZM178.929 37.6736C180.311 37.8704 181.579 38.5522 182.505 39.5972C183.431 40.6421 183.956 41.9823 183.985 43.3783C183.966 44.3637 183.66 45.322 183.103 46.1353C182.546 46.9486 181.764 47.5814 180.852 47.9557C179.94 48.3301 178.939 48.4297 177.971 48.2424C177.004 48.055 176.112 47.5888 175.406 46.9012C174.729 46.1471 174.273 45.2203 174.09 44.2234C173.907 43.2265 174.003 42.1983 174.367 41.2525C174.732 40.3067 175.351 39.4802 176.156 38.8643C176.961 38.2484 177.921 37.8672 178.929 37.7628V37.6736Z" fill="white"/>
<path d="M203.208 35.0465C202.121 34.955 201.026 35.0927 199.995 35.4508C198.963 35.8089 198.019 36.3793 197.222 37.1253C196.425 37.8712 195.794 38.7761 195.368 39.7814C194.943 40.7866 194.734 41.87 194.753 42.9613C194.736 44.3564 195.065 45.7339 195.711 46.9708C196.356 48.2076 197.298 49.2652 198.453 50.049C199.607 50.8328 200.937 51.3183 202.325 51.4622C203.713 51.6061 205.115 51.4038 206.405 50.8735C207.696 50.3432 208.835 49.5013 209.72 48.4232C210.606 47.3451 211.21 46.0644 211.48 44.6955C211.75 43.3266 211.676 41.9122 211.265 40.5788C210.854 39.2454 210.12 38.0346 209.127 37.0546C208.326 36.3484 207.388 35.8143 206.372 35.4855C205.356 35.1566 204.283 35.04 203.22 35.1428L203.208 35.0465ZM203.208 37.2566C204.59 37.4539 205.857 38.1359 206.783 39.1808C207.709 40.2257 208.233 41.5656 208.262 42.9613C208.244 43.9467 207.938 44.9052 207.381 45.7187C206.825 46.5322 206.042 47.1651 205.131 47.5396C204.219 47.914 203.218 48.0136 202.25 47.8261C201.283 47.6386 200.391 47.1721 199.685 46.4842C199.008 45.73 198.553 44.8033 198.369 43.8064C198.186 42.8094 198.282 41.7812 198.646 40.8355C199.011 39.8897 199.63 39.0632 200.435 38.4473C201.24 37.8314 202.2 37.4502 203.208 37.3458V37.2566Z" fill="white"/>
<path d="M229.311 34.1925C228.223 34.101 227.128 34.2388 226.097 34.597C225.066 34.9552 224.121 35.5258 223.324 36.2721C222.527 37.0183 221.896 37.9234 221.471 38.929C221.046 39.9345 220.836 41.0181 220.856 42.1097C220.835 43.5089 221.162 44.8914 221.806 46.1334C222.451 47.3754 223.394 48.4379 224.551 49.2257C225.707 50.0134 227.041 50.5018 228.433 50.647C229.825 50.7922 231.231 50.5897 232.525 50.0576C233.819 49.5255 234.961 48.6805 235.849 47.5984C236.736 46.5162 237.341 45.2308 237.609 43.8573C237.877 42.4839 237.8 41.0654 237.385 39.729C236.969 38.3927 236.229 37.1803 235.23 36.2006C234.428 35.4941 233.49 34.9601 232.474 34.6316C231.457 34.3031 230.384 34.1873 229.321 34.2912L229.311 34.1925ZM229.311 36.4026C230.694 36.5999 231.961 37.2822 232.888 38.3275C233.814 39.3729 234.338 40.7133 234.368 42.1097C234.349 43.0951 234.043 44.0535 233.487 44.867C232.93 45.6805 232.148 46.3135 231.236 46.6879C230.325 47.0624 229.323 47.162 228.356 46.9745C227.388 46.7869 226.496 46.3205 225.791 45.6326C225.113 44.8786 224.658 43.952 224.474 42.9552C224.291 41.9583 224.387 40.9302 224.751 39.9845C225.116 39.0388 225.735 38.2124 226.54 37.5968C227.346 36.9812 228.305 36.6004 229.314 36.4965L229.311 36.4026Z" fill="white"/>
<path d="M188.102 86.5768C191.285 86.497 201.797 86.5604 203.899 86.5017C216.227 86.1588 254.92 84.456 261.909 83.9628C268.72 83.4931 272.436 82.9435 275.942 82.6335C276.239 82.6067 276.515 82.4662 276.71 82.2411C276.906 82.0161 277.007 81.7241 276.993 81.4262C276.978 81.1283 276.849 80.8476 276.632 80.6428C276.415 80.4379 276.128 80.3249 275.83 80.3272C273.446 80.4258 264.068 80.5198 261.738 80.5996C252.362 80.9237 200.829 83.2629 198.499 83.4508C194.977 83.7303 191.519 84.1836 187.989 84.4631C187.847 84.465 187.706 84.4957 187.576 84.5533C187.445 84.611 187.328 84.6944 187.23 84.7986C187.133 84.9027 187.057 85.0255 187.008 85.1596C186.959 85.2936 186.938 85.4362 186.946 85.5786C186.953 85.7211 186.99 85.8605 187.053 85.9886C187.115 86.1167 187.203 86.2308 187.311 86.324C187.419 86.4172 187.545 86.4877 187.681 86.5311C187.817 86.5746 187.96 86.5901 188.102 86.5768Z" fill="white"/>
<path d="M187.252 102.843C190.871 102.927 195.148 103.289 202.706 103.24C220.988 103.139 281.015 99.4817 289.86 99.2328C290.166 99.2328 290.459 99.1113 290.676 98.895C290.892 98.6788 291.013 98.3855 291.013 98.0796C291.013 97.7738 290.892 97.4805 290.676 97.2642C290.459 97.0479 290.166 96.9265 289.86 96.9265C281.992 96.8654 280.748 96.5601 269.294 96.8936C259.122 97.1942 193.342 100.588 187.252 100.729C186.972 100.729 186.703 100.84 186.505 101.038C186.307 101.237 186.195 101.505 186.195 101.786C186.195 102.066 186.307 102.335 186.505 102.533C186.703 102.731 186.972 102.843 187.252 102.843Z" fill="white"/>
<path d="M212.875 119.309C215.11 119.645 217.548 119.992 219.805 120.11C226.222 120.453 240.753 119.889 248.223 119.333C251.133 119.114 252.935 118.774 255.95 118.348C256.101 118.341 256.25 118.304 256.386 118.238C256.523 118.173 256.645 118.081 256.745 117.968C256.846 117.855 256.923 117.723 256.972 117.58C257.021 117.437 257.041 117.285 257.031 117.134C257.013 116.833 256.878 116.551 256.655 116.348C256.432 116.146 256.139 116.038 255.838 116.049C245.875 115.758 251.932 115.88 233.507 116.491C221.506 116.89 226.839 116.296 212.997 117.195C212.855 117.182 212.711 117.198 212.576 117.241C212.44 117.284 212.314 117.355 212.206 117.448C212.098 117.541 212.01 117.655 211.947 117.784C211.884 117.912 211.848 118.051 211.84 118.194C211.833 118.336 211.854 118.479 211.903 118.613C211.952 118.747 212.027 118.869 212.125 118.974C212.222 119.078 212.34 119.161 212.47 119.219C212.601 119.276 212.741 119.307 212.884 119.309H212.875Z" fill="#38A1FF"/>
<path d="M269.521 119.206C272.053 119.775 271.722 119.829 278.446 119.648C281.453 119.859 284.473 119.541 287.37 118.708C287.668 118.682 287.943 118.541 288.139 118.316C288.335 118.09 288.436 117.798 288.421 117.5C288.406 117.202 288.277 116.921 288.059 116.716C287.842 116.512 287.554 116.399 287.255 116.402C286.02 116.14 284.761 116.005 283.498 116C281.095 116 273.72 116.139 272.076 116.39C271.168 116.552 270.275 116.787 269.406 117.095C269.126 117.11 268.864 117.236 268.676 117.445C268.489 117.654 268.393 117.928 268.408 118.208C268.423 118.488 268.549 118.751 268.758 118.938C268.967 119.125 269.241 119.222 269.521 119.206Z" fill="white"/>
<path d="M214.193 136.398C216.539 136.563 218.892 136.577 221.239 136.438C221.829 136.405 242.978 134.848 243.567 134.793C245.329 134.629 248.445 134.115 249.136 134.011C249.442 133.995 249.73 133.862 249.941 133.64C250.152 133.418 250.271 133.125 250.273 132.818C250.255 132.515 250.121 132.23 249.899 132.022C249.677 131.815 249.383 131.7 249.08 131.703C243.21 131.239 237.308 131.373 231.465 132.102C218.487 133.018 217.58 133.488 214.024 134.296C213.759 134.335 213.52 134.474 213.353 134.684C213.187 134.893 213.106 135.159 213.127 135.426C213.149 135.692 213.271 135.941 213.469 136.122C213.667 136.302 213.926 136.401 214.193 136.398Z" fill="#38A1FF"/>
<path d="M265.998 133.006C266.723 133.213 267.464 133.356 268.213 133.431C269.535 133.504 275.355 132.962 277.417 132.727C278.448 132.596 279.459 132.341 280.428 131.966C280.579 131.959 280.727 131.922 280.864 131.858C281.001 131.793 281.123 131.702 281.224 131.589C281.324 131.476 281.401 131.344 281.45 131.201C281.499 131.058 281.519 130.907 281.509 130.756C281.492 130.455 281.357 130.172 281.134 129.968C280.911 129.764 280.617 129.656 280.315 129.666C277.15 129.1 278.385 129.143 272.986 129.575C267.1 130.045 267.624 130.218 265.827 130.909C265.549 130.931 265.291 131.063 265.11 131.275C264.929 131.487 264.84 131.763 264.862 132.041C264.89 132.317 265.024 132.573 265.236 132.752C265.448 132.932 265.721 133.023 265.998 133.006Z" fill="white"/>
<path d="M353.317 78.1902C356.756 78.2404 360.194 78.0292 363.602 77.5584C365.037 77.3752 368.041 76.9525 367.918 75.5879C367.918 73.8359 363.651 74.0825 361.897 74.207C359.34 74.3901 356.783 74.5835 354.226 74.7871C352.995 74.8787 349.973 75.1981 349.851 76.4311C349.851 77.6735 352.796 78.1315 353.317 78.1902Z" fill="#38A1FF"/>
<path d="M351.932 92.1031C353.341 92.1031 356.504 91.6334 358.691 91.3986C360.509 91.206 362.329 91.1637 364.147 90.8701C367.09 90.3746 367.954 89.9964 367.954 89.0241C367.747 86.7272 360.013 87.6807 358.01 87.8874C355.762 88.1223 348.197 88.8996 348.637 91.1144C348.806 91.9693 349.456 92.0844 351.932 92.1031Z" fill="#38A1FF"/>
<path d="M354.761 105.507C358.186 105.807 361.632 105.758 365.046 105.359C366.89 104.957 367.944 104.748 367.944 103.701C367.944 101.561 361.603 102.085 359.365 102.127C357.777 102.158 351.694 101.777 351.523 103.513C351.408 104.694 354.005 105.366 354.761 105.507Z" fill="#38A1FF"/>
<path d="M379.591 106.434C384.366 107.198 386.778 107.472 407.26 106.286C409.715 106.153 412.161 105.895 414.59 105.514C414.741 105.51 414.89 105.476 415.028 105.415C415.167 105.354 415.291 105.266 415.396 105.157C415.5 105.047 415.582 104.918 415.636 104.777C415.69 104.636 415.716 104.486 415.713 104.335C415.709 104.183 415.676 104.035 415.614 103.896C415.553 103.758 415.465 103.633 415.356 103.529C415.246 103.425 415.117 103.343 414.976 103.289C414.835 103.234 414.685 103.208 414.534 103.212C411.046 102.788 407.527 102.694 404.021 102.932C380.662 103.754 384.101 103.823 379.596 104.325C379.316 104.325 379.047 104.437 378.849 104.635C378.65 104.833 378.539 105.102 378.539 105.382C378.539 105.662 378.65 105.931 378.849 106.129C379.047 106.328 379.316 106.439 379.596 106.439L379.591 106.434Z" fill="white"/>
<path d="M377.158 90.598C379.105 90.8517 381.773 91.2086 383.917 91.3261C389.014 91.6408 414.919 91.6901 416.361 91.6384C418.24 91.5703 420.119 91.4036 422.042 91.3096C422.337 91.2995 422.616 91.1772 422.823 90.9678C423.031 90.7583 423.15 90.4776 423.157 90.183C423.165 89.8884 423.059 89.6022 422.862 89.3829C422.665 89.1636 422.392 89.0278 422.099 89.0033C420.905 88.8671 419.712 88.7238 418.519 88.6111C412.591 88.0451 387.454 87.7773 382.099 88.1038C380.455 88.2024 378.861 88.3668 377.214 88.4866C376.934 88.4791 376.662 88.5833 376.459 88.7762C376.255 88.9691 376.137 89.235 376.129 89.5153C376.122 89.7956 376.226 90.0674 376.419 90.2709C376.612 90.4744 376.878 90.5929 377.158 90.6004V90.598Z" fill="white"/>
<path d="M378.429 75.2112C386.078 77.184 389.916 77.379 412.918 77.1324C418.82 77.0689 418.104 76.9092 422.007 76.7636C422.305 76.7667 422.592 76.6543 422.809 76.4501C423.026 76.2459 423.156 75.9656 423.171 75.6681C423.185 75.3706 423.085 75.0788 422.889 74.854C422.694 74.6292 422.419 74.4887 422.122 74.462C409.752 72.8673 410.713 74.2271 385.587 73.2572C383.673 73.182 380.129 73.1773 378.713 73.1209C378.576 73.1023 378.436 73.1108 378.302 73.1461C378.168 73.1814 378.043 73.2427 377.932 73.3266C377.822 73.4104 377.729 73.5152 377.66 73.6348C377.59 73.7545 377.544 73.8867 377.526 74.024C377.507 74.1612 377.516 74.3008 377.551 74.4347C377.586 74.5687 377.648 74.6944 377.731 74.8046C377.815 74.9149 377.92 75.0075 378.04 75.0773C378.159 75.147 378.292 75.1925 378.429 75.2112Z" fill="white"/>
<path d="M327.294 183.646C329.749 183.54 332.196 183.297 334.624 182.918C335.967 182.575 337.099 182.214 337.01 181.225C337.01 180.051 334.462 179.687 334.227 179.656C331.766 179.625 329.308 179.861 326.897 180.361C326.439 180.506 324.314 181.401 324.511 182.371C324.605 183.306 327.047 183.635 327.294 183.646Z" fill="#38A1FF"/>
<path d="M346.443 182.755C348.715 182.813 350.988 182.75 353.254 182.567C375.413 180.779 373.4 180.869 378.877 179.528C379.174 179.476 379.44 179.311 379.617 179.066C379.794 178.821 379.868 178.517 379.823 178.219C379.779 177.92 379.619 177.651 379.379 177.468C379.138 177.286 378.836 177.205 378.536 177.242C370.937 177.335 363.349 177.859 355.809 178.811C352.505 179.013 349.239 179.636 346.093 180.664C345.816 180.711 345.568 180.865 345.405 181.094C345.242 181.323 345.176 181.607 345.223 181.884C345.269 182.162 345.424 182.409 345.652 182.572C345.881 182.735 346.165 182.801 346.443 182.755Z" fill="white"/>
<path d="M357.692 198.052C358.4 198.036 359.104 197.949 359.794 197.792C360.029 197.733 361.804 196.808 361.725 195.913C361.602 194.53 359.531 194.332 357.861 194.454C355.463 194.659 354.404 196.077 354.453 196.568C354.503 197.059 355.628 198.2 357.692 198.052Z" fill="#38A1FF"/>
<path d="M368.998 196.931C370.798 197.052 372.605 197.022 374.4 196.844C375.525 196.733 389.788 195.049 391.387 194.782C392.944 194.521 394.652 194.044 395.591 193.828C395.896 193.797 396.175 193.646 396.369 193.409C396.562 193.171 396.653 192.867 396.622 192.562C396.591 192.258 396.44 191.978 396.203 191.785C395.965 191.591 395.661 191.5 395.356 191.531C390.87 191.262 386.368 191.537 381.948 192.351C371.992 193.499 371.527 193.929 368.711 194.845C368.436 194.889 368.188 195.038 368.018 195.26C367.849 195.482 367.772 195.761 367.802 196.038C367.847 196.313 367.996 196.56 368.219 196.727C368.442 196.893 368.722 196.966 368.998 196.931Z" fill="white"/>
<path d="M357.408 210.669C362.884 210.468 368.346 209.978 373.77 209.204C379.735 208.889 385.675 208.201 391.554 207.146C391.851 207.12 392.126 206.979 392.321 206.754C392.517 206.529 392.617 206.238 392.603 205.94C392.588 205.643 392.458 205.362 392.241 205.158C392.024 204.954 391.737 204.842 391.439 204.845C389.255 204.769 387.388 204.631 385.189 204.732C377.56 205.124 369.956 205.913 362.408 207.095C360.581 207.491 358.777 207.99 357.006 208.588C356.869 208.613 356.739 208.664 356.622 208.739C356.505 208.814 356.405 208.912 356.325 209.026C356.246 209.14 356.19 209.268 356.161 209.404C356.131 209.54 356.129 209.68 356.154 209.817C356.212 210.093 356.375 210.336 356.609 210.495C356.843 210.654 357.129 210.716 357.408 210.669Z" fill="white"/>
<path d="M376.497 221.024C386.049 221.778 388.475 220.789 411.04 217.971C417.118 217.224 416.677 217.102 420.075 216.646C420.231 216.645 420.384 216.612 420.527 216.549C420.669 216.487 420.798 216.396 420.905 216.283C421.011 216.17 421.094 216.036 421.148 215.89C421.202 215.744 421.225 215.589 421.218 215.433C421.21 215.278 421.171 215.126 421.103 214.986C421.035 214.846 420.939 214.721 420.822 214.619C420.704 214.517 420.567 214.439 420.419 214.392C420.271 214.344 420.115 214.326 419.96 214.34C417.005 214.18 414.043 214.233 411.096 214.5C409.821 214.61 389.982 217.013 376.44 218.908C376.301 218.912 376.165 218.943 376.038 218.999C375.911 219.056 375.796 219.137 375.7 219.238C375.605 219.339 375.53 219.457 375.48 219.587C375.431 219.717 375.407 219.855 375.411 219.994C375.414 220.133 375.445 220.27 375.502 220.397C375.558 220.524 375.64 220.639 375.74 220.734C375.841 220.83 375.96 220.905 376.09 220.954C376.219 221.004 376.358 221.028 376.497 221.024Z" fill="white"/>
<path d="M380.646 233.075C389.101 233.779 391.064 233.202 412.69 230.637C417.998 230.008 417.745 229.874 421.098 229.392C421.403 229.377 421.69 229.242 421.895 229.016C422.1 228.79 422.207 228.491 422.192 228.186C422.177 227.881 422.041 227.595 421.815 227.39C421.589 227.185 421.29 227.078 420.986 227.093C414.914 226.858 414.212 226.72 386.952 229.989C385.212 230.191 381.379 230.839 380.59 230.961C380.451 230.965 380.314 230.996 380.187 231.052C380.061 231.109 379.946 231.19 379.851 231.291C379.755 231.391 379.68 231.51 379.631 231.64C379.581 231.769 379.557 231.907 379.561 232.046C379.565 232.185 379.596 232.322 379.652 232.449C379.709 232.575 379.79 232.69 379.89 232.785C379.991 232.881 380.11 232.956 380.239 233.005C380.369 233.055 380.507 233.079 380.646 233.075Z" fill="white"/>
<path d="M380.533 246.286C383.058 246.263 385.579 246.111 388.089 245.831C415.788 242.705 410.72 243.405 418.031 242.073C418.184 242.065 418.334 242.027 418.472 241.96C418.611 241.894 418.734 241.8 418.836 241.685C418.937 241.57 419.014 241.436 419.063 241.29C419.112 241.145 419.131 240.991 419.12 240.838C419.109 240.685 419.067 240.536 418.997 240.399C418.927 240.263 418.83 240.141 418.713 240.043C418.595 239.944 418.459 239.87 418.313 239.824C418.166 239.779 418.012 239.763 417.859 239.778C415.929 239.755 414.052 239.663 412.122 239.739C402.317 240.323 392.562 241.552 382.919 243.419C382.006 243.654 381.099 243.943 380.19 244.21C380.052 244.231 379.919 244.279 379.799 244.352C379.68 244.425 379.576 244.52 379.493 244.633C379.411 244.747 379.352 244.875 379.32 245.011C379.287 245.147 379.282 245.289 379.305 245.427C379.328 245.565 379.378 245.697 379.452 245.816C379.526 245.934 379.623 246.037 379.737 246.118C379.852 246.199 379.981 246.256 380.117 246.287C380.254 246.317 380.395 246.32 380.533 246.296V246.286Z" fill="white"/>
<path d="M383.657 257.234C398.195 256.207 388.119 256.393 412.075 254.462C415.682 254.185 416.666 253.924 419.177 253.593C419.332 253.595 419.487 253.566 419.63 253.507C419.774 253.447 419.904 253.36 420.013 253.249C420.122 253.139 420.208 253.007 420.265 252.863C420.322 252.718 420.35 252.564 420.346 252.408C420.342 252.253 420.307 252.1 420.242 251.959C420.178 251.817 420.086 251.691 419.971 251.586C419.856 251.481 419.722 251.4 419.575 251.348C419.429 251.297 419.273 251.275 419.118 251.285C413.097 250.757 407.035 250.927 401.053 251.792C396.82 252.173 392.61 252.771 388.439 253.582C386.669 254.013 384.924 254.542 383.213 255.167C382.954 255.24 382.733 255.41 382.595 255.64C382.456 255.871 382.411 256.145 382.467 256.408C382.523 256.671 382.678 256.903 382.899 257.056C383.12 257.209 383.391 257.273 383.657 257.234Z" fill="white"/>
<path d="M149.632 197.809C124.932 198.828 103.13 202.94 77.7648 201.019C77.6272 201.009 77.493 200.972 77.3697 200.911C77.2465 200.849 77.1367 200.763 77.0467 200.658C76.9568 200.554 76.8884 200.432 76.8456 200.301C76.8028 200.17 76.7863 200.032 76.7972 199.894C76.8235 199.616 76.9564 199.358 77.1683 199.175C77.3801 198.992 77.6544 198.898 77.9339 198.913C101.065 200.416 126.348 195.566 151.227 194.384C151.461 194.365 151.698 194.396 151.919 194.477C152.14 194.557 152.342 194.684 152.509 194.85C152.676 195.016 152.806 195.216 152.889 195.436C152.971 195.656 153.005 195.892 152.988 196.127C152.49 215.12 175.988 212.844 178.612 195.188C178.671 194.798 178.861 194.44 179.15 194.172C179.439 193.903 179.811 193.741 180.204 193.71C190.719 192.959 201.052 191.738 211.964 191.428C212.424 191.414 212.871 191.58 213.211 191.891C213.55 192.202 213.755 192.633 213.782 193.093C214.404 203.058 214.407 213.279 214.407 223.841C250.862 219.576 253.393 259.826 216.452 263.128C216.281 269.101 215.656 304.337 215.656 304.337C215.625 304.744 215.456 305.129 215.177 305.427C214.899 305.726 214.527 305.921 214.122 305.981C206.682 306.92 182.043 310.913 159.125 312.087C137.361 313.184 79.5662 330.232 76.0598 291.586C76.03 291.283 76.1205 290.981 76.3116 290.744C76.5027 290.507 76.7791 290.355 77.0814 290.32C77.3891 290.298 77.694 290.392 77.9361 290.583C78.1782 290.774 78.3399 291.049 78.3896 291.354C79.9796 306.042 90.095 311.66 102.876 313.217C121.108 315.438 145.494 309.374 158.954 308.644C182.149 307.385 205.898 303.477 212.192 302.671C212.373 300.438 212.927 261.672 212.929 261.435C212.935 260.993 213.108 260.569 213.413 260.249C213.717 259.929 214.132 259.736 214.573 259.708C249.084 257.726 246.813 222.147 212.929 227.636C212.679 227.675 212.424 227.659 212.18 227.589C211.937 227.519 211.712 227.397 211.52 227.232C210.003 225.952 211.727 224.515 210.383 195.028C201.041 195.352 191.423 196.409 181.806 197.113C177.555 217.246 150.426 218.732 149.632 197.809Z" fill="#38A1FF"/>
<path d="M442.971 27.3409C455.418 39.5536 453.034 59.3077 452.912 76.6804C452.863 83.752 453.584 194.404 454.277 218.001C454.702 232.527 455.033 262.363 444.164 272.018C433.938 281.098 416.464 283.24 402.859 284.487C319.685 292.099 312.837 285.882 312.52 289.4C312.513 289.71 312.628 290.01 312.841 290.234C313.054 290.459 313.347 290.591 313.657 290.601C343.529 291.834 373.452 290.947 403.199 287.944C417.718 286.65 435.591 284.33 446.494 274.661C451.545 270.177 454.552 261.992 456.151 252.819C459.545 233.353 457.027 227.409 456.151 76.6898C456.05 59.3101 457.779 37.7875 444.448 25.8026C444.24 25.6275 443.974 25.538 443.703 25.5523C443.432 25.5665 443.176 25.6834 442.988 25.8792C442.8 26.0751 442.694 26.3351 442.69 26.6066C442.687 26.8781 442.787 27.1406 442.971 27.3409Z" fill="white"/>
<path d="M446.705 140.458C447.118 140.374 447.487 140.142 447.742 139.806C447.997 139.47 448.121 139.052 448.09 138.631C447.673 130.176 447.502 121.71 447.578 113.245C447.762 58.4941 450.843 38.7212 440.533 27.7556C432.442 18.9953 416.859 19.3946 401.727 18.8309C369.839 17.7311 337.913 19.0241 306.218 22.699C305.939 22.7302 305.685 22.8708 305.509 23.0899C305.334 23.309 305.254 23.5887 305.285 23.8675C305.316 24.1462 305.456 24.4012 305.676 24.5763C305.895 24.7513 306.174 24.8322 306.453 24.801C338.079 22.0287 369.844 21.1941 401.572 22.3021C430.542 23.4154 443.612 23.1265 444.438 52.4159C439.389 52.4958 386.402 53.2262 368.902 53.7946C357.596 54.2056 312.259 56.6129 308.224 56.6364C307.944 56.6364 307.675 56.7477 307.477 56.9459C307.278 57.1441 307.167 57.4129 307.167 57.6932C307.167 57.9735 307.278 58.2424 307.477 58.4406C307.675 58.6388 307.944 58.7501 308.224 58.7501C340.069 59.5651 339.338 58.3133 369.018 57.3527C408.279 55.9435 420.071 56.4626 444.483 54.781C445.035 92.4174 443.172 108.285 444.525 137.104C430.297 138.314 416.032 138.842 401.743 140.251C403.199 109.224 364.717 113.517 362.54 144.134C344.707 146.031 325.688 146.379 307.543 147.241C307.073 147.262 307.029 120.702 306.406 109.003C337.908 107.411 340.482 80.6344 326.177 71.7825C320.951 68.4945 313.792 67.7617 307.087 68.4193C306.122 61.1386 302.543 30.9333 301.803 23.1664C301.786 22.9893 301.725 22.8193 301.624 22.6722C301.524 22.525 301.389 22.4054 301.231 22.3244C301.072 22.2435 300.896 22.2037 300.718 22.2088C300.54 22.214 300.366 22.2638 300.213 22.3538C299.508 22.281 183.018 25.2802 178.684 25.0477C159.982 24.0331 155.278 38.2632 155.389 56.9018C155.553 90.4351 154.543 123.889 156.241 157.166C156.271 157.637 156.484 158.077 156.836 158.392C157.188 158.706 157.649 158.87 158.12 158.848C173.856 158.08 189.246 158.493 204.937 158.239C214.672 158.084 224.391 157.239 234.027 157.131C234.161 159.112 234.476 161.078 234.966 163.002C199.798 164.461 201.229 164.435 167.258 162.836C166.98 162.804 166.701 162.885 166.483 163.06C166.264 163.234 166.123 163.489 166.092 163.767C166.061 164.045 166.142 164.324 166.316 164.543C166.491 164.761 166.745 164.902 167.024 164.933C187.806 168.794 216.109 168.268 235.882 165.344C241.033 175.539 256.174 173.848 261.51 162.425C262.458 160.233 263.09 157.919 263.389 155.55C273.047 154.334 283.103 153.448 292.876 152.027C294.076 151.856 305.868 150.08 306.852 149.322C307.064 149.483 307.326 149.566 307.592 149.557C326.597 149.021 344.935 149.106 364.294 147.243C364.686 147.197 365.049 147.015 365.319 146.728C365.589 146.441 365.75 146.068 365.772 145.674C367.223 117.855 400.952 112.838 398.1 142.05C398.082 142.308 398.117 142.566 398.205 142.809C398.293 143.052 398.431 143.274 398.61 143.46C399.603 144.399 398.765 143.864 413.951 142.774C424.102 142.046 434.252 141.531 444.405 140.681C445.671 155.167 445.927 256.392 438.097 267.975C428.79 281.128 329.157 284.498 306.74 281.712C306.852 271.515 307.193 238.089 307.193 231.563C311.549 231.921 315.934 231.512 320.148 230.353C331.318 226.774 336.487 212.999 327.25 202.2C324.903 199.416 321.943 197.215 318.601 195.769C315.259 194.324 311.627 193.674 307.991 193.87C307.167 183.301 306.571 167.051 306.686 152.906C306.678 152.635 306.566 152.377 306.373 152.187C306.18 151.997 305.921 151.888 305.65 151.884C305.379 151.88 305.117 151.98 304.919 152.164C304.72 152.349 304.6 152.602 304.584 152.873C304.349 167.981 304.029 176.582 305.093 195.671C305.107 195.882 305.165 196.087 305.264 196.274C305.363 196.46 305.5 196.623 305.666 196.753C305.832 196.883 306.024 196.976 306.229 197.026C306.434 197.077 306.647 197.083 306.855 197.045C310.204 196.65 313.6 197.112 316.722 198.388C319.844 199.664 322.591 201.713 324.704 204.342C332.149 213.234 328.196 224.181 319.067 227.051C314.655 228.185 310.071 228.493 305.547 227.96C305.309 227.942 305.07 227.974 304.846 228.055C304.622 228.136 304.417 228.263 304.246 228.428C304.074 228.593 303.939 228.793 303.85 229.013C303.761 229.234 303.72 229.472 303.729 229.71C303.729 236.845 303.273 272.504 303.16 283.225C303.16 283.646 303.308 284.054 303.578 284.377C303.848 284.7 304.223 284.917 304.638 284.991C321.583 287.91 430.154 285.966 440.939 269.986C450.192 256.921 448.457 156.842 446.705 140.458ZM164.346 33.4697C167.244 30.0619 171.733 28.129 178.494 28.4813C192.821 29.1859 284.322 25.3999 299.797 24.6695C300.422 32.0277 302.536 53.3882 302.904 56.688C274.637 56.1291 263.335 57.0075 223.153 58.4918C184.612 60.0536 182.066 58.8558 158.907 61.4416C158.89 52.4371 158.392 40.3817 164.346 33.4697ZM304.513 105.621C304.284 105.627 304.058 105.679 303.849 105.775C303.64 105.871 303.453 106.008 303.299 106.179C303.146 106.35 303.028 106.55 302.954 106.767C302.88 106.985 302.851 107.215 302.869 107.444C303.701 127.085 303.247 133.774 303.95 146.539C290.203 149.39 275.585 150.397 261.564 152.203C261.161 152.246 260.787 152.43 260.506 152.722C260.226 153.014 260.057 153.396 260.031 153.8C259.856 156.262 259.26 158.675 258.269 160.936C253.72 170.837 239.88 171.413 237.984 160.506L237.303 155.13C237.254 154.698 237.047 154.299 236.722 154.009C236.397 153.72 235.977 153.56 235.542 153.561C225.382 153.589 215.085 154.512 204.862 154.674C189.979 154.909 174.8 154.55 159.694 155.214C158.256 125.547 158.935 90.7475 158.914 63.5765C171.533 62.9259 204.178 62.7427 223.327 62.0429C234.177 61.6225 298.057 59.2551 303.179 59.093C303.597 62.7897 304.119 66.47 304.459 70.162C304.48 70.3487 304.538 70.5293 304.63 70.6932C304.722 70.8571 304.846 71.0009 304.995 71.1163C305.143 71.2316 305.313 71.3161 305.494 71.3648C305.676 71.4134 305.865 71.4253 306.051 71.3997C317.578 70.0868 328.868 72.9357 330.947 84.2583C331.323 86.3633 331.27 88.5225 330.791 90.6066C330.313 92.6906 329.418 94.6566 328.161 96.3865C323.095 103.078 312.942 105.518 304.513 105.621Z" fill="white"/>
<path d="M253.734 175.66C267.293 174.394 265.517 166.672 272.086 163.327C279.656 159.478 291.725 160.467 303.109 158.184C303.263 158.17 303.413 158.125 303.549 158.052C303.685 157.979 303.805 157.879 303.902 157.759C303.999 157.638 304.071 157.5 304.113 157.351C304.155 157.202 304.167 157.047 304.148 156.893C304.129 156.74 304.08 156.592 304.002 156.458C303.925 156.324 303.821 156.207 303.698 156.114C303.574 156.021 303.433 155.954 303.284 155.917C303.134 155.879 302.978 155.872 302.825 155.896C296.953 156.281 279.56 155.57 270.496 160.159C262.607 164.152 265.47 170.352 253.337 173.577C253.201 173.603 253.07 173.655 252.954 173.732C252.838 173.808 252.737 173.907 252.659 174.022C252.581 174.137 252.526 174.267 252.498 174.403C252.469 174.539 252.468 174.68 252.494 174.817C252.52 174.953 252.573 175.084 252.65 175.2C252.726 175.317 252.825 175.417 252.94 175.495C253.055 175.573 253.184 175.628 253.321 175.656C253.457 175.685 253.598 175.686 253.734 175.66Z" fill="white"/>
</svg>
