<svg width="63" height="62" viewBox="0 0 63 62" fill="none" xmlns="http://www.w3.org/2000/svg">
<path d="M9.17709 6.2749H6.69678V8.60019H9.17709V6.2749Z" fill="white"/>
<path d="M56.3031 53.4004H53.8228V55.7257H56.3031V53.4004Z" fill="white"/>
<path d="M45.1414 18.6763C41.2907 18.6763 37.5439 17.5764 34.3047 15.4945C33.7257 15.1233 33.1576 14.7156 32.6166 14.2823L32.2259 13.9699C32.2244 13.9684 32.2221 13.9668 32.2205 13.966C32.2089 13.9567 32.1965 13.9474 32.1841 13.9389C32.174 13.9319 32.1639 13.9242 32.1539 13.9172C32.1422 13.9095 32.1306 13.9025 32.119 13.8947C32.1073 13.887 32.0949 13.8792 32.0833 13.8722C32.0725 13.866 32.0616 13.8606 32.0508 13.8544C32.0368 13.8474 32.0236 13.8397 32.0097 13.8327C32.0074 13.8319 32.0058 13.8304 32.0035 13.8296C31.995 13.8257 31.9857 13.8219 31.9771 13.818C31.9632 13.8118 31.9492 13.8048 31.9345 13.7994C31.9229 13.7947 31.9112 13.7909 31.8988 13.7862C31.8849 13.7816 31.8717 13.7761 31.8578 13.7715C31.8446 13.7676 31.8322 13.7637 31.819 13.7599C31.8058 13.756 31.7927 13.7521 31.7803 13.749C31.7663 13.7459 31.7531 13.7428 31.7392 13.7397C31.7268 13.7374 31.7136 13.7343 31.7012 13.732C31.6872 13.7296 31.6733 13.7273 31.6593 13.7258C31.6469 13.7242 31.6338 13.7219 31.6214 13.7211C31.6074 13.7196 31.5935 13.7188 31.5795 13.718C31.5663 13.7172 31.5532 13.7165 31.5408 13.7157C31.5276 13.7149 31.5136 13.7157 31.5004 13.7157C31.4873 13.7157 31.4733 13.7157 31.4601 13.7157C31.447 13.7165 31.4338 13.7172 31.4214 13.718C31.4074 13.7188 31.3935 13.7196 31.3795 13.7211C31.3671 13.7227 31.354 13.7242 31.3415 13.7258C31.3276 13.7281 31.3136 13.7296 31.2997 13.732C31.2873 13.7343 31.2741 13.7366 31.2617 13.7397C31.2478 13.7428 31.2346 13.7451 31.2206 13.749C31.2075 13.7521 31.1951 13.756 31.1819 13.7599C31.1687 13.7637 31.1563 13.7668 31.1431 13.7715C31.1292 13.7761 31.116 13.7808 31.102 13.7862C31.0904 13.7909 31.078 13.7947 31.0664 13.7994C31.0517 13.8048 31.0377 13.8118 31.0238 13.818C31.0152 13.8219 31.0059 13.825 30.9974 13.8296C30.9951 13.8304 30.9935 13.8319 30.9912 13.8327C30.9773 13.8397 30.9641 13.8467 30.9501 13.8544C30.9393 13.8598 30.9284 13.866 30.9183 13.8715C30.9059 13.8784 30.8943 13.8862 30.8827 13.8939C30.8711 13.9009 30.8594 13.9087 30.8478 13.9157C30.8377 13.9226 30.8277 13.9304 30.8176 13.9374C30.8052 13.9467 30.7928 13.9552 30.7812 13.9645C30.7796 13.966 30.7773 13.9668 30.7757 13.9684L30.1998 14.428C29.8712 14.6838 29.5426 14.9248 29.2209 15.145C28.5876 15.5806 27.9203 15.9852 27.2382 16.3464C26.3561 16.813 25.4345 17.216 24.4967 17.5447C23.9696 17.7299 23.4208 17.8966 22.8674 18.0399C21.2304 18.4624 19.5461 18.6763 17.858 18.6763C17.2162 18.6763 16.6953 19.1972 16.6953 19.8389V31.0003V31.012C16.6953 32.3661 16.8697 33.714 17.2123 35.0153C17.496 36.0989 17.899 37.1569 18.4091 38.1599C18.8028 38.9342 19.2624 39.6783 19.7748 40.3713C20.5026 41.358 21.3451 42.2594 22.2791 43.0492C23.0899 43.7352 23.9758 44.3421 24.9121 44.8537L30.9432 48.1432C30.9486 48.1463 30.9548 48.1486 30.9602 48.1517C30.9703 48.1571 30.9811 48.1625 30.992 48.168C31.0044 48.1742 31.0168 48.1796 31.0292 48.185C31.04 48.1897 31.0501 48.1943 31.061 48.199C31.0741 48.2044 31.0865 48.2091 31.0997 48.2137C31.1106 48.2176 31.1206 48.2215 31.1315 48.2253C31.1447 48.23 31.1586 48.2339 31.1718 48.2377C31.1827 48.2408 31.1927 48.2439 31.2036 48.247C31.2175 48.2509 31.2315 48.254 31.2462 48.2571C31.2563 48.2594 31.2664 48.2618 31.2764 48.2641C31.2912 48.2672 31.3067 48.2695 31.3214 48.2718C31.3307 48.2734 31.3408 48.2749 31.3501 48.2765C31.3671 48.2788 31.3834 48.2804 31.4005 48.2811C31.4082 48.2819 31.4167 48.2827 31.4245 48.2835C31.4493 48.285 31.4741 48.2858 31.4989 48.2858C31.5237 48.2858 31.5485 48.285 31.5733 48.2835C31.5818 48.2827 31.5896 48.2819 31.5981 48.2811C31.6144 48.2796 31.6314 48.278 31.6477 48.2765C31.6578 48.2749 31.6671 48.2734 31.6772 48.2718C31.6919 48.2695 31.7066 48.2672 31.7213 48.2649C31.7322 48.2625 31.7423 48.2602 31.7531 48.2579C31.7671 48.2548 31.7803 48.2517 31.7942 48.2478C31.8051 48.2447 31.8159 48.2416 31.8275 48.2385C31.8407 48.2346 31.8539 48.2308 31.8663 48.2269C31.8771 48.223 31.8888 48.2191 31.8996 48.2153C31.912 48.2106 31.9244 48.206 31.9368 48.2005C31.9477 48.1959 31.9593 48.1912 31.9702 48.1866C31.9826 48.1811 31.995 48.1757 32.0066 48.1695C32.0174 48.1641 32.0283 48.1587 32.0384 48.1532C32.0438 48.1501 32.05 48.1478 32.0554 48.1447L38.0864 44.8552C40.1211 43.746 41.8495 42.2377 43.2246 40.3728C44.4151 38.7575 45.277 36.9554 45.7855 35.0185C46.1289 33.7147 46.3025 32.3668 46.3025 31.0135V31.0003V19.8389C46.304 19.1972 45.7832 18.6763 45.1414 18.6763ZM19.0206 20.9714C20.5134 20.8939 21.997 20.666 23.4456 20.2924C24.0634 20.1327 24.6757 19.9467 25.264 19.7397C26.3096 19.3731 27.3389 18.9236 28.3233 18.4027C29.0139 18.0368 29.6906 17.6315 30.337 17.1974V29.8377H19.0206V20.9714ZM43.5377 34.4255C43.1037 36.0772 42.3689 37.6135 41.3543 38.9916C40.1823 40.5813 38.7081 41.8664 36.9742 42.8121L32.6623 45.1637V32.163H43.9291C43.864 32.9272 43.733 33.6845 43.5377 34.4255Z" fill="white"/>
<path d="M62.4265 31.0001C62.4265 27.7718 59.9152 25.121 56.7435 24.8947C55.6281 20.2604 53.261 16.04 49.8606 12.6396C46.4603 9.23925 42.2399 6.87288 37.6056 5.75674C37.3792 2.58505 34.7284 0.0737305 31.5001 0.0737305C28.2718 0.0737305 25.621 2.58505 25.3947 5.75674C20.7604 6.87211 16.54 9.23925 13.1396 12.6396C9.73925 16.04 7.37211 20.2604 6.25674 24.8947C3.08505 25.121 0.57373 27.7718 0.57373 31.0001C0.57373 34.2284 3.08505 36.8792 6.25674 37.1056C7.37211 41.7399 9.73925 45.9603 13.1396 49.3606C16.54 52.761 20.7604 55.1281 25.3947 56.2435C25.621 59.4152 28.2718 61.9265 31.5001 61.9265C34.7284 61.9265 37.3792 59.4152 37.6056 56.2435C42.2399 55.1281 46.4603 52.761 49.8606 49.3606C53.261 45.9603 55.6281 41.7399 56.7435 37.1056C59.9152 36.8792 62.4265 34.2284 62.4265 31.0001ZM31.5001 2.39902C33.5944 2.39902 35.2981 4.10269 35.2981 6.197C35.2981 6.32566 35.2919 6.45201 35.2795 6.57447C35.088 8.52462 33.4634 9.99498 31.5001 9.99498C31.3164 9.99498 31.135 9.9818 30.9575 9.957C29.2446 9.71516 27.8936 8.34169 27.72 6.57215C27.7076 6.45201 27.7021 6.32566 27.7021 6.197C27.7021 4.10269 29.4058 2.39902 31.5001 2.39902ZM2.89902 31.0001C2.89902 28.9058 4.60269 27.2021 6.697 27.2021C6.82566 27.2021 6.95201 27.2083 7.07447 27.2207C9.02462 27.4122 10.495 29.0368 10.495 31.0001C10.495 31.1226 10.4895 31.2443 10.4779 31.3636C10.4717 31.4318 10.4624 31.5 10.4531 31.5667C10.2012 33.268 8.83317 34.6066 7.07215 34.7795C6.95201 34.7919 6.82566 34.7973 6.697 34.7973C4.60269 34.7981 2.89902 33.0944 2.89902 31.0001ZM31.5001 59.6012C29.4058 59.6012 27.7021 57.8975 27.7021 55.8032C27.7021 55.68 27.7083 55.5521 27.7207 55.4258C27.913 53.4756 29.5376 52.0052 31.5001 52.0052C31.5613 52.0052 31.6226 52.0068 31.683 52.0099C33.5626 52.0983 35.0927 53.5361 35.2795 55.425C35.2919 55.5536 35.2981 55.6808 35.2981 55.804C35.2981 57.8975 33.5944 59.6012 31.5001 59.6012ZM37.3273 53.9174C37.3211 53.898 37.3141 53.8787 37.3071 53.8585C37.3002 53.8368 37.2924 53.8151 37.2847 53.7934C37.2614 53.726 37.2366 53.6585 37.211 53.5926C37.2064 53.581 37.2025 53.5686 37.1978 53.557C37.1676 53.4803 37.1358 53.4043 37.1025 53.3291C37.094 53.3097 37.0847 53.2904 37.0762 53.271C37.049 53.2113 37.0211 53.1516 36.9917 53.0935C36.9824 53.0749 36.9731 53.0555 36.9638 53.0369C36.9266 52.9633 36.8878 52.8912 36.8483 52.8191C36.8413 52.8067 36.8336 52.7943 36.8266 52.7819C36.7925 52.7214 36.7568 52.6618 36.7204 52.6021C36.708 52.5819 36.6956 52.5618 36.6832 52.5424C36.6429 52.4788 36.6018 52.416 36.5599 52.354C36.5553 52.3471 36.5506 52.3401 36.546 52.3331C36.4995 52.2649 36.4507 52.1982 36.401 52.1316C36.3871 52.1138 36.3731 52.0952 36.36 52.0773C36.3197 52.0246 36.2786 51.9727 36.2367 51.9215C36.2243 51.906 36.2119 51.8905 36.1987 51.8758C36.1453 51.8122 36.091 51.7495 36.0352 51.6882C36.0236 51.6751 36.0112 51.6627 35.9988 51.6495C35.9523 51.5999 35.9058 51.5503 35.8577 51.5014C35.8414 51.4852 35.8252 51.4681 35.8081 51.4518C35.7484 51.3921 35.6872 51.334 35.6252 51.2767C34.4943 50.2473 33.0302 49.68 31.5001 49.68C29.9701 49.68 28.5059 50.2473 27.3758 51.2767C27.313 51.334 27.2526 51.3921 27.1929 51.4518C27.1766 51.4681 27.1596 51.4852 27.1433 51.5014C27.0952 51.5503 27.048 51.5991 27.0014 51.6495C26.9898 51.6627 26.9774 51.6751 26.9658 51.6882C26.91 51.7495 26.8557 51.8122 26.8022 51.8758C26.7898 51.8905 26.7774 51.906 26.765 51.9208C26.7224 51.9727 26.6813 52.0246 26.6402 52.0773C26.6271 52.0952 26.6131 52.1122 26.5999 52.13C26.5496 52.1967 26.5007 52.2641 26.4535 52.3323C26.4496 52.3378 26.4465 52.3432 26.4426 52.3486C26.3992 52.4129 26.3566 52.4773 26.3155 52.5432C26.3039 52.5618 26.2922 52.5804 26.2806 52.599C26.2426 52.661 26.2054 52.7238 26.169 52.7873C26.1636 52.7966 26.1581 52.8067 26.1527 52.816C26.1116 52.8896 26.0721 52.964 26.0341 53.0392C26.0264 53.0547 26.0186 53.0702 26.0109 53.0865C25.9799 53.1501 25.9489 53.2136 25.9202 53.278C25.9132 53.2935 25.9062 53.309 25.8993 53.3245C25.8644 53.4027 25.831 53.4818 25.8 53.5616C25.7977 53.5671 25.7962 53.5725 25.7938 53.5779C25.7652 53.6516 25.738 53.7267 25.7117 53.8019C25.7063 53.819 25.7001 53.8353 25.6946 53.8523C25.6877 53.874 25.6791 53.8957 25.6722 53.9174C17.2546 51.7921 10.7081 45.2464 8.58281 36.8273C8.60219 36.8211 8.62079 36.8141 8.64017 36.8079C8.66265 36.8002 8.68512 36.7924 8.7076 36.7847C8.77426 36.7614 8.84014 36.7374 8.90603 36.7118C8.91843 36.7071 8.9316 36.7025 8.94401 36.6978C9.02074 36.6676 9.09592 36.6358 9.17111 36.6025C9.19126 36.594 9.21064 36.5847 9.23002 36.5754C9.2897 36.5483 9.34861 36.5204 9.40674 36.4917C9.42612 36.4824 9.44472 36.4731 9.4641 36.4638C9.53773 36.4266 9.60981 36.3886 9.6819 36.3483C9.6943 36.3413 9.7067 36.3336 9.7191 36.3266C9.77956 36.2925 9.84002 36.2568 9.89892 36.2204C9.91908 36.208 9.93846 36.1956 9.95861 36.1832C10.0222 36.1429 10.0857 36.1018 10.1477 36.0592C10.1547 36.0545 10.1609 36.0506 10.1679 36.046C10.2361 35.9987 10.3028 35.9499 10.3694 35.9003C10.3872 35.8871 10.4051 35.8731 10.4229 35.8592C10.4756 35.8189 10.5275 35.777 10.5795 35.7352C10.595 35.7228 10.6097 35.7104 10.6252 35.698C10.6887 35.6445 10.7515 35.5902 10.8128 35.5344C10.8259 35.5228 10.8383 35.5104 10.8515 35.4988C10.9019 35.4523 10.9507 35.4058 10.9996 35.3577C11.0158 35.3414 11.0329 35.3252 11.0492 35.3081C11.1081 35.2484 11.167 35.1872 11.2243 35.1252C12.2529 33.9951 12.8203 32.5302 12.8203 31.0001C12.8203 30.7133 12.8001 30.4289 12.7614 30.1483C12.5916 28.9329 12.0599 27.7935 11.2236 26.8758C11.2228 26.875 11.222 26.8743 11.2212 26.8727C11.1654 26.8115 11.1081 26.7518 11.0499 26.6929C11.0329 26.6758 11.0158 26.6588 10.9988 26.6417C10.9507 26.5945 10.9019 26.548 10.8531 26.5022C10.8399 26.4898 10.8259 26.4766 10.8128 26.4642C10.7515 26.4084 10.6895 26.355 10.6267 26.3015C10.6105 26.2883 10.595 26.2751 10.5787 26.2619C10.5283 26.2209 10.4771 26.1806 10.426 26.1402C10.4074 26.1255 10.3888 26.1116 10.3694 26.0968C10.3035 26.0472 10.2376 25.9992 10.1702 25.9527C10.1617 25.9465 10.1524 25.941 10.1439 25.9348C10.0842 25.8938 10.0237 25.8542 9.96248 25.8163C9.94078 25.8031 9.91985 25.7891 9.89815 25.776C9.84157 25.7411 9.78499 25.7077 9.72763 25.6752C9.71213 25.6667 9.69662 25.6574 9.68112 25.6488C9.61136 25.6101 9.54006 25.5721 9.46875 25.5357C9.44704 25.5248 9.42457 25.514 9.40286 25.5031C9.34861 25.4768 9.29357 25.4504 9.23932 25.4256C9.21606 25.4148 9.19281 25.4039 9.16956 25.3938C9.0967 25.3621 9.02384 25.331 8.95021 25.3016C8.9316 25.2946 8.91378 25.2876 8.89517 25.2807C8.83627 25.2582 8.77736 25.2365 8.71768 25.2156C8.69055 25.2063 8.6642 25.197 8.63707 25.1884C8.62002 25.183 8.60296 25.1768 8.58591 25.1706C10.7081 16.7538 17.2538 10.2081 25.6729 8.08281C25.6791 8.10219 25.6861 8.12156 25.6923 8.14094C25.6993 8.16265 25.707 8.18512 25.7148 8.20683C25.738 8.27348 25.7621 8.34014 25.7876 8.4068C25.7923 8.4192 25.7969 8.4316 25.8016 8.44323C25.8318 8.51997 25.8636 8.59592 25.8969 8.67111C25.9055 8.69049 25.9148 8.70986 25.9233 8.72924C25.9504 8.78892 25.9783 8.84783 26.007 8.90674C26.0163 8.92534 26.0256 8.94472 26.0349 8.96332C26.0721 9.03695 26.1101 9.10904 26.1504 9.18112C26.1574 9.19352 26.1651 9.20593 26.1721 9.21833C26.2062 9.27878 26.2419 9.33847 26.2783 9.39815C26.2907 9.4183 26.3031 9.43846 26.3155 9.45861C26.3558 9.52217 26.3961 9.58495 26.4387 9.64696C26.4434 9.65393 26.448 9.66091 26.4527 9.66866C26.4992 9.73687 26.548 9.80353 26.5976 9.86941C26.6116 9.88801 26.6255 9.90584 26.6395 9.92367C26.6798 9.9756 26.7209 10.0275 26.7627 10.0787C26.7751 10.0942 26.7875 10.1097 26.8007 10.1252C26.8534 10.1887 26.9084 10.2508 26.9635 10.312C26.9751 10.3252 26.9875 10.3383 26.9999 10.3507C27.0456 10.4004 27.0929 10.45 27.141 10.498C27.1572 10.5151 27.1743 10.5313 27.1906 10.5476C27.2503 10.6065 27.3115 10.6654 27.3735 10.7228C28.5051 11.7529 29.9701 12.3203 31.5001 12.3203C31.7869 12.3203 32.0714 12.3001 32.3519 12.2614C33.5673 12.0916 34.7067 11.5599 35.6244 10.7236C35.6872 10.6662 35.7476 10.6081 35.8073 10.5484C35.8236 10.5321 35.8407 10.5151 35.8569 10.4988C35.905 10.45 35.9523 10.4011 35.9988 10.3507C36.0104 10.3376 36.0228 10.3252 36.0344 10.312C36.0902 10.2508 36.1445 10.188 36.198 10.1244C36.2112 10.1089 36.2236 10.0934 36.236 10.0779C36.2778 10.0268 36.3189 9.9756 36.3584 9.92289C36.3724 9.90429 36.3871 9.88646 36.4003 9.86786C36.4499 9.80198 36.4979 9.73532 36.5444 9.66788C36.5499 9.65936 36.5553 9.65083 36.5615 9.64231C36.6026 9.58185 36.6421 9.52062 36.6816 9.45938C36.6948 9.43768 36.708 9.41675 36.7212 9.39505C36.756 9.33847 36.7894 9.28189 36.8219 9.22453C36.8305 9.20903 36.8398 9.19353 36.8491 9.17802C36.8878 9.10826 36.9258 9.03773 36.9614 8.96642C36.9731 8.94394 36.9839 8.92147 36.9948 8.89899C37.0211 8.84551 37.0467 8.79125 37.0715 8.73699C37.0824 8.71297 37.0932 8.68971 37.1041 8.66568C37.1358 8.5936 37.1668 8.52074 37.1955 8.44788C37.2033 8.4285 37.2103 8.40913 37.2172 8.38975C37.2397 8.33162 37.2606 8.27348 37.2816 8.21535C37.2909 8.18822 37.3002 8.16032 37.3095 8.13319C37.3149 8.11614 37.3211 8.09986 37.3265 8.08281C45.7456 10.2089 52.2913 16.7546 54.4166 25.1729C54.3973 25.1791 54.3779 25.1861 54.3585 25.1931C54.336 25.2008 54.3143 25.2078 54.2926 25.2156C54.226 25.2388 54.1593 25.2628 54.0926 25.2884C54.0802 25.2931 54.0678 25.2977 54.0562 25.3024C53.9795 25.3326 53.9035 25.3644 53.8283 25.3977C53.809 25.4062 53.7888 25.4155 53.7694 25.4241C53.7097 25.4512 53.6508 25.4791 53.5927 25.5078C53.5733 25.5171 53.5547 25.5264 53.5353 25.5357C53.4625 25.5729 53.3896 25.6109 53.3175 25.6512C53.3051 25.6581 53.292 25.6659 53.2796 25.6729C53.2191 25.707 53.1594 25.7426 53.1005 25.7791C53.0804 25.7915 53.0602 25.8039 53.0401 25.8163C52.9765 25.8566 52.9137 25.8969 52.8517 25.9395C52.8447 25.9442 52.8378 25.9488 52.8308 25.9535C52.7626 26 52.6959 26.0488 52.63 26.0984C52.6114 26.1123 52.5936 26.1263 52.5758 26.1402C52.5231 26.1806 52.4719 26.2216 52.4208 26.2635C52.4053 26.2759 52.3898 26.2883 52.3743 26.3015C52.3107 26.355 52.2487 26.4092 52.1867 26.465C52.1735 26.4766 52.1611 26.489 52.1479 26.5014C52.0983 26.548 52.0487 26.5945 51.9999 26.6425C51.9836 26.6588 51.9666 26.6751 51.9503 26.6921C51.8906 26.7518 51.8325 26.813 51.7751 26.875C50.7473 28.0059 50.18 29.4701 50.18 31.0001C50.18 32.5302 50.7473 33.9943 51.7767 35.1244C51.834 35.1872 51.8921 35.2476 51.9518 35.3073C51.9681 35.3236 51.9852 35.3407 52.0014 35.3569C52.0503 35.405 52.0991 35.4523 52.1495 35.4988C52.1627 35.5104 52.1751 35.5228 52.1882 35.5344C52.2495 35.5902 52.3122 35.6445 52.3758 35.698C52.3905 35.7104 52.406 35.7228 52.4208 35.7352C52.4727 35.7778 52.5246 35.8189 52.5781 35.86C52.5959 35.8731 52.613 35.8871 52.6308 35.9003C52.6975 35.9507 52.7649 35.9995 52.8339 36.0468C52.8393 36.0506 52.8447 36.0537 52.8494 36.0576C52.9137 36.1018 52.9788 36.1437 53.0439 36.1855C53.0625 36.1971 53.0811 36.2088 53.0997 36.2196C53.1625 36.2584 53.2253 36.2956 53.2889 36.3312C53.2982 36.3367 53.3075 36.3421 53.3168 36.3475C53.3904 36.3886 53.4648 36.4281 53.54 36.4661C53.5555 36.4739 53.571 36.4816 53.5865 36.4893C53.6501 36.5211 53.7144 36.5514 53.7787 36.5808C53.7942 36.5878 53.809 36.5948 53.8245 36.6017C53.9027 36.6366 53.9818 36.6699 54.0616 36.701C54.0671 36.7033 54.0717 36.7048 54.0771 36.7072C54.1516 36.7358 54.2267 36.7637 54.3019 36.7893C54.3182 36.7947 54.3345 36.8009 54.3515 36.8064C54.3732 36.8141 54.3949 36.8219 54.4174 36.8288C52.2921 45.2456 45.7456 51.7921 37.3273 53.9174ZM56.3032 34.7981C56.18 34.7981 56.0521 34.7919 55.9258 34.7795C53.9756 34.5873 52.5052 32.9627 52.5052 31.0001C52.5052 30.9389 52.5068 30.8776 52.5099 30.8172C52.5983 28.9376 54.0361 27.4075 55.925 27.2207C56.0536 27.2083 56.1808 27.2021 56.304 27.2021C58.3983 27.2021 60.102 28.9058 60.102 31.0001C60.102 33.0944 58.3975 34.7981 56.3032 34.7981Z" fill="white"/>
</svg>
