<svg width="417" height="361" viewBox="0 0 417 361" fill="none" xmlns="http://www.w3.org/2000/svg">
<path d="M229.857 110.89C229.265 110.636 229.011 109.931 229.265 109.367L230.478 106.659C230.732 106.066 231.437 105.812 232.001 106.066C232.594 106.32 232.847 107.025 232.594 107.589L231.38 110.298C231.155 110.89 230.449 111.172 229.857 110.89Z" fill="white"/>
<path d="M236.966 114.106C236.373 113.852 236.12 113.147 236.373 112.583L237.587 109.874C237.84 109.282 238.546 109.028 239.11 109.282C239.702 109.536 239.956 110.241 239.702 110.805L238.489 113.514C238.235 114.106 237.558 114.36 236.966 114.106Z" fill="white"/>
<path d="M187.765 37.8209C187.314 38.9776 186.665 39.824 185.875 40.36C185.085 40.896 184.069 41.0935 182.856 40.9806L181.643 44.0275C181.615 44.1122 181.558 44.1686 181.474 44.225C181.389 44.2532 181.304 44.2532 181.22 44.225L177.214 42.6169C177.129 42.5887 177.073 42.5323 177.016 42.4477C176.988 42.363 176.988 42.2784 177.016 42.1938L178.088 39.4854C177.355 39.1469 176.678 38.8366 176.113 38.498C176.029 38.4698 176.001 38.3852 175.972 38.3005C175.944 38.2159 175.944 38.1313 175.972 38.0466L177.58 34.9433C177.637 34.8587 177.693 34.8022 177.806 34.774C177.919 34.7458 178.004 34.774 178.088 34.8305C178.314 34.9715 178.54 35.1408 178.794 35.2818C179.047 35.4229 179.358 35.6204 179.753 35.8179C180.148 36.0436 180.514 36.2128 180.881 36.3539C181.276 36.5232 181.615 36.6078 181.925 36.6078C182.235 36.6078 182.489 36.5514 182.659 36.4385C182.828 36.3257 182.969 36.2128 183.054 36.1C183.138 35.9872 183.223 35.8743 183.251 35.7897C183.307 35.6768 183.307 35.5358 183.336 35.3947C183.336 35.2536 183.336 35.0562 183.279 34.8023C183.223 34.5483 183.082 34.2662 182.856 33.9559C182.602 33.6456 182.292 33.3352 181.869 33.0531C181.389 32.7146 180.994 32.3196 180.627 31.84C180.261 31.3604 179.978 30.8244 179.725 30.2319C179.499 29.6395 179.386 28.9624 179.386 28.2289C179.386 27.4954 179.555 26.7337 179.837 25.9719C180.261 24.8999 180.881 24.1099 181.728 23.6021C182.546 23.0943 183.561 22.8686 184.718 22.9251L185.959 19.7935C185.988 19.7089 186.044 19.6525 186.157 19.5961C186.241 19.5678 186.326 19.5396 186.411 19.5961L190.417 21.2041C190.501 21.2323 190.558 21.317 190.614 21.4016C190.642 21.4862 190.642 21.5991 190.614 21.6837L189.542 24.3921C190.248 24.7024 190.925 25.0409 191.602 25.4077C191.686 25.4359 191.715 25.5205 191.771 25.6052C191.799 25.6898 191.799 25.7744 191.743 25.8591L190.135 28.9624C190.078 29.047 190.022 29.1035 189.909 29.1317C189.796 29.1599 189.712 29.1599 189.627 29.1034C188.611 28.4264 187.652 27.8903 186.749 27.5236C186.383 27.3543 186.044 27.2697 185.734 27.2697C185.423 27.2697 185.169 27.3261 185 27.439C184.831 27.5518 184.69 27.6646 184.577 27.7775C184.492 27.8903 184.408 28.0032 184.379 28.0878C184.351 28.2007 184.323 28.3135 184.295 28.4546C184.295 28.5956 184.295 28.7931 184.351 29.047C184.408 29.3009 184.549 29.5831 184.803 29.8934C185.057 30.2037 185.367 30.514 185.79 30.7962C186.241 31.1347 186.665 31.5297 187.031 32.0093C187.398 32.4889 187.708 33.0249 187.934 33.6173C188.16 34.2098 188.273 34.8869 188.273 35.6204C188.216 36.3257 188.047 37.0592 187.765 37.8209Z" fill="white"/>
<path d="M181.333 44.6485C181.248 44.6485 181.136 44.6203 181.051 44.5921L177.045 42.984C176.847 42.8994 176.706 42.7583 176.622 42.5891C176.537 42.3916 176.537 42.1941 176.622 41.9966L177.553 39.655C176.96 39.3729 176.396 39.0908 175.916 38.8369C175.747 38.7522 175.634 38.583 175.578 38.4137C175.521 38.2444 175.521 38.0469 175.606 37.8495C175.606 37.8495 175.606 37.8212 175.634 37.8212L177.242 34.7179C177.355 34.5205 177.525 34.3794 177.75 34.323C177.976 34.2666 178.173 34.323 178.371 34.4358C178.597 34.5769 178.822 34.7462 179.048 34.8872C179.274 35.0283 179.584 35.1975 179.979 35.4232C180.346 35.6207 180.712 35.79 181.051 35.9311C181.39 36.0721 181.7 36.1567 181.954 36.1567C182.236 36.1567 182.377 36.1003 182.433 36.0439C182.574 35.9593 182.687 35.8464 182.744 35.79C182.828 35.7054 182.857 35.6207 182.885 35.5925C182.913 35.5361 182.941 35.4515 182.941 35.3386C182.941 35.254 182.941 35.1129 182.885 34.8308C182.857 34.7179 182.772 34.4922 182.518 34.1537C182.292 33.8716 182.01 33.5895 181.643 33.3356C181.136 32.997 180.684 32.5456 180.289 32.0378C179.894 31.53 179.584 30.9658 179.33 30.3169C179.076 29.668 178.935 28.9345 178.963 28.1446C178.963 27.3546 179.133 26.5365 179.471 25.7466C179.923 24.5899 180.628 23.7435 181.531 23.1793C182.349 22.6715 183.336 22.4176 184.465 22.4176L185.593 19.5682C185.678 19.3707 185.791 19.2296 185.988 19.145C186.186 19.0604 186.383 19.0321 186.581 19.1168L190.587 20.7249C190.784 20.8095 190.925 20.9506 191.01 21.148C191.094 21.3455 191.094 21.543 191.01 21.7405L190.079 24.0821C190.671 24.3642 191.236 24.6463 191.8 24.9284C191.969 25.0131 192.082 25.1823 192.166 25.3516C192.251 25.5491 192.223 25.7748 192.11 25.9723L190.502 29.0756C190.389 29.273 190.22 29.3859 190.022 29.4705C189.797 29.527 189.571 29.4987 189.373 29.3577C188.386 28.7088 187.455 28.1728 186.581 27.806C186.242 27.665 185.96 27.5803 185.706 27.5803C185.48 27.5803 185.311 27.6085 185.198 27.6932C185.001 27.806 184.916 27.8907 184.86 27.9471C184.803 28.0035 184.747 28.0882 184.719 28.1446C184.69 28.1728 184.69 28.2574 184.662 28.3985C184.662 28.4831 184.662 28.6242 184.719 28.8781C184.747 29.0756 184.888 29.3013 185.085 29.5552C185.311 29.8373 185.593 30.1194 185.96 30.3733C186.439 30.7401 186.891 31.1632 187.286 31.6711C187.681 32.1789 187.991 32.7431 188.245 33.392C188.499 34.0409 188.612 34.7744 188.612 35.5643C188.612 36.3542 188.442 37.1442 188.104 37.9623C187.596 39.2036 186.919 40.1064 186.073 40.6989C185.283 41.2349 184.267 41.4606 183.082 41.4042L181.982 44.1689C181.897 44.3664 181.756 44.5075 181.587 44.5921C181.531 44.6203 181.418 44.6485 181.333 44.6485ZM177.412 42.2223L181.277 43.774L182.462 40.8117C182.518 40.6424 182.715 40.5296 182.885 40.5578C184.013 40.6707 184.944 40.4732 185.65 40.0218C186.355 39.5422 186.947 38.7522 187.37 37.6802C187.653 36.9749 187.794 36.2696 187.822 35.5925C187.822 34.9154 187.737 34.2948 187.512 33.7305C187.286 33.1663 187.004 32.6585 186.665 32.2353C186.327 31.7839 185.932 31.4172 185.508 31.1068C185.085 30.7965 184.719 30.458 184.436 30.1194C184.154 29.7527 183.985 29.4141 183.929 29.1038C183.872 28.8217 183.844 28.5678 183.844 28.3985C183.844 28.201 183.9 28.0317 183.957 27.8907C184.013 27.7214 184.126 27.5803 184.239 27.4393C184.352 27.2982 184.521 27.1854 184.747 27.0443C185.001 26.875 185.339 26.7904 185.734 26.7904C186.101 26.7904 186.496 26.875 186.919 27.0725C187.822 27.4393 188.781 27.9753 189.797 28.6524L191.32 25.6901C190.699 25.3516 190.022 25.0413 189.345 24.7309C189.148 24.6463 189.035 24.3924 189.12 24.1949L190.163 21.543L186.27 19.9913L185.057 23.0664C185.001 23.2357 184.831 23.3486 184.634 23.3203C183.562 23.2639 182.631 23.4896 181.897 23.941C181.136 24.3924 180.571 25.1259 180.176 26.0851C179.894 26.7904 179.753 27.4957 179.753 28.1728C179.753 28.8499 179.838 29.4705 180.064 30.0348C180.289 30.599 180.571 31.1068 180.91 31.5582C181.248 32.0096 181.643 32.3764 182.067 32.6867C182.518 32.997 182.885 33.3356 183.139 33.6741C183.421 34.0409 183.59 34.3794 183.646 34.6897C183.703 34.9719 183.731 35.1975 183.703 35.395C183.703 35.5925 183.646 35.7618 183.59 35.9311C183.534 36.0721 183.449 36.2132 183.308 36.3542C183.195 36.4953 183.026 36.6364 182.828 36.7774C182.574 36.9467 182.236 37.0313 181.869 37.0313C181.502 37.0313 181.107 36.9185 180.656 36.7492C180.289 36.6081 179.894 36.4107 179.499 36.185C179.104 35.9593 178.766 35.79 178.512 35.6207C178.286 35.4797 178.061 35.3386 177.863 35.1975L176.34 38.1598C176.876 38.4701 177.525 38.7805 178.23 39.0908C178.427 39.1754 178.54 39.4293 178.456 39.6268L177.412 42.2223Z" fill="white"/>
<path d="M357.487 98.3071C357.825 98.8431 357.967 99.351 357.938 99.8306C357.91 100.31 357.684 100.79 357.289 101.241L358.164 102.652C358.192 102.68 358.192 102.736 358.192 102.793C358.192 102.849 358.164 102.877 358.108 102.906L356.246 104.062C356.217 104.091 356.161 104.091 356.105 104.091C356.048 104.091 356.02 104.062 355.992 104.006L355.23 102.765C354.863 102.962 354.553 103.131 354.243 103.272C354.214 103.301 354.158 103.301 354.13 103.272C354.073 103.244 354.045 103.216 354.017 103.188L353.255 101.608C353.227 101.551 353.227 101.523 353.255 101.467C353.283 101.41 353.312 101.382 353.368 101.382C353.509 101.326 353.622 101.298 353.763 101.241C353.904 101.185 354.073 101.1 354.271 101.015C354.468 100.931 354.666 100.818 354.835 100.733C355.004 100.62 355.145 100.508 355.258 100.395C355.343 100.282 355.399 100.141 355.399 100.056C355.399 99.9434 355.399 99.8588 355.371 99.8023C355.343 99.7177 355.343 99.6613 355.315 99.6331C355.286 99.5767 355.23 99.5202 355.174 99.492C355.117 99.4356 355.032 99.3792 354.92 99.3227C354.807 99.2663 354.638 99.2381 354.44 99.2381C354.243 99.2381 354.017 99.2945 353.791 99.351C353.509 99.4356 353.227 99.492 352.917 99.492C352.606 99.492 352.296 99.4638 351.986 99.3792C351.675 99.2945 351.365 99.1535 351.083 98.8996C350.773 98.6739 350.519 98.3918 350.321 98.025C350.011 97.5454 349.898 97.0376 349.926 96.558C349.983 96.0784 350.18 95.5988 350.547 95.1474L349.672 93.7086C349.644 93.6804 349.644 93.624 349.644 93.5675C349.644 93.5111 349.672 93.4829 349.729 93.4547L351.591 92.298C351.619 92.2698 351.675 92.2698 351.732 92.2698C351.788 92.2698 351.816 92.298 351.845 92.3544L352.606 93.5957C352.945 93.3983 353.283 93.229 353.622 93.0597C353.65 93.0315 353.707 93.0315 353.763 93.0597C353.819 93.0597 353.848 93.0879 353.876 93.1444L354.638 94.7242C354.666 94.7806 354.666 94.8088 354.638 94.8653C354.609 94.9217 354.581 94.9499 354.553 94.9499C353.96 95.1474 353.453 95.3731 353.029 95.627C352.86 95.7398 352.719 95.8527 352.634 95.9655C352.55 96.0784 352.493 96.2194 352.493 96.3323C352.493 96.4451 352.493 96.5298 352.493 96.5862C352.522 96.6426 352.522 96.7273 352.55 96.7555C352.578 96.8119 352.634 96.8401 352.691 96.8965C352.747 96.953 352.832 97.0094 352.945 97.0376C353.058 97.094 353.227 97.1222 353.424 97.1222C353.622 97.1222 353.848 97.0658 354.073 97.0094C354.355 96.9247 354.638 96.8683 354.948 96.8683C355.258 96.8683 355.569 96.8965 355.879 96.9812C356.189 97.0658 356.5 97.2351 356.782 97.4608C357.036 97.6865 357.289 97.9686 357.487 98.3071Z" fill="white"/>
<path d="M356.162 104.457C356.105 104.457 356.077 104.457 356.021 104.429C355.88 104.401 355.739 104.288 355.654 104.147L355.09 103.244C354.864 103.357 354.638 103.47 354.413 103.583C354.272 103.639 354.131 103.639 353.989 103.611C353.848 103.555 353.736 103.47 353.651 103.357C353.651 103.357 353.651 103.329 353.623 103.329L352.861 101.749C352.776 101.58 352.776 101.411 352.833 101.269C352.889 101.1 353.03 100.987 353.2 100.931C353.312 100.903 353.453 100.846 353.566 100.79C353.707 100.733 353.848 100.677 354.046 100.564C354.243 100.48 354.413 100.395 354.554 100.282C354.695 100.197 354.808 100.113 354.864 100.028C354.92 99.9435 354.92 99.9153 354.92 99.9153C354.92 99.8306 354.92 99.7742 354.92 99.7742C354.92 99.746 354.892 99.7178 354.892 99.7178C354.892 99.7178 354.892 99.6896 354.836 99.6614C354.836 99.6614 354.779 99.6049 354.667 99.5485C354.638 99.5485 354.582 99.5203 354.384 99.5203C354.215 99.5203 354.046 99.5485 353.848 99.6332C353.538 99.746 353.2 99.8024 352.861 99.8024C352.522 99.8024 352.184 99.746 351.817 99.6614C351.45 99.5767 351.084 99.3792 350.745 99.1253C350.407 98.8714 350.124 98.5329 349.871 98.1379C349.532 97.5737 349.363 96.9812 349.419 96.417C349.476 95.9374 349.645 95.4578 349.955 95.0064L349.222 93.8215C349.137 93.6804 349.109 93.5394 349.137 93.3983C349.165 93.2291 349.278 93.088 349.419 93.0034L351.281 91.8467C351.422 91.762 351.591 91.7338 351.733 91.762C351.902 91.7903 352.015 91.9031 352.099 92.016L352.664 92.9187C352.889 92.8059 353.115 92.693 353.369 92.5802C353.51 92.5238 353.651 92.5238 353.792 92.552C353.961 92.6084 354.102 92.7213 354.159 92.8623L354.92 94.4422C355.005 94.5832 355.005 94.7525 354.949 94.9218C354.892 95.091 354.751 95.2321 354.582 95.2885C354.046 95.486 353.566 95.7117 353.171 95.9374C353.03 96.022 352.946 96.0785 352.889 96.1631C352.833 96.2195 352.833 96.2759 352.833 96.2759C352.833 96.3888 352.833 96.417 352.833 96.4452C352.833 96.4734 352.833 96.4734 352.861 96.5016C352.861 96.5016 352.861 96.5299 352.889 96.5299C352.889 96.5299 352.946 96.5581 353.058 96.6145C353.087 96.6145 353.171 96.6427 353.341 96.6427C353.51 96.6427 353.679 96.6145 353.877 96.5299C354.187 96.4452 354.526 96.3888 354.864 96.3606C355.203 96.3606 355.569 96.3888 355.908 96.5016C356.275 96.6145 356.641 96.7838 356.98 97.0377C357.318 97.2916 357.601 97.6301 357.855 98.0251C358.221 98.6457 358.391 99.2382 358.362 99.8024C358.334 100.282 358.137 100.762 357.798 101.213L358.503 102.37C358.588 102.511 358.616 102.652 358.588 102.821C358.56 102.99 358.447 103.103 358.334 103.188L356.472 104.345C356.359 104.429 356.275 104.457 356.162 104.457ZM355.231 102.285C355.372 102.285 355.513 102.37 355.598 102.483L356.246 103.526L357.685 102.652L356.952 101.467C356.867 101.298 356.867 101.1 357.008 100.959C357.347 100.564 357.544 100.197 357.572 99.8024C357.601 99.4075 357.46 98.9843 357.177 98.5329C356.98 98.2226 356.782 97.9687 356.529 97.7712C356.275 97.5737 356.021 97.4326 355.767 97.3762C355.485 97.2916 355.231 97.2634 354.977 97.2634C354.723 97.2634 354.469 97.3198 354.215 97.3762C353.933 97.4608 353.679 97.5173 353.425 97.5173C353.171 97.5173 352.946 97.4891 352.776 97.4044C352.635 97.3198 352.494 97.2634 352.41 97.1787C352.325 97.0941 352.24 97.0094 352.184 96.9248C352.128 96.8402 352.071 96.7273 352.071 96.6145C352.043 96.5016 352.043 96.3888 352.043 96.2477C352.043 96.0503 352.127 95.8528 352.269 95.6553C352.41 95.486 352.579 95.345 352.805 95.2039C353.171 94.9782 353.623 94.7807 354.131 94.5832L353.595 93.483C353.341 93.5958 353.058 93.7369 352.805 93.8779C352.607 93.9908 352.353 93.9344 352.24 93.7369L351.591 92.693L350.153 93.5676L350.914 94.8089C350.999 94.95 350.999 95.1475 350.886 95.2885C350.576 95.6835 350.407 96.0785 350.35 96.4734C350.322 96.8684 350.407 97.2634 350.689 97.6865C350.886 97.9969 351.112 98.2508 351.366 98.4483C351.62 98.6457 351.874 98.7868 352.127 98.8432C352.41 98.9279 352.664 98.9561 352.946 98.9561C353.2 98.9561 353.453 98.9279 353.679 98.8432C353.961 98.7586 354.215 98.7022 354.469 98.7022C354.723 98.7022 354.949 98.7304 355.118 98.815C355.259 98.8996 355.372 98.9561 355.457 99.0407C355.541 99.1253 355.626 99.21 355.682 99.2946C355.739 99.3793 355.767 99.4921 355.795 99.6049C355.823 99.7178 355.823 99.8306 355.823 99.9717C355.823 100.169 355.739 100.367 355.598 100.564C355.457 100.733 355.287 100.874 355.062 101.016C354.892 101.128 354.695 101.213 354.469 101.326C354.243 101.411 354.074 101.495 353.933 101.552C353.877 101.58 353.82 101.58 353.792 101.608L354.328 102.736C354.554 102.624 354.808 102.483 355.062 102.341C355.09 102.313 355.174 102.285 355.231 102.285ZM354.356 94.4986C354.356 94.5268 354.356 94.5268 354.356 94.4986C354.356 94.5268 354.356 94.5268 354.356 94.4986Z" fill="white"/>
<path d="M353.482 112.442C349.165 112.442 343.692 109.508 339.686 97.1789C336.357 86.8816 324.452 65.2995 308.992 64.1992C308.568 64.171 308.202 63.8607 308.089 63.4375C307.976 63.0143 308.173 62.5912 308.54 62.3655C309.528 61.7448 332.633 47.4696 338.614 45.8897C341.83 45.0434 345.385 46.3693 348.94 49.7265C352.24 52.8581 355.372 57.6259 358.024 63.5221C361.155 70.5187 364.682 77.7409 369.224 83.1012C374.895 89.7592 380.593 91.7058 386.715 89.0539C387.054 88.9128 387.477 88.9693 387.759 89.2232C388.041 89.4771 388.154 89.872 388.041 90.2388C385.023 100.451 360.535 111.539 354.921 112.357C354.413 112.413 353.961 112.442 353.482 112.442ZM311.897 62.6476C319.684 64.3403 326.032 70.4905 330.122 75.6532C335.906 82.9037 339.799 91.2262 341.548 96.5583C344.764 106.489 349.165 111.144 354.582 110.382C359.265 109.705 380.086 100.282 385.22 91.6494C370.24 95.7965 360.478 73.9323 356.19 64.3403C351.168 53.0837 344.313 46.454 339.122 47.8363C334.495 49.0495 318.048 58.8954 311.897 62.6476Z" fill="white"/>
<path d="M334.072 59.601C333.705 59.601 333.366 59.4035 333.197 59.065C332.943 58.5854 333.141 57.9929 333.62 57.739C333.649 57.7108 337.767 55.5667 342.987 52.943C343.466 52.6891 344.059 52.8866 344.313 53.3662C344.567 53.8458 344.369 54.4382 343.889 54.6921C338.698 57.3441 334.58 59.46 334.551 59.4882C334.382 59.5728 334.213 59.601 334.072 59.601Z" fill="white"/>
<path d="M333.283 66.033C332.972 66.033 332.69 65.892 332.493 65.6381C332.182 65.1867 332.267 64.566 332.718 64.2557C334.468 62.9862 340.195 60.0521 346.063 57.4566C346.57 57.2309 347.135 57.4566 347.36 57.9644C347.586 58.4723 347.36 59.0365 346.853 59.2622C341.182 61.773 335.483 64.6507 333.875 65.8356C333.706 65.9484 333.48 66.033 333.283 66.033Z" fill="white"/>
<path d="M340.73 72.0983C340.392 72.0983 340.081 71.9291 339.884 71.6187C339.602 71.1673 339.743 70.5467 340.194 70.2645C340.251 70.2363 345.498 66.992 349.419 64.9325C349.899 64.6786 350.491 64.8761 350.745 65.3557C350.999 65.8353 350.802 66.4277 350.322 66.6816C346.485 68.6847 341.266 71.9008 341.21 71.9291C341.097 72.0419 340.899 72.0983 340.73 72.0983Z" fill="white"/>
<path d="M345.301 79.9417C344.99 79.9417 344.68 79.8007 344.511 79.5468C344.2 79.0954 344.285 78.4747 344.736 78.1644C344.765 78.1362 348.376 75.5407 351.761 73.3966C352.213 73.1145 352.833 73.2273 353.115 73.7069C353.398 74.1583 353.285 74.779 352.805 75.0611C349.448 77.177 345.921 79.7443 345.865 79.7725C345.724 79.8853 345.498 79.9417 345.301 79.9417Z" fill="white"/>
<path d="M376.333 240.467C373.935 240.467 371.312 240.411 369.986 240.213C369.506 240.128 368.688 240.016 368.491 239.254C367.983 237.364 367.926 230.818 370.832 227.151C372.694 224.809 377.152 224.245 384.12 225.43C384.289 225.458 384.43 225.486 384.487 225.486C384.853 225.515 385.164 225.712 385.333 226.051C385.446 226.276 385.728 226.812 385.7 232.822C385.672 238.859 385.389 239.282 385.248 239.508C384.938 239.987 384.741 240.326 378.252 240.439C377.659 240.467 377.011 240.467 376.333 240.467ZM370.296 238.266C372.44 238.605 381.271 238.577 383.556 238.238C383.753 236.263 383.781 229.408 383.612 227.377C375.628 226.022 373.146 227.433 372.384 228.392C370.127 231.213 370.014 236.348 370.296 238.266ZM384.43 225.515H384.458H384.43Z" fill="white"/>
<path d="M378.9 236.489H377.236C376.248 236.489 375.43 235.671 375.43 234.684V233.499C375.43 232.512 376.248 231.693 377.236 231.693H378.9C379.888 231.693 380.706 232.512 380.706 233.499V234.684C380.706 235.699 379.888 236.489 378.9 236.489Z" fill="white"/>
<path d="M378.9 236.913H377.236C375.994 236.913 375.007 235.925 375.007 234.684V233.499C375.007 232.258 375.994 231.271 377.236 231.271H378.9C380.141 231.271 381.129 232.258 381.129 233.499V234.684C381.129 235.925 380.113 236.913 378.9 236.913ZM377.236 232.145C376.474 232.145 375.853 232.766 375.853 233.527V234.712C375.853 235.474 376.474 236.095 377.236 236.095H378.9C379.662 236.095 380.282 235.474 380.282 234.712V233.527C380.282 232.766 379.662 232.145 378.9 232.145H377.236Z" fill="white"/>
<path d="M378.9 254.432H377.236C376.248 254.432 375.43 253.614 375.43 252.627V251.442C375.43 250.454 376.248 249.636 377.236 249.636H378.9C379.888 249.636 380.706 250.454 380.706 251.442V252.627C380.706 253.614 379.888 254.432 378.9 254.432Z" fill="white"/>
<path d="M378.9 254.855H377.236C375.994 254.855 375.007 253.868 375.007 252.627V251.442C375.007 250.2 375.994 249.213 377.236 249.213H378.9C380.141 249.213 381.129 250.2 381.129 251.442V252.627C381.129 253.868 380.113 254.855 378.9 254.855ZM377.236 250.059C376.474 250.059 375.853 250.68 375.853 251.442V252.627C375.853 253.388 376.474 254.009 377.236 254.009H378.9C379.662 254.009 380.282 253.388 380.282 252.627V251.442C380.282 250.68 379.662 250.059 378.9 250.059H377.236Z" fill="white"/>
<path d="M398 235.614H396.335C395.348 235.614 394.53 234.796 394.53 233.809V232.624C394.53 231.636 395.348 230.818 396.335 230.818H398C398.987 230.818 399.805 231.636 399.805 232.624V233.809C399.805 234.796 398.987 235.614 398 235.614Z" fill="white"/>
<path d="M398 236.038H396.336C395.094 236.038 394.107 235.05 394.107 233.809V232.624C394.107 231.383 395.094 230.396 396.336 230.396H398C399.241 230.396 400.229 231.383 400.229 232.624V233.809C400.229 235.022 399.213 236.038 398 236.038ZM396.336 231.242C395.574 231.242 394.953 231.863 394.953 232.624V233.809C394.953 234.571 395.574 235.192 396.336 235.192H398C398.762 235.192 399.383 234.571 399.383 233.809V232.624C399.383 231.863 398.762 231.242 398 231.242H396.336Z" fill="white"/>
<path d="M398 254.432H396.335C395.348 254.432 394.53 253.614 394.53 252.627V251.442C394.53 250.454 395.348 249.636 396.335 249.636H398C398.987 249.636 399.805 250.454 399.805 251.442V252.627C399.805 253.614 398.987 254.432 398 254.432Z" fill="white"/>
<path d="M398 254.855H396.336C395.094 254.855 394.107 253.868 394.107 252.627V251.442C394.107 250.2 395.094 249.213 396.336 249.213H398C399.241 249.213 400.229 250.2 400.229 251.442V252.627C400.229 253.868 399.213 254.855 398 254.855ZM396.336 250.059C395.574 250.059 394.953 250.68 394.953 251.442V252.627C394.953 253.388 395.574 254.009 396.336 254.009H398C398.762 254.009 399.383 253.388 399.383 252.627V251.442C399.383 250.68 398.762 250.059 398 250.059H396.336Z" fill="white"/>
<path d="M397.182 240.833C394.784 240.833 392.16 240.72 390.919 240.438C389.79 240.184 389.564 239.563 389.593 239.112C389.593 238.886 389.621 238.181 389.621 237.278C389.79 225.74 390.044 225.486 390.524 225.063C391.539 224.16 398.084 224.047 401.893 225.937C404.291 227.122 405.335 230.536 405.814 233.216C406.238 235.727 406.322 238.745 405.984 239.535C405.758 240.071 405.504 240.636 399.015 240.777C398.423 240.805 397.802 240.833 397.182 240.833ZM391.539 238.548C393.712 238.971 402.09 238.915 404.15 238.463C404.291 236.545 403.811 229.125 400.99 227.715C398.028 226.247 393.345 226.304 391.962 226.558C391.708 228.307 391.596 234.993 391.567 237.307C391.567 237.814 391.567 238.238 391.539 238.548Z" fill="white"/>
<path d="M381.524 263.065C377.913 263.065 371.593 262.36 369.562 257.677C367.728 253.445 368.659 246.364 369.28 245.433C369.562 244.981 369.872 244.502 374.781 244.361C377.264 244.304 380.198 244.361 382.229 244.53C384.458 244.699 385.135 244.925 385.389 245.574C385.699 246.279 385.615 251.019 385.558 253.783C385.361 261.316 384.994 262.106 384.853 262.36C384.655 262.783 384.317 262.924 384.148 262.952C384.119 262.952 383.076 263.065 381.524 263.065ZM370.916 246.646C370.578 248.028 369.929 253.586 371.368 256.887C373.23 261.175 380.903 261.259 383.16 261.062C383.527 258.692 383.753 249.015 383.583 246.646C381.468 246.279 372.778 246.138 370.916 246.646Z" fill="white"/>
<path d="M390.749 250.623H390.721C390.185 250.595 389.733 250.144 389.762 249.608C389.79 248.677 389.79 247.887 389.79 247.21C389.79 245.32 389.79 244.614 390.298 244.106C390.664 243.74 390.749 243.655 400.313 243.824C400.849 243.824 401.3 244.276 401.272 244.84C401.272 245.376 400.821 245.799 400.285 245.799C400.285 245.799 400.285 245.799 400.256 245.799C396.927 245.743 393.203 245.715 391.765 245.743C391.736 246.138 391.736 246.674 391.736 247.21C391.736 247.887 391.736 248.705 391.708 249.664C391.708 250.2 391.285 250.623 390.749 250.623Z" fill="white"/>
<path d="M399.354 262.021C398.959 262.021 398.593 261.795 398.451 261.429C398.226 260.921 398.48 260.357 398.959 260.131C401.724 258.946 405.166 257.479 404.573 244.445C404.545 243.909 404.968 243.429 405.504 243.401C406.04 243.373 406.52 243.796 406.548 244.332C407.169 257.62 403.671 260.244 399.749 261.936C399.608 261.993 399.495 262.021 399.354 262.021Z" fill="white"/>
<path d="M392.64 262.642C390.891 262.642 390.157 262.472 389.847 261.795C389.65 261.372 389.621 260.667 389.593 257.197C389.593 256.463 389.565 255.645 389.565 254.799C389.565 254.263 389.988 253.811 390.524 253.783C391.06 253.783 391.512 254.206 391.54 254.742C391.54 255.589 391.568 256.407 391.568 257.169C391.596 258.523 391.596 259.905 391.653 260.639C392.358 260.695 393.684 260.667 394.333 260.639C394.699 260.639 395.01 260.61 395.236 260.61C395.772 260.61 396.223 261.062 396.223 261.598C396.223 262.134 395.772 262.585 395.236 262.585C395.038 262.585 394.756 262.585 394.389 262.613C393.712 262.642 393.12 262.642 392.64 262.642Z" fill="white"/>
<path d="M216.965 159.95C216.936 159.95 216.908 159.95 216.852 159.95C216.316 159.894 215.921 159.414 215.977 158.878C217.444 144.801 222.663 123.275 223.792 118.676C222.184 118.112 218.545 116.843 214.933 115.347C205.906 111.595 204.777 109.79 204.89 108.407C204.975 107.476 205.087 106.178 222.748 99.323C231.212 96.0222 239.76 93.0035 239.844 92.9753C240.352 92.806 240.917 93.06 241.114 93.5678C241.283 94.0756 241.029 94.6398 240.522 94.8373C225.259 100.226 208.84 106.743 206.921 108.661C207.175 109.113 208.614 110.608 216.09 113.683C220.66 115.573 225.203 117.068 225.259 117.096C225.739 117.266 226.021 117.774 225.908 118.281C225.851 118.535 219.56 143.475 217.924 159.104C217.896 159.584 217.472 159.95 216.965 159.95Z" fill="white"/>
<path d="M237.813 129.171C237.277 129.171 236.825 128.72 236.825 128.184C236.825 127.648 237.277 127.196 237.813 127.196C242.637 127.196 245.458 125.052 245.712 121.159C245.74 120.623 246.22 120.2 246.756 120.228C247.292 120.256 247.715 120.736 247.687 121.272C247.348 126.209 243.652 129.171 237.813 129.171Z" fill="white"/>
<path d="M248.478 169.514C248.449 169.514 248.393 169.514 248.365 169.514C247.829 169.458 247.434 168.978 247.49 168.414C248.224 161.643 249.268 153.518 250.594 144.265C252.314 132.133 253.894 122.344 253.894 122.231C253.979 121.751 254.402 121.385 254.882 121.413C258.126 121.469 260.947 121.328 263.261 120.962C268.085 120.2 269.665 118.761 270.173 117.971C270.511 117.435 270.596 116.843 270.398 116.222C269.778 114.162 262.95 112.357 253.81 112.949C253.274 112.978 252.794 112.583 252.766 112.018C252.738 111.482 253.133 111.003 253.697 110.974C261.822 110.467 271.104 111.708 272.317 115.658C272.683 116.843 272.514 117.999 271.865 119.043C270.652 120.962 267.887 122.287 263.599 122.936C261.371 123.275 258.747 123.444 255.728 123.416C255.305 126.04 253.979 134.503 252.568 144.575C251.271 153.8 250.227 161.897 249.493 168.64C249.409 169.147 248.985 169.514 248.478 169.514Z" fill="white"/>
<path d="M255.587 117.999C255.107 117.999 254.684 117.632 254.599 117.153C254.515 116.617 254.91 116.109 255.446 116.052C259.424 115.516 263.881 115.714 264.079 115.742C264.615 115.77 265.038 116.222 265.01 116.786C264.981 117.322 264.502 117.745 263.966 117.717C263.909 117.717 259.508 117.491 255.7 118.027C255.671 117.999 255.643 117.999 255.587 117.999Z" fill="white"/>
<path d="M254.091 95.7963C254.091 95.7963 261.059 92.5802 266.25 98.3636C272.288 105.163 265.771 112.385 265.63 112.611C261.793 111.849 257.505 111.821 257.505 111.821C257.928 118.704 255.107 119.776 253.894 119.607C252.652 119.438 253.104 117.012 253.104 117.012C235.81 111.031 241.198 96.3041 241.198 96.3041C237.926 97.6583 231.832 96.9248 231.691 96.9812C233.666 86.8814 249.634 88.0945 254.091 95.7963Z" fill="#4895EF"/>
<path d="M254.119 120.623C253.978 120.623 253.866 120.623 253.724 120.594C253.217 120.51 252.793 120.256 252.511 119.861C252.06 119.24 252.004 118.366 252.032 117.717C246.615 115.686 242.863 112.582 240.916 108.463C238.913 104.26 239.308 100.056 239.788 97.7711C236.938 98.3635 233.44 98.1096 232.114 98.025C231.945 98.025 231.804 97.9967 231.747 97.9967C231.494 98.025 231.24 97.9403 231.042 97.7711C230.76 97.5454 230.647 97.1786 230.704 96.8401C231.55 92.6365 234.71 89.7589 239.393 88.969C245.233 87.9815 251.552 90.4077 254.486 94.6113C256.602 93.9342 262.47 92.6647 266.984 97.7428C272.796 104.288 268.056 111.2 266.448 113.175L266.392 113.231C266.166 113.541 265.771 113.683 265.404 113.626C262.809 113.118 259.987 112.949 258.492 112.864C258.549 116.081 257.872 118.366 256.461 119.663C255.812 120.256 254.938 120.623 254.119 120.623ZM254.091 118.648C254.26 118.648 254.684 118.62 255.163 118.196C255.784 117.632 256.771 116.052 256.517 111.905C256.489 111.623 256.602 111.369 256.8 111.172C256.997 110.974 257.251 110.861 257.533 110.861C257.702 110.861 261.511 110.918 265.235 111.567C267.012 109.225 269.946 104.006 265.545 99.0406C260.918 93.8496 254.599 96.6708 254.543 96.699C254.091 96.9247 253.527 96.7272 253.273 96.304C250.988 92.3826 245.063 90.0128 239.76 90.8874C237.7 91.2259 234.23 92.3544 232.961 96.0783C234.851 96.1912 238.603 96.304 240.832 95.4013C241.198 95.2602 241.622 95.3448 241.904 95.5987C242.186 95.8809 242.27 96.2758 242.158 96.6426C242.129 96.699 240.183 102.229 242.75 107.617C244.556 111.397 248.167 114.247 253.471 116.081C253.922 116.25 254.204 116.701 254.119 117.209C253.978 117.745 253.978 118.394 254.091 118.648Z" fill="#4895EF"/>
<path d="M265.63 143.248C261.285 146.126 255.841 147.226 251.581 144.405C253.33 132.133 254.881 122.4 254.881 122.4C258.351 122.456 261.173 122.287 263.43 121.92C260.834 129.791 261.229 136.675 263.712 137.042C266.448 137.465 267.492 136.562 268.818 135.603C270.144 134.7 271.16 139.553 265.63 143.248Z" fill="#4895EF"/>
<path d="M257.223 147.058C254.994 147.058 252.878 146.465 251.044 145.252C250.734 145.055 250.565 144.66 250.621 144.293C252.342 132.162 253.922 122.372 253.922 122.259C254.007 121.78 254.43 121.413 254.909 121.441C258.154 121.498 260.975 121.357 263.288 120.99C263.627 120.933 263.965 121.075 264.191 121.328C264.417 121.582 264.473 121.949 264.388 122.288C262.301 128.635 262.301 133.939 263.373 135.688C263.542 135.942 263.711 136.111 263.881 136.14C266.025 136.478 266.871 135.886 268 135.068L268.282 134.87C268.761 134.532 269.297 134.475 269.805 134.701C270.426 134.983 270.821 135.716 270.905 136.676C271.046 138.566 269.89 141.669 266.222 144.124C263.204 146.07 260.1 147.058 257.223 147.058ZM252.652 143.926C256.122 145.901 260.721 145.365 265.094 142.459C268 140.541 268.677 138.453 268.818 137.663C268.874 137.325 268.902 137.042 268.874 136.845C267.661 137.72 266.335 138.509 263.542 138.086C263.006 138.002 262.273 137.691 261.652 136.732C260.185 134.362 260.354 128.917 262.019 123.162C260.157 123.36 258.041 123.473 255.699 123.444C255.304 125.983 254.035 134.137 252.652 143.926Z" fill="#4895EF"/>
<path d="M30.0042 71.1112C26.7316 71.1112 23.1205 70.9137 19.3401 70.688C16.7728 70.547 14.0927 70.4059 11.469 70.3213C10.9329 70.2931 10.5098 69.8417 10.5098 69.3056C10.538 68.7696 10.9894 68.3182 11.5254 68.3464C14.1773 68.4311 16.8574 68.5721 19.4247 68.7414C30.5966 69.3621 41.1761 69.9545 42.2481 64.9892C42.3892 64.3404 42.5584 63.5222 42.7559 62.5912C45.9721 47.3568 49.5268 31.4453 51.4452 28.7652C54.5485 24.3924 68.0338 27.9753 69.5572 28.3984C70.0932 28.5395 70.4036 29.0755 70.2343 29.6115C70.0932 30.1476 69.5572 30.4579 69.0212 30.2886C63.7738 28.8498 54.7742 27.4392 53.0251 29.9219C51.1067 32.6302 46.4235 54.6919 44.6743 63.0144C44.4769 63.9454 44.3076 64.7635 44.1665 65.4124C43.2073 70.0109 37.5932 71.1112 30.0042 71.1112Z" fill="white"/>
<path d="M20.5731 76.1075C22.1486 74.5321 22.1486 71.9777 20.5731 70.4022C18.9976 68.8268 16.4433 68.8268 14.8678 70.4022C13.2923 71.9777 13.2923 74.5321 14.8678 76.1075C16.4433 77.683 18.9976 77.683 20.5731 76.1075Z" fill="white"/>
<path d="M17.7324 77.7414C15.2779 77.7414 13.2749 75.7383 13.2749 73.2839C13.2749 70.8295 15.2779 68.8264 17.7324 68.8264C20.1868 68.8264 22.1899 70.8295 22.1899 73.2839C22.1899 75.7383 20.1868 77.7414 17.7324 77.7414ZM17.7324 69.6446C15.7293 69.6446 14.1213 71.2808 14.1213 73.2557C14.1213 75.2587 15.7575 76.8668 17.7324 76.8668C19.7354 76.8668 21.3435 75.2305 21.3435 73.2557C21.3435 71.2808 19.7354 69.6446 17.7324 69.6446Z" fill="white"/>
<path d="M35.3644 77.6846C37.5925 77.6846 39.3987 75.8783 39.3987 73.6503C39.3987 71.4222 37.5925 69.616 35.3644 69.616C33.1363 69.616 31.3301 71.4222 31.3301 73.6503C31.3301 75.8783 33.1363 77.6846 35.3644 77.6846Z" fill="white"/>
<path d="M35.3642 78.1073C32.9098 78.1073 30.9067 76.1043 30.9067 73.6499C30.9067 71.1954 32.9098 69.1924 35.3642 69.1924C37.8186 69.1924 39.8217 71.1954 39.8217 73.6499C39.8217 76.1043 37.8186 78.1073 35.3642 78.1073ZM35.3642 70.0105C33.3612 70.0105 31.7531 71.6468 31.7531 73.6216C31.7531 75.6247 33.3894 77.2328 35.3642 77.2328C37.339 77.2328 38.9753 75.5965 38.9753 73.6216C38.9753 71.6468 37.339 70.0105 35.3642 70.0105Z" fill="white"/>
<path d="M10.7069 59.0642C10.3402 59.0642 9.97342 59.0642 9.63488 59.0642C9.09885 59.0642 8.64746 58.6129 8.64746 58.0768C8.64746 57.5408 9.09885 57.0894 9.63488 57.0894C18.6627 57.1458 44.5894 56.497 44.8433 56.4688C45.3793 56.4688 45.8307 56.8919 45.8589 57.428C45.8589 57.964 45.4357 58.4154 44.8997 58.4436C44.6458 58.4718 20.5811 59.0642 10.7069 59.0642Z" fill="white"/>
<path d="M49.5834 38.1595C47.9189 38.1595 9.09931 37.8774 1.67959 37.1721C1.14356 37.1156 0.7486 36.636 0.776812 36.1C0.833236 35.564 1.31283 35.169 1.84886 35.1972C9.15574 35.9025 49.1602 36.1846 49.5834 36.1846C50.1194 36.1846 50.5708 36.636 50.5708 37.1721C50.5708 37.7081 50.1476 38.1595 49.5834 38.1595Z" fill="white"/>
<path d="M11.6108 58.7543C11.3286 58.7543 11.0183 58.6133 10.849 58.3876C8.62029 55.5946 3.20361 43.3507 3.20361 36.3541C3.20361 35.8181 3.655 35.3667 4.19103 35.3667C4.72705 35.3667 5.17844 35.8181 5.17844 36.3541C5.17844 42.73 10.4259 54.6636 12.4007 57.1745C12.7392 57.5977 12.6546 58.2183 12.2314 58.5569C12.0621 58.6979 11.8365 58.7543 11.6108 58.7543Z" fill="white"/>
<path d="M27.071 48.2033C21.09 48.2033 14.1499 48.2033 6.75841 48.2033C6.22239 48.2033 5.771 47.752 5.771 47.2159C5.771 46.6799 6.22239 46.2285 6.75841 46.2285C28.7919 46.2567 46.9603 46.2285 47.1578 46.2285C47.6938 46.2285 48.1452 46.6799 48.1452 47.2159C48.1452 47.752 47.6938 48.2033 47.1578 48.2033C47.0168 48.2033 38.9482 48.2033 27.071 48.2033Z" fill="white"/>
<path d="M20.2153 58.7542C19.7639 58.7542 19.3407 58.4157 19.2561 57.9643C17.9301 50.9113 18.6354 37.3414 18.6636 36.749C18.6918 36.2129 19.1432 35.7898 19.7075 35.818C20.2435 35.8462 20.6667 36.3258 20.6384 36.8618C20.6384 37.0029 19.9049 50.7703 21.2027 57.5975C21.3155 58.1336 20.9488 58.6414 20.4127 58.7542C20.3281 58.7542 20.2717 58.7542 20.2153 58.7542Z" fill="white"/>
<path d="M34.4618 58.4437C33.954 58.4437 33.5026 58.0487 33.4743 57.5409C33.4743 57.4563 32.7973 47.8642 34.0386 36.918C34.095 36.382 34.6028 35.987 35.1389 36.0435C35.6749 36.0999 36.0698 36.6077 36.0134 37.1437C34.7721 47.8924 35.4492 57.3152 35.4492 57.3998C35.4774 57.9359 35.0824 58.4155 34.5464 58.4437C34.5182 58.4437 34.49 58.4437 34.4618 58.4437Z" fill="white"/>
<path d="M273.191 303.266C272.598 303.266 272.034 303.21 271.526 303.125C270.99 303.041 270.623 302.533 270.708 301.997C270.792 301.461 271.3 301.094 271.836 301.179C275.306 301.715 282.811 300.473 294.349 285.888C316.185 258.297 322.477 242.554 318.33 225.712C313.872 207.6 293.08 195.356 286.817 192.027C283.516 190.278 276.689 186.131 269.438 181.701C260.749 176.426 249.972 169.881 248.42 169.486C248.11 169.514 247.49 169.768 246.812 170.078C244.132 171.235 239.111 173.407 230.111 171.178C221.563 169.091 219.419 164.859 218.008 162.038C217.472 160.966 217.049 160.147 216.456 159.781C214.087 158.342 191.433 156.452 186.044 156.339H185.48C176.621 156.17 168.299 155.492 167.396 151.712C166.916 149.653 165.703 147.847 160.202 148.693C157.973 149.032 156.478 148.778 155.491 147.875C154.362 146.831 154.306 145.167 154.419 143.672C154.475 143.051 154.616 141.133 151.456 140.851L151.287 140.822C148.184 140.568 147.253 139.44 147.083 132.641C146.942 127.478 134.839 116.137 129.028 110.692C127.194 108.971 125.868 107.73 125.276 107.053C123.498 104.993 114.668 102.652 109.364 101.946C108.828 101.862 108.433 101.382 108.518 100.846C108.602 100.31 109.082 99.9151 109.618 99.9997C113.906 100.564 124.204 102.821 126.771 105.783C127.279 106.376 128.661 107.673 130.382 109.281C139.325 117.66 148.917 127.083 149.058 132.613C149.143 135.716 149.397 137.522 149.848 138.283C150.102 138.706 150.356 138.791 151.456 138.876L151.626 138.904C154.813 139.186 156.591 141.02 156.393 143.841C156.28 145.28 156.422 146.07 156.845 146.436C157.324 146.888 158.368 146.972 159.92 146.747C161.923 146.436 167.988 145.534 169.343 151.261C169.427 151.656 170.161 152.953 175.549 153.715C179.047 154.223 183.11 154.308 185.564 154.336H186.129C189.514 154.392 214.312 156.113 217.528 158.06C218.601 158.709 219.165 159.809 219.814 161.107C221.14 163.73 222.973 167.341 230.619 169.203C238.998 171.263 243.427 169.345 246.079 168.188C247.095 167.765 247.828 167.426 248.533 167.454C249.775 167.483 254.825 170.445 270.51 179.952C277.733 184.353 284.56 188.5 287.804 190.221C294.265 193.635 315.649 206.274 320.304 225.176C324.621 242.695 318.245 258.889 295.957 287.044C285.604 300.135 278.071 303.266 273.191 303.266Z" fill="white"/>
<path d="M255.925 281.769C255.502 281.769 255.107 281.487 254.966 281.064C253.019 274.237 253.442 272.657 255.248 269.469C255.953 268.256 258.436 265.293 261.624 261.513C266.984 255.137 275.081 245.545 276.125 242.019C277.648 236.884 275.589 229.549 250.593 210.873C250.17 210.534 250.057 209.942 250.395 209.49C250.734 209.067 251.326 208.954 251.778 209.293C276.294 227.602 279.99 235.84 278.015 242.555C276.858 246.448 269.269 255.504 263.147 262.754C260.157 266.309 257.589 269.356 256.997 270.4C255.445 273.108 255.107 274.152 256.912 280.471C257.053 281.007 256.771 281.543 256.235 281.685C256.094 281.769 256.01 281.769 255.925 281.769Z" fill="white"/>
<path d="M181.531 204.582C181.503 204.582 181.446 204.582 181.418 204.582C176.65 203.989 134.389 198.29 120.057 185.792C104.061 171.828 87.9237 131.823 87.7826 131.428C86.2028 127.394 86.0053 124.093 86.9927 117.886C87.0773 117.35 87.5852 116.984 88.1212 117.068C88.6572 117.153 89.024 117.661 88.9393 118.197C88.0083 124.065 88.1494 126.999 89.6164 130.723C89.7575 131.118 105.697 170.643 121.355 184.325C135.235 196.457 176.96 202.042 181.672 202.635C182.208 202.691 182.603 203.199 182.518 203.735C182.462 204.215 182.01 204.582 181.531 204.582Z" fill="white"/>
<path d="M170.865 224.273C170.696 224.273 170.498 224.217 170.357 224.132C169.906 223.85 169.737 223.229 170.019 222.778C172.163 219.279 182.912 201.308 185.564 190.108C185.676 189.572 186.212 189.234 186.748 189.375C187.284 189.488 187.595 190.024 187.482 190.56C184.774 202.07 173.856 220.295 171.711 223.822C171.514 224.104 171.175 224.273 170.865 224.273Z" fill="white"/>
<path d="M265.573 307.78C264.924 307.78 263.57 307.78 256.235 298.95C253.921 296.157 249.295 290.317 249.069 289.443C248.279 286.424 253.611 281.487 255.276 280.048C255.501 279.851 255.783 279.766 256.066 279.822C256.348 279.851 256.602 280.02 256.743 280.246C260.241 285.549 269.861 299.712 272.259 301.489C272.485 301.658 272.626 301.884 272.654 302.166C272.682 302.448 272.598 302.702 272.428 302.9C271.751 303.718 268.253 307.78 265.573 307.78ZM250.959 288.85C251.354 289.555 254.288 293.477 257.73 297.652C263.739 304.903 265.347 305.721 265.601 305.805C266.758 305.749 268.817 303.943 270.284 302.364C266.786 298.753 258.294 286.17 255.727 282.305C253.132 284.703 250.79 287.693 250.959 288.85Z" fill="white"/>
<path d="M231.663 330.125C230.93 330.125 230.337 329.899 229.942 329.447C229.378 328.827 229.265 327.924 229.66 326.711C228.193 327.557 226.67 328.15 225.682 327.783C225.09 327.557 224.723 327.078 224.582 326.401C224.159 323.974 226.557 321.294 229.124 318.473C230.789 316.611 232.509 314.693 233.102 313.169C234.005 310.743 234.23 308.937 234.23 308.035C234.174 308.063 234.118 308.091 234.061 308.091C230.535 309.445 226.613 310.828 224.61 309.812C224.018 309.502 223.623 309.022 223.454 308.401C222.833 306.088 227.036 303.323 235.839 297.737C240.522 294.775 245.854 291.418 249.437 288.399C249.86 288.061 250.48 288.089 250.819 288.512C251.158 288.935 251.129 289.556 250.706 289.894C247.01 292.998 241.622 296.411 236.882 299.402C233.779 301.377 230.845 303.21 228.673 304.79C225.767 306.906 225.4 307.696 225.372 307.894C225.4 307.95 225.428 307.978 225.513 308.035C226.924 308.74 231.776 306.85 233.384 306.229C234.287 305.89 234.541 305.778 234.766 305.778C235.161 305.749 235.556 305.919 235.81 306.257C236.713 307.442 236.008 311.025 234.964 313.846C234.259 315.736 232.397 317.796 230.619 319.771C228.644 321.943 226.444 324.426 226.529 325.921C227.347 325.836 229.717 324.482 231.72 322.874C232.086 322.564 232.651 322.592 232.989 322.902C233.356 323.241 233.412 323.777 233.158 324.172C231.325 326.993 231.409 327.924 231.437 328.093C231.635 328.15 232.51 328.178 234.315 327.275C234.71 327.078 235.218 327.162 235.5 327.501C235.641 327.67 235.895 327.896 236.459 327.924C238.914 328.009 243.794 324.087 246.277 321.605C246.644 321.238 247.208 321.21 247.603 321.52C247.998 321.83 248.082 322.394 247.8 322.818C247.039 324.031 245.995 326.203 246.192 327.078V327.106C247.095 326.795 249.832 324.68 254.289 319.827C258.549 315.172 262.471 310.066 264.756 306.229C265.038 305.749 265.63 305.608 266.11 305.891C266.589 306.173 266.731 306.765 266.448 307.245C263.994 311.364 259.678 316.95 255.135 321.83C247.377 330.181 245.91 329.335 245.289 328.968C244.782 328.658 244.415 328.178 244.274 327.585C244.161 327.106 244.189 326.598 244.274 326.034C241.904 327.924 238.773 329.983 236.375 329.927C235.697 329.899 235.105 329.701 234.597 329.363C233.441 329.871 232.453 330.125 231.663 330.125Z" fill="white"/>
<path d="M232.312 324.651C232.029 324.651 231.747 324.538 231.55 324.313C231.183 323.89 231.24 323.269 231.663 322.93C235.669 319.488 239.788 314.862 240.493 313.536C240.747 313.056 241.339 312.859 241.819 313.141C242.299 313.395 242.496 313.987 242.214 314.467C241.311 316.131 236.967 320.955 232.904 324.425C232.763 324.595 232.537 324.651 232.312 324.651Z" fill="white"/>
<path d="M234.737 329.193C234.427 329.193 234.116 329.052 233.919 328.77C233.608 328.318 233.721 327.698 234.173 327.387C239.392 323.804 244.696 317.118 244.752 317.062C245.091 316.639 245.711 316.554 246.135 316.892C246.558 317.231 246.642 317.852 246.304 318.275C246.078 318.557 240.746 325.271 235.301 328.995C235.132 329.136 234.934 329.193 234.737 329.193Z" fill="white"/>
<path d="M246.925 323.325C246.7 323.325 246.474 323.241 246.277 323.071C245.853 322.705 245.825 322.084 246.192 321.689C246.784 320.984 247.461 320.166 247.772 319.742C247.969 319.488 248.59 318.699 249.352 319.263C249.662 319.488 249.972 320.053 249.549 320.673C249.521 320.73 249.465 320.786 249.408 320.814C249.38 320.843 249.352 320.871 249.323 320.927C248.985 321.35 248.336 322.225 247.687 322.959C247.49 323.212 247.208 323.325 246.925 323.325Z" fill="white"/>
<path d="M135.432 282.334C134.924 282.334 134.501 281.939 134.444 281.431C134.247 279.174 133.288 267.099 132.469 252.062C131.99 243.006 131.821 236.743 134.049 232.145C136.476 227.095 141.638 224.556 150.779 223.935C157.917 223.427 171.571 222.242 187.398 220.86C211.547 218.744 241.593 216.092 258.802 215.077C259.338 215.048 259.818 215.472 259.846 216.008C259.874 216.544 259.451 217.023 258.915 217.051C241.734 218.067 211.717 220.691 187.567 222.835C171.74 224.217 158.086 225.43 150.92 225.91C142.569 226.502 137.943 228.675 135.855 233.019C133.852 237.166 134.021 243.232 134.473 251.949C135.291 266.958 136.25 279.005 136.419 281.262C136.476 281.798 136.052 282.277 135.516 282.334C135.488 282.334 135.46 282.334 135.432 282.334Z" fill="white"/>
<path d="M137.492 323.099C133.317 323.099 130.834 322.083 129.762 320.052C126.01 312.774 126.574 292.405 127.985 286.029C129.48 279.258 134.812 280.161 138.705 280.809C139.015 280.866 139.297 280.922 139.608 280.951C143.445 281.571 161.444 278.411 168.299 276.691C172.305 275.675 175.832 274.97 178.286 276.634C179.979 277.763 180.966 279.85 181.446 283.179C182.18 288.511 182.857 297.116 183.393 308.006C183.647 313.451 180.289 314.579 170.556 316.441C168.215 316.892 165.055 317.711 161.416 318.67C155.35 320.25 148.466 322.027 142.626 322.817C140.652 322.986 138.959 323.099 137.492 323.099ZM129.903 286.424C128.436 293.082 128.267 312.83 131.511 319.121C132.188 320.419 134.614 321.773 142.316 320.757C148.043 319.996 154.87 318.247 160.88 316.667C164.575 315.708 167.763 314.889 170.161 314.41C180.543 312.435 181.559 311.448 181.39 308.034C180.854 297.201 180.205 288.681 179.471 283.377C179.104 280.697 178.343 279.004 177.186 278.214C175.578 277.114 172.982 277.48 168.779 278.553C162.459 280.161 143.67 283.546 139.297 282.869C138.987 282.813 138.677 282.756 138.395 282.728C133.768 281.966 130.919 281.825 129.903 286.424Z" fill="white"/>
<path d="M166.381 360.17C144.827 360.17 140.821 353.935 140.031 348.603C139.325 343.948 137.999 333.115 137.379 322.169C137.351 321.633 137.774 321.153 138.31 321.125C138.846 321.097 139.325 321.52 139.354 322.056C139.974 332.918 141.3 343.666 142.006 348.293C142.4 350.973 143.726 354.33 150.582 356.39C159.13 358.957 174.026 358.76 194.846 355.741C215.751 352.722 242.919 348.378 266.928 344.541C292.234 340.507 314.07 337.008 321.602 336.19C335.567 334.667 343.41 332.946 341.971 315.172C340.561 297.878 334.552 235.728 332.746 222.496C331.053 210.168 326.709 209.039 310.318 209.942C309.782 209.97 309.302 209.547 309.274 209.011C309.245 208.475 309.669 207.995 310.205 207.967C318.894 207.488 324.311 207.6 328.035 209.519C331.759 211.465 333.705 215.133 334.664 222.214C336.498 235.474 342.507 297.681 343.918 315.003C345.47 334.187 336.611 336.557 321.8 338.165C314.324 338.983 292.488 342.481 267.21 346.516C243.23 350.352 216.033 354.697 195.1 357.716C183.11 359.437 173.744 360.17 166.381 360.17Z" fill="white"/>
<path d="M166.126 305.411C162.064 305.411 158.763 302.11 158.763 298.047C158.763 293.985 162.064 290.684 166.126 290.684C170.189 290.684 173.49 293.985 173.49 298.047C173.49 302.11 170.189 305.411 166.126 305.411ZM166.126 292.659C163.164 292.659 160.738 295.085 160.738 298.047C160.738 301.01 163.164 303.436 166.126 303.436C169.089 303.436 171.515 301.01 171.515 298.047C171.515 295.085 169.089 292.659 166.126 292.659Z" fill="white"/>
<path d="M237.813 289.273C233.75 289.273 230.449 285.973 230.449 281.91C230.449 277.848 233.75 274.547 237.813 274.547C241.875 274.547 245.176 277.848 245.176 281.91C245.176 285.973 241.875 289.273 237.813 289.273ZM237.813 276.522C234.85 276.522 232.424 278.948 232.424 281.91C232.424 284.872 234.85 287.299 237.813 287.299C240.775 287.299 243.201 284.872 243.201 281.91C243.201 278.948 240.775 276.522 237.813 276.522Z" fill="white"/>
<path d="M227.29 275.281C227.177 275.281 227.036 275.252 226.924 275.196C226.416 274.998 226.162 274.406 226.388 273.898C227.516 271.105 230.648 268.933 234.766 268.058C238.744 267.212 244.274 267.551 247.885 271.021C248.28 271.387 248.28 272.036 247.913 272.403C247.546 272.798 246.898 272.798 246.531 272.431C244.02 270.005 239.562 269.046 235.19 269.977C231.72 270.71 229.124 272.459 228.221 274.632C228.052 275.055 227.685 275.281 227.29 275.281Z" fill="white"/>
<path d="M224.327 267.042C224.215 267.042 224.102 267.014 223.989 266.986C223.481 266.788 223.227 266.224 223.396 265.716C224.779 262.049 228.644 259.228 233.75 258.156C239.646 256.943 245.458 258.438 248.928 262.049C249.295 262.444 249.295 263.065 248.9 263.431C248.505 263.798 247.884 263.798 247.518 263.403C243.935 259.679 238.264 259.228 234.173 260.074C229.801 260.977 226.387 263.403 225.258 266.365C225.117 266.788 224.751 267.042 224.327 267.042Z" fill="white"/>
<path d="M218.262 260.13C218.121 260.13 217.98 260.102 217.867 260.046C217.359 259.82 217.134 259.228 217.359 258.748C219.109 254.798 223.792 251.723 230.168 250.313C238.547 248.479 247.208 250.115 252.201 254.516C252.624 254.883 252.653 255.504 252.286 255.899C251.919 256.322 251.298 256.35 250.903 255.983C246.361 252.005 238.377 250.51 230.591 252.231C224.92 253.472 220.632 256.209 219.165 259.538C218.996 259.905 218.629 260.13 218.262 260.13Z" fill="white"/>
<path d="M87.7826 119.353C87.5569 119.353 87.303 119.297 87.0491 119.127C85.4692 118.253 80.4193 111.538 81.4067 108.492C83.0148 103.47 97.4028 94.2728 105.076 93.37C105.725 93.2854 106.741 93.5675 108.575 96.3605C109.477 97.7147 110.437 99.492 110.578 100.479C110.747 101.495 110.098 101.918 109.675 102.003C107.7 102.426 91.7887 115.262 88.6571 118.958C88.4597 119.184 88.1493 119.353 87.7826 119.353ZM105.161 95.3731C97.7696 96.3323 84.5382 105.163 83.2687 109.14C82.7608 110.749 86.1181 115.855 87.6415 117.181C91.0551 113.626 104.371 102.426 108.518 100.395C108.01 98.9842 106.007 95.8245 105.161 95.3731Z" fill="white"/>
<path d="M80.6451 102.257C80.4758 102.257 80.3066 102.201 80.1373 102.116C77.4007 100.536 75.7362 96.8403 75.8773 92.6932C75.9619 90.3798 76.5826 88.3768 77.6828 86.8533C73.4511 87.1354 66.7648 87.0508 65.8339 83.5807C64.6207 79.0668 72.7458 76.8381 80.6169 74.6658C81.1247 74.5247 81.6325 74.3837 82.1121 74.2426C80.363 68.3181 78.0214 61.8576 76.9775 61.1241C76.6108 60.842 75.9901 60.5034 75.2848 60.0803C72.2944 58.2747 67.2727 55.2842 66.652 51.3346C66.257 48.7673 66.9623 46.6232 68.5422 45.5793C69.7835 44.7894 71.3352 44.8176 72.6329 45.664C73.2818 46.0872 74.8617 46.9899 76.7236 48.062C84.4255 52.4913 88.2059 54.7764 88.9112 55.9049C89.8986 57.4848 102.763 90.5491 104.202 94.3295C104.399 94.8373 104.146 95.4015 103.638 95.599C103.13 95.7965 102.566 95.5426 102.368 95.0348C96.6976 80.421 87.9802 58.1901 87.2467 56.9487C86.5414 55.9895 79.2627 51.786 75.7644 49.7829C73.8178 48.6544 72.2662 47.7799 71.5609 47.3285C70.912 46.9053 70.1785 46.8771 69.6143 47.2438C68.7115 47.8363 68.3165 49.2469 68.5986 51.0242C69.0782 54.0711 73.5921 56.7795 76.3005 58.3875C77.034 58.8389 77.6829 59.2057 78.1342 59.5442C80.2783 61.0959 83.3816 71.5343 84.2844 74.694C84.3691 74.9479 84.3126 75.23 84.1998 75.4557C84.0587 75.6814 83.8612 75.8507 83.6073 75.9353C82.8174 76.161 81.9993 76.3867 81.1247 76.6124C75.5105 78.1641 67.0188 80.4774 67.7241 83.1011C68.2883 85.2452 75.6798 85.2735 80.4758 84.6246C80.9554 84.5682 81.4068 84.8503 81.5479 85.3017C81.6889 85.7531 81.4632 86.2609 81.0401 86.4866C79.1499 87.4175 77.9368 89.7873 77.8239 92.7778C77.7111 96.135 79.0088 99.2101 81.0965 100.423C81.5761 100.705 81.7171 101.298 81.4632 101.777C81.3222 102.088 80.9836 102.257 80.6451 102.257Z" fill="white"/>
<path d="M82.3375 109.79C82.281 109.79 82.2246 109.79 82.1682 109.761C80.0241 109.395 75.8487 107.053 72.3787 103.47C69.3036 100.282 65.636 94.9783 65.7207 87.8407C65.7207 87.3047 66.1721 86.8533 66.7081 86.8533C67.2441 86.8533 67.6955 87.3047 67.6955 87.8407C67.6109 94.3012 70.9681 99.1536 73.7893 102.088C77.1747 105.586 80.8987 107.533 82.4785 107.815C83.0145 107.899 83.3813 108.407 83.2967 108.943C83.212 109.451 82.7888 109.79 82.3375 109.79Z" fill="white"/>
<path d="M74.6917 78.4461C74.3249 78.4461 73.9864 78.2486 73.7889 77.8818C71.673 73.5372 70.347 67.923 72.8861 65.1301C73.9864 63.9452 76.1869 62.9013 80.6162 64.6222C81.124 64.8197 81.3779 65.384 81.1804 65.8918C80.9829 66.3996 80.4187 66.6535 79.9109 66.456C78.0489 65.7225 75.5662 65.1301 74.3531 66.456C72.8579 68.0923 73.3375 72.4369 75.5662 77.0073C75.7919 77.4869 75.5945 78.0793 75.1149 78.3332C74.9738 78.4178 74.8327 78.4461 74.6917 78.4461Z" fill="white"/>
<path d="M68.6538 81.0697C68.3435 81.0697 68.0049 80.9005 67.8357 80.6183C65.5787 77.1765 64.2245 71.9855 66.1993 69.1643C67.0175 67.9794 68.7384 66.7663 72.3213 67.6127C72.8574 67.7255 73.1677 68.2615 73.0548 68.7976C72.942 69.3336 72.406 69.6439 71.8699 69.5311C69.8669 69.0515 68.5127 69.3054 67.8074 70.2928C66.4533 72.2394 67.5817 76.6405 69.4719 79.5181C69.7823 79.9695 69.6412 80.5901 69.1898 80.8723C69.0488 81.0133 68.8513 81.0697 68.6538 81.0697Z" fill="white"/>
<path d="M69.9243 89.7309C68.1187 89.7309 65.8618 88.8282 63.4074 87.0508C59.9373 84.54 58.2446 79.5747 59.7962 76.4149C60.3323 75.3429 62.025 73.0013 66.4824 74.3273C67.0185 74.4683 67.3006 75.0326 67.1595 75.5686C66.9903 76.1046 66.4542 76.3867 65.9182 76.2457C64.3948 75.7943 62.3917 75.5968 61.5454 77.3177C60.5297 79.3772 61.63 83.3833 64.5358 85.471C67.8084 87.8407 70.0371 88.0664 70.9399 87.5304C71.3913 87.2765 71.5888 86.7405 71.5042 86.007C71.4477 85.4709 71.8427 84.9913 72.3787 84.9349C72.9148 84.8785 73.3943 85.2735 73.4508 85.8095C73.5918 87.3329 73.0276 88.5742 71.8991 89.2513C71.3913 89.5617 70.7142 89.7309 69.9243 89.7309Z" fill="white"/>
<path d="M13.0492 233.95C6.98361 233.95 5.7705 232.116 4.89593 228.674C3.79566 224.301 3.00573 218.885 1.53872 205.484C1.5105 205.146 1.48229 204.835 1.42587 204.525L1.2566 203.086C0.918056 199.955 0.635938 197.5 0.579515 195.525C0.410243 189.798 2.13117 187.852 8.22493 186.893C25.5752 184.156 48.9629 182.068 57.7932 181.278C58.6678 181.194 59.4013 181.137 59.9655 181.081C64.8744 180.629 67.5827 182.322 69.0779 186.751C69.7268 188.67 70.15 191.181 70.4321 194.481L70.4603 194.764C70.5168 195.3 70.0936 195.779 69.5575 195.836C69.0215 195.892 68.5419 195.469 68.4855 194.933L68.4573 194.651C68.2034 191.519 67.7802 189.149 67.1877 187.4C65.9746 183.846 64.1409 182.717 60.1066 183.056C59.5423 183.112 58.837 183.169 57.9342 183.253C49.1321 184.043 25.7727 186.103 8.50705 188.839C3.37249 189.657 2.38507 190.758 2.52613 195.469C2.58256 197.359 2.86467 199.814 3.20322 202.889L3.37249 204.327C3.4007 204.638 3.45712 204.976 3.48533 205.287C4.92414 218.574 5.71408 223.935 6.78613 228.195C7.6607 231.608 8.1403 233.499 26.7883 230.452C27.3244 230.367 27.8322 230.734 27.9168 231.27C28.0015 231.806 27.6347 232.314 27.0987 232.398C20.6946 233.442 16.2089 233.95 13.0492 233.95Z" fill="white"/>
<path d="M69.4447 194.538C58.4138 196.033 23.2618 200.773 2.32862 203.735C1.93365 200.265 1.62332 197.585 1.56689 195.469C16.6885 193.748 55.7619 188.67 68.1469 187.062C68.7676 188.924 69.1908 191.35 69.4447 194.538Z" fill="white"/>
<path d="M2.32797 204.158C2.24333 204.158 2.13048 204.13 2.07405 204.074C1.98942 204.017 1.933 203.904 1.90479 203.791L1.82015 203.03C1.48161 199.926 1.19949 197.444 1.14307 195.497C1.14307 195.272 1.31233 195.102 1.50982 195.074C17.2803 193.268 59.7391 187.739 68.0616 186.667C68.2591 186.639 68.4566 186.752 68.513 186.949C69.1337 188.811 69.5851 191.294 69.839 194.538C69.8672 194.764 69.6979 194.961 69.4722 194.989L69.2183 195.018C57.8207 196.569 23.1201 201.252 2.35617 204.186C2.38439 204.158 2.35618 204.158 2.32797 204.158ZM2.01764 195.864C2.10227 197.726 2.35618 200.039 2.69472 202.945L2.72293 203.284C23.4587 200.378 57.5104 195.751 68.9926 194.199C68.7387 191.406 68.372 189.234 67.836 187.541C58.8082 188.698 17.8727 194.03 2.01764 195.864Z" fill="white"/>
<path d="M12.5133 215.725C11.7234 215.725 11.0745 215.669 10.5949 215.584C10.2846 215.528 9.35358 215.302 9.04325 214.484C8.76113 213.694 8.30974 212.114 8.02762 210.704C7.51981 208.164 7.71729 207.318 8.16868 206.839C9.49464 205.428 17.5068 204.525 20.4126 204.779C21.6257 204.892 22.2746 205.146 22.6132 205.682C23.4595 206.951 24.8419 211.973 23.2056 213.666C22.1054 214.738 16.0962 215.725 12.5133 215.725ZM10.8206 213.609C12.4005 214.23 20.6665 213.045 21.795 212.227C22.2746 211.635 21.7668 208.164 21.0333 206.839C20.4973 206.641 18.466 206.556 15.2781 206.923C12.2312 207.29 10.2564 207.826 9.69212 208.108C9.60748 208.954 10.2281 211.86 10.8206 213.609ZM8.87398 207.459L9.57927 208.136L8.87398 207.459Z" fill="white"/>
<path d="M145.56 271.895C145.052 271.895 144.601 271.5 144.572 270.964C144.46 269.073 144.318 267.211 144.177 265.378L144.065 263.939C144.036 263.403 144.431 262.923 144.967 262.895C145.503 262.867 145.983 263.262 146.011 263.798L146.124 265.237C146.265 267.07 146.406 268.932 146.519 270.851C146.547 271.387 146.152 271.866 145.588 271.895C145.616 271.895 145.588 271.895 145.56 271.895ZM144.657 257.817C144.121 257.817 143.698 257.394 143.67 256.858C143.613 255.644 143.585 254.544 143.585 253.529C143.585 252.118 143.641 250.877 143.726 249.692C143.754 249.156 144.234 248.733 144.798 248.789C145.334 248.817 145.757 249.297 145.701 249.861C145.616 250.99 145.56 252.174 145.56 253.529C145.56 254.516 145.588 255.588 145.616 256.801C145.644 257.337 145.221 257.817 144.657 257.817C144.685 257.817 144.657 257.817 144.657 257.817ZM146.237 243.937C146.096 243.937 145.955 243.908 145.842 243.852C145.334 243.626 145.137 243.034 145.362 242.554C146.152 240.805 147.253 239.423 148.607 238.435C149.171 238.012 149.904 237.617 150.751 237.25C151.259 237.025 151.823 237.279 152.049 237.758C152.274 238.266 152.02 238.83 151.541 239.056C150.835 239.366 150.243 239.677 149.763 240.015C148.663 240.833 147.789 241.934 147.14 243.372C146.97 243.711 146.604 243.937 146.237 243.937ZM157.945 237.25C157.465 237.25 157.07 236.912 156.986 236.432C156.901 235.896 157.24 235.388 157.776 235.275C159.835 234.909 162.233 234.57 164.857 234.288C165.393 234.232 165.872 234.627 165.929 235.163C165.985 235.699 165.59 236.178 165.054 236.235C162.487 236.489 160.145 236.827 158.142 237.194C158.058 237.25 158.001 237.25 157.945 237.25ZM171.994 235.755C171.486 235.755 171.035 235.36 171.007 234.824C170.979 234.288 171.402 233.808 171.938 233.78C175.323 233.583 178.032 233.526 179.047 233.526C179.047 233.526 179.047 233.526 179.075 233.526C179.612 233.526 180.063 233.95 180.063 234.486C180.063 235.022 179.64 235.473 179.104 235.501C178.116 235.529 175.436 235.558 172.079 235.755C172.023 235.755 171.994 235.755 171.994 235.755Z" fill="white"/>
<path d="M296.72 328.685C296.212 328.685 295.789 328.319 295.732 327.811C295.676 327.275 296.071 326.767 296.607 326.711C298.977 326.428 301.318 326.146 303.604 325.836C304.14 325.751 304.647 326.146 304.704 326.682C304.788 327.218 304.393 327.726 303.857 327.783C301.572 328.093 299.202 328.375 296.833 328.657C296.804 328.657 296.776 328.685 296.72 328.685ZM310.741 326.823C310.262 326.823 309.838 326.485 309.754 325.977C309.669 325.441 310.036 324.933 310.572 324.849C313.167 324.454 315.509 324.059 317.512 323.664C318.048 323.551 318.556 323.918 318.669 324.454C318.782 324.99 318.415 325.497 317.879 325.61C315.847 326.005 313.506 326.4 310.882 326.795C310.854 326.823 310.798 326.823 310.741 326.823ZM324.593 324.002C324.17 324.002 323.803 323.748 323.662 323.325C323.493 322.817 323.775 322.253 324.283 322.084C324.65 321.971 324.988 321.83 325.27 321.717C326.963 321.012 328.063 319.883 328.74 318.162C328.938 317.655 329.502 317.401 330.01 317.598C330.518 317.796 330.772 318.36 330.574 318.868C329.7 321.125 328.233 322.648 326.032 323.551C325.693 323.692 325.327 323.833 324.904 323.974C324.791 323.974 324.678 324.002 324.593 324.002ZM330.574 312.548C330.038 312.548 329.587 312.125 329.587 311.561C329.558 309.699 329.417 307.414 329.135 304.621C329.079 304.085 329.474 303.605 330.01 303.549C330.546 303.492 331.025 303.887 331.082 304.423C331.364 307.273 331.533 309.614 331.533 311.561C331.562 312.097 331.138 312.548 330.574 312.548ZM329.276 298.499C328.797 298.499 328.374 298.132 328.289 297.652C328.007 295.536 327.696 293.251 327.358 290.825L327.33 290.684C327.245 290.148 327.64 289.64 328.176 289.584C328.712 289.499 329.22 289.894 329.276 290.43L329.305 290.571C329.643 292.997 329.953 295.283 330.236 297.427C330.32 297.963 329.925 298.47 329.389 298.527C329.361 298.499 329.333 298.499 329.276 298.499Z" fill="white"/>
<path d="M172.982 348.123C170.302 348.095 167.904 347.954 165.816 347.7C165.28 347.643 164.885 347.136 164.97 346.6C165.026 346.064 165.534 345.669 166.07 345.753C168.073 346.007 170.386 346.148 172.982 346.176C173.518 346.176 173.969 346.628 173.969 347.164C173.969 347.672 173.518 348.123 172.982 348.123ZM180.006 347.897C179.499 347.897 179.047 347.502 179.019 346.966C178.991 346.43 179.414 345.951 179.95 345.923C181.502 345.838 183.166 345.697 184.915 345.556C185.451 345.499 185.931 345.923 185.987 346.459C186.044 346.995 185.621 347.474 185.085 347.531C183.335 347.7 181.643 347.813 180.063 347.897C180.063 347.897 180.035 347.897 180.006 347.897ZM159.158 345.951C159.017 345.951 158.876 345.923 158.763 345.866C156.167 344.709 154.334 343.073 153.149 340.844C152.895 340.365 153.064 339.772 153.544 339.518C154.023 339.265 154.616 339.434 154.87 339.913C155.857 341.719 157.381 343.073 159.553 344.061C160.061 344.286 160.286 344.879 160.061 345.358C159.891 345.725 159.525 345.951 159.158 345.951ZM152.274 334.581C151.766 334.581 151.343 334.186 151.287 333.679C151.146 332.042 151.089 330.321 151.033 328.488C151.005 327.867 151.005 327.218 150.976 326.569C150.948 326.033 151.371 325.554 151.936 325.554C152.472 325.525 152.951 325.949 152.951 326.513C152.979 327.162 152.979 327.811 153.008 328.431C153.064 330.237 153.121 331.929 153.233 333.509C153.29 334.045 152.867 334.525 152.331 334.581C152.331 334.581 152.302 334.581 152.274 334.581Z" fill="white"/>
<path d="M74.95 218.878C78.2539 218.09 80.2937 214.773 79.5061 211.469C78.7184 208.165 75.4014 206.125 72.0975 206.913C68.7936 207.701 66.7538 211.018 67.5415 214.322C68.3292 217.626 71.6461 219.665 74.95 218.878Z" fill="#38A1FF"/>
<path d="M73.5351 220.042C69.6136 220.042 66.3975 216.854 66.3975 212.904C66.3975 208.983 69.5854 205.767 73.5351 205.767C77.4847 205.767 80.6727 208.955 80.6727 212.904C80.6727 216.854 77.4565 220.042 73.5351 220.042ZM73.5351 207.741C70.6857 207.741 68.3723 210.055 68.3723 212.904C68.3723 215.754 70.6857 218.067 73.5351 218.067C76.3845 218.067 78.6978 215.754 78.6978 212.904C78.6978 210.055 76.3845 207.741 73.5351 207.741Z" fill="white"/>
<path d="M82.0836 217.644C81.999 217.644 81.9144 217.644 81.8297 217.644C77.9083 217.503 74.805 214.202 74.946 210.28C75.0871 206.359 78.3879 203.256 82.3093 203.397C86.2308 203.538 89.3341 206.839 89.193 210.76C89.0802 214.597 85.8923 217.644 82.0836 217.644ZM76.9209 210.309C76.8644 211.691 77.3723 212.989 78.3033 214.004C79.2342 215.02 80.532 215.584 81.8862 215.641C83.2685 215.697 84.5663 215.189 85.5819 214.258C86.5975 213.327 87.1618 212.03 87.2182 210.675C87.3028 207.826 85.0741 205.428 82.2247 205.343C79.4035 205.23 77.0055 207.487 76.9209 210.309Z" fill="white"/>
<path d="M80.4468 226.643C80.0519 226.643 79.6569 226.389 79.5158 225.966C79.3466 225.458 79.6005 224.893 80.1365 224.696C85.2146 222.947 89.2771 221.593 89.3054 221.593C89.8132 221.423 90.3774 221.706 90.5467 222.213C90.716 222.721 90.4338 223.285 89.926 223.455C89.8978 223.455 85.8353 224.809 80.7854 226.558C80.6725 226.614 80.5597 226.643 80.4468 226.643Z" fill="white"/>
<path d="M67.3845 231.269C66.9895 231.269 66.6227 231.044 66.4817 230.649C66.2842 230.141 66.5099 229.577 67.0177 229.351C68.4283 228.758 69.7543 228.222 70.9392 227.715C72.519 227.066 74.2964 226.36 76.1866 225.599C76.6944 225.401 77.2586 225.655 77.4561 226.163C77.6536 226.671 77.3997 227.235 76.8919 227.433C75.0017 228.166 73.2525 228.9 71.6727 229.548C70.4878 230.028 69.1618 230.592 67.7512 231.185C67.6384 231.241 67.4973 231.269 67.3845 231.269Z" fill="white"/>
<path d="M53.9849 236.968C53.5899 236.968 53.2514 236.743 53.0821 236.376C52.8564 235.868 53.0821 235.304 53.5899 235.078C56.3547 233.865 59.4862 232.539 62.6459 231.213C63.1538 230.988 63.718 231.241 63.9437 231.749C64.1694 232.257 63.9155 232.821 63.4077 233.047C60.2479 234.373 57.1446 235.727 54.3799 236.912C54.2388 236.94 54.0977 236.968 53.9849 236.968Z" fill="white"/>
<path d="M43.0109 241.934C42.6442 241.934 42.3056 241.736 42.1364 241.398C41.8825 240.918 42.0799 240.326 42.5878 240.072C44.224 239.254 47.0452 237.956 50.9667 236.235C51.4745 236.009 52.0387 236.235 52.2644 236.743C52.4901 237.251 52.2644 237.815 51.7566 238.041C47.8634 239.733 45.0986 241.031 43.4623 241.821C43.293 241.906 43.152 241.934 43.0109 241.934Z" fill="white"/>
</svg>
