<svg width="465" height="465" viewBox="0 0 465 465" fill="none" xmlns="http://www.w3.org/2000/svg">
<path d="M245.089 82.6666C246.525 81.8063 248.224 81.497 249.871 81.7961C251.518 82.0952 253 82.9824 254.041 84.2926C256.829 87.3727 256.682 91.9232 256.39 95.886C256.243 97.059 258.15 97.2053 258.297 96.1786C260.285 86.2322 255.096 80.0371 248.905 80.0371C248.047 80.0496 247.2 80.2383 246.417 80.5915C245.634 80.9447 244.932 81.4549 244.355 82.0905C244.279 82.1878 244.244 82.3115 244.259 82.4344C244.274 82.5572 244.337 82.6692 244.434 82.7456C244.531 82.822 244.655 82.8565 244.778 82.8417C244.901 82.8269 245.013 82.7639 245.089 82.6666Z" fill="#38A1FF"/>
<path d="M261.23 87.5086C261.683 88.833 261.93 90.2187 261.964 91.6178V93.8175C261.964 94.5515 261.674 95.4435 262.113 96.0196C262.223 96.18 262.386 96.297 262.574 96.3504C262.761 96.4038 262.961 96.3903 263.139 96.3123C263.874 95.8733 263.874 94.9929 263.874 94.2589C264.035 91.8755 263.735 89.4835 262.991 87.2136C262.138 84.0704 260.219 81.3213 257.562 79.4367C257.121 79.144 256.389 79.7294 256.682 80.3171C258.671 82.3801 260.219 84.8271 261.23 87.5086Z" fill="#38A1FF"/>
<path d="M266.81 86.3343C268.389 90.9405 266.512 93.0706 267.1 94.2599C267.135 94.3587 267.19 94.4493 267.262 94.5257C267.334 94.6022 267.421 94.663 267.517 94.7043C267.614 94.7455 267.718 94.7663 267.823 94.7654C267.928 94.7645 268.031 94.7418 268.127 94.6989C269.302 93.9649 269.451 91.6188 269.451 90.2855C269.54 87.9099 268.97 85.5561 267.805 83.4842C266.639 81.4123 264.923 79.7031 262.847 78.5458C262.113 78.1044 261.525 79.2798 262.113 79.7072C264.303 81.3998 265.938 83.7072 266.81 86.3343Z" fill="#38A1FF"/>
<path d="M270.477 85.4539C270.741 86.3182 270.937 87.2021 271.062 88.0973C271.062 93.4097 272.825 91.57 272.825 89.7233V88.0973C272.721 86.9939 272.474 85.9086 272.091 84.8686C271.321 82.8321 270.06 81.017 268.421 79.5841C268.304 79.4687 268.146 79.4042 267.982 79.4048C267.817 79.4054 267.66 79.4709 267.544 79.5871C267.427 79.7033 267.362 79.8608 267.361 80.0251C267.361 80.1895 267.425 80.3474 267.541 80.4644C268.898 81.8738 269.904 83.5832 270.477 85.4539Z" fill="#38A1FF"/>
<path d="M217.794 181.881C220.732 187.897 225.278 194.501 231.882 196.995C233.092 196.995 237.28 195.476 240.688 194.796C266.954 189.792 287.354 195.92 307.182 188.71C311.768 187.163 316.037 184.803 319.786 181.741H319.932C320.959 181.888 321.254 179.98 320.227 179.834C317.433 179.389 314.803 178.226 312.594 176.459C306.555 171.632 303.79 161.825 303.79 153.711C303.414 133.096 311.516 97.8443 301.735 78.2835C302.083 77.7608 301.853 77.0082 299.988 77.3172C298.462 77.5704 297.377 78.8201 274.436 84.7503C273.702 84.899 273.995 86.072 274.729 85.9257C283.3 84.5854 299.677 80.2022 300.85 79.0268C305.444 95.8745 305.031 105.661 303.052 128.629C301.398 147.154 299.393 158.16 304.812 170.013C305.911 172.67 307.587 175.049 309.72 176.977C311.852 178.906 314.386 180.335 317.14 181.163C312.995 183.73 308.562 185.8 303.932 187.328C287.772 192.266 269.15 189.316 250.955 191.277C247.58 191.572 244.204 192.157 240.829 192.745C237.719 193.204 234.699 194.145 231.877 195.532C229.636 193.729 227.528 191.767 225.568 189.662C223.481 187.443 221.751 184.914 220.439 182.164C213.647 169.228 214.168 154.675 215.301 140.046C215.889 132.12 218.53 92.1951 218.53 90.2973C228.893 91.082 239.305 90.9351 249.642 89.8583C251.108 89.7096 252.576 89.2706 254.044 88.9756C254.192 88.9473 254.323 88.8638 254.412 88.7422C254.5 88.6205 254.539 88.4698 254.52 88.3205C254.502 88.1713 254.427 88.0347 254.311 87.9385C254.196 87.8423 254.048 87.7937 253.898 87.8025C252.283 87.9489 250.815 87.9489 249.201 88.0952C247.733 88.2439 246.267 88.3902 244.945 88.3902C235.858 89.0667 226.731 89.0178 217.652 88.2439C217.478 88.2336 217.304 88.2747 217.153 88.362C217.002 88.4493 216.88 88.5789 216.802 88.7349C216.724 88.8909 216.693 89.0664 216.714 89.2396C216.734 89.4129 216.805 89.5763 216.918 89.7096C216.205 93.993 213.552 135.005 213.396 137.844C212.219 152.959 211.199 168.364 217.794 181.881Z" fill="white"/>
<path d="M271.062 103.212C266.368 106.438 264.019 111.869 262.259 117.149C259.764 112.747 256.684 108.345 251.692 106.436C242.888 102.915 235.697 110.694 236.577 119.351C237.457 127.423 243.474 134.32 249.353 139.455C253.499 143.285 258.138 146.543 263.148 149.142C263.295 149.876 264.175 150.61 264.909 149.729C269.45 144.018 273.863 138.285 278.4 132.561C282.951 126.691 288.388 120.087 288.967 112.457C289.626 102.232 279.301 97.6301 271.062 103.212Z" fill="#38A1FF"/>
<path d="M286.619 148.997C286.61 148.789 286.529 148.589 286.39 148.433C286.252 148.277 286.064 148.173 285.858 148.138C285.652 148.104 285.44 148.141 285.258 148.243C285.076 148.346 284.935 148.508 284.858 148.702C282.659 154.721 280.601 160.737 278.401 166.753C278.083 165.98 277.79 165.196 277.52 164.405C277.081 163.524 275.613 163.524 275.613 164.7C275.613 166.753 272.092 166.326 270.77 166.607C269.788 166.805 268.875 167.26 268.127 167.926C267.834 167.046 267.69 166.166 267.395 165.139C267.333 164.954 267.215 164.793 267.057 164.679C266.899 164.565 266.709 164.503 266.514 164.503C266.319 164.503 266.128 164.565 265.97 164.679C265.812 164.793 265.694 164.954 265.632 165.139C264.63 167.91 263.845 170.756 263.286 173.65C263.14 166.753 262.847 160.003 262.698 153.106C262.685 152.881 262.595 152.668 262.443 152.501C262.291 152.334 262.087 152.224 261.864 152.19C261.641 152.155 261.413 152.198 261.218 152.311C261.023 152.424 260.872 152.601 260.791 152.811C259.524 158.229 257.805 163.53 255.653 168.66C255.216 167.341 254.921 166.166 254.492 164.846C254.197 163.966 252.877 163.819 252.729 164.846C252.436 167.046 250.527 169.541 248.032 168.368C247.81 168.267 247.561 168.241 247.323 168.294C247.085 168.346 246.871 168.475 246.712 168.66C246.42 169.248 246.273 169.689 245.978 170.286C245.655 169.091 245.263 167.915 244.805 166.765C244.513 166.031 243.337 166.326 243.045 167.058C242.133 170.433 241.446 173.865 240.989 177.332C240.404 169.701 239.962 161.922 239.962 154.291C239.967 154.092 239.9 153.898 239.774 153.743C239.647 153.589 239.47 153.485 239.274 153.45C239.078 153.414 238.876 153.45 238.704 153.551C238.532 153.651 238.402 153.81 238.336 153.998C237.164 157.244 236.281 160.586 235.695 163.987C235.544 166.458 234.999 168.888 234.081 171.188C233.639 170.161 233.2 168.988 232.761 167.959C232.466 167.227 231.293 167.227 231.293 168.107C231.293 168.841 229.386 170.307 228.943 170.454C228.357 170.602 225.716 170.602 224.994 170.749C224.863 170.792 224.754 170.884 224.689 171.006C224.625 171.128 224.61 171.27 224.647 171.402C224.685 171.535 224.773 171.648 224.892 171.717C225.011 171.787 225.152 171.808 225.286 171.775C227.047 171.483 228.664 172.363 230.278 171.483C230.976 171.214 231.586 170.756 232.039 170.161C232.478 171.041 232.773 171.922 233.2 172.948C233.233 173.066 233.297 173.174 233.385 173.259C233.473 173.345 233.582 173.406 233.701 173.436C233.82 173.466 233.945 173.464 234.063 173.43C234.181 173.396 234.288 173.332 234.373 173.243C236.429 171.041 236.575 167.959 237.014 165.171C237.307 163.264 237.748 161.504 238.19 159.596C238.247 168.766 238.786 177.926 239.804 187.039C239.951 188.214 241.711 188.36 241.711 187.039C241.97 181.547 242.756 176.092 244.06 170.751C244.325 171.614 244.521 172.497 244.645 173.392C244.794 174.272 245.967 174.272 246.408 173.685C247.032 172.757 247.572 171.775 248.02 170.751C249.078 170.983 250.182 170.881 251.18 170.461C252.178 170.04 253.022 169.321 253.595 168.402C254.034 169.564 254.329 170.751 254.756 172.07C254.81 172.248 254.913 172.407 255.052 172.529C255.191 172.652 255.362 172.733 255.545 172.764C255.728 172.794 255.916 172.773 256.088 172.703C256.26 172.632 256.408 172.516 256.517 172.365C258.249 168.388 259.767 164.322 261.068 160.184C261.36 168.11 261.507 175.887 261.946 183.812C261.946 184.028 262.031 184.235 262.184 184.387C262.336 184.54 262.543 184.625 262.759 184.625C262.974 184.625 263.181 184.54 263.334 184.387C263.486 184.235 263.572 184.028 263.572 183.812C263.967 178.822 264.952 173.895 266.505 169.136C266.634 169.791 266.83 170.43 267.091 171.044C267.386 171.924 268.717 171.924 268.852 171.044C269.442 168.402 272.083 168.844 274.136 168.549C275.018 168.401 275.836 167.992 276.484 167.376C276.779 168.256 277.218 169.136 277.511 170.017C277.573 170.202 277.691 170.363 277.849 170.477C278.008 170.591 278.198 170.652 278.393 170.652C278.588 170.652 278.778 170.591 278.936 170.477C279.094 170.363 279.213 170.202 279.274 170.017C281.181 164.735 283.088 159.304 284.995 154.022C285.583 163.559 286.157 172.951 286.758 182.491C286.775 182.732 286.883 182.957 287.06 183.122C287.236 183.287 287.469 183.379 287.711 183.379C287.952 183.379 288.185 183.287 288.362 183.122C288.539 182.957 288.646 182.732 288.663 182.491C289.284 177.012 290.215 171.574 291.451 166.2C292.9 165.918 294.379 165.82 295.852 165.908C296.105 165.966 296.371 165.922 296.591 165.784C296.811 165.647 296.968 165.428 297.027 165.175C297.085 164.922 297.041 164.656 296.903 164.436C296.766 164.216 296.547 164.059 296.294 164.001C294.572 164 292.854 164.147 291.158 164.44C289.251 164.44 288.517 171.339 288.075 173.099C287.499 164.691 287.06 156.921 286.619 148.997Z" fill="white"/>
<path d="M151.318 57.5727C151.611 58.4531 152.345 59.1987 152.932 58.1604C153.518 56.985 151.318 46.1257 151.169 45.099C151.023 44.5113 150.008 44.6576 150.008 45.2453C150.289 47.4474 151.169 56.8387 151.318 57.5727Z" fill="#38A1FF"/>
<path d="M153.959 45.832C154.252 46.7123 154.839 47.4464 155.425 47.3C156.893 46.8587 155.866 43.4836 154.544 43.9226C153.959 44.0713 153.81 44.9516 153.959 45.832Z" fill="#38A1FF"/>
<path d="M144.126 47.4444C144.419 48.3271 145.006 49.0704 145.592 48.9125C147.06 48.4734 146.033 45.0983 144.711 45.5373C144.546 45.6224 144.4 45.7397 144.28 45.8823C144.161 46.0249 144.071 46.1898 144.017 46.3675C143.962 46.5452 143.944 46.7321 143.963 46.917C143.981 47.1019 144.037 47.2813 144.126 47.4444Z" fill="#38A1FF"/>
<path d="M142.951 63.0016C144.24 65.0759 145.445 68.4324 148.235 68.8714C151.169 69.3128 152.93 67.1107 154.544 65.0573C154.985 64.4696 153.959 63.5892 153.382 64.1769C150.871 67.1037 148.351 68.5625 146.486 65.2036C146.196 64.6295 145.852 64.085 145.457 63.5776C147.32 63.7111 149.193 63.6128 151.032 63.2849C153.065 62.9905 155.043 62.3964 156.902 61.5219C157.343 61.2292 157.197 60.7902 156.755 60.4952C156.314 60.2002 155.129 60.7902 154.553 60.7902C151.046 61.6164 147.427 61.8635 143.84 61.5219C143.667 61.5228 143.496 61.5683 143.346 61.6541C143.195 61.7399 143.069 61.863 142.979 62.0117C142.89 62.1603 142.84 62.3295 142.835 62.5028C142.83 62.6762 142.87 62.848 142.951 63.0016Z" fill="#38A1FF"/>
<path d="M96.2838 285.768C95.5637 285.768 94.8761 286.995 95.8448 287.383C100.135 289.062 106.147 290.428 111.547 292.223C112.372 292.472 113.336 292.86 114.307 293.099C116.221 293.564 116.451 293.534 121.25 292.46C121.482 292.407 157.387 283.778 157.626 283.715C158.532 283.483 158.371 281.963 158.067 281.659C156.622 280.395 149.884 278.735 148.079 278.284C146.274 277.833 144.555 277.257 142.648 276.816C142.312 277.431 141.865 277.979 141.329 278.43L147.491 280.193C150.546 280.955 153.946 282.247 154.534 282.393C151.893 282.981 129.735 288.117 126.36 288.997C123.131 289.877 119.903 290.611 116.674 291.784C115.064 290.372 100.604 286.848 98.3883 286.426C101.15 285.673 103.466 285.032 106.402 284.3C109.19 283.566 112.123 282.978 114.913 282.244C114.913 281.94 114.992 282.291 113.886 280.63C107.922 281.99 102.043 283.706 96.2838 285.768Z" fill="white"/>
<path d="M137.081 277.257C137.23 276.669 137.23 276.081 137.376 275.496C135.636 275.496 121.961 279.018 119.618 279.605C119.829 280.235 120.013 281.319 120.059 281.366C122.407 280.778 124.756 280.193 127.102 279.74C130.331 278.871 133.706 278.137 137.081 277.257Z" fill="white"/>
<path d="M135.615 271.095C136.531 271.388 137.461 271.633 138.403 271.829C138.549 271.387 138.695 270.8 138.842 270.361C137.882 270.046 136.902 269.801 135.908 269.626C135.87 269.549 135.816 269.48 135.751 269.424C135.686 269.367 135.61 269.324 135.529 269.297C135.447 269.269 135.36 269.259 135.274 269.265C135.188 269.271 135.104 269.295 135.027 269.334C130.672 270.233 117.506 273.383 117.271 273.441C117.453 274.052 117.698 274.643 118.003 275.204C118.942 274.934 133.085 271.708 135.615 271.095Z" fill="white"/>
<path d="M136.054 292.078C134.164 291.89 132.256 292.141 130.479 292.812C129.014 293.544 127.25 294.866 128.131 296.761C129.306 299.549 133.269 298.522 135.469 297.79C136.735 297.464 137.866 296.744 138.698 295.735C140.163 293.252 138.403 292.234 136.054 292.078Z" fill="white"/>
<path d="M151.464 288.996C149.586 288.706 147.665 288.908 145.889 289.582C145.343 289.755 144.839 290.04 144.409 290.419C143.979 290.798 143.634 291.263 143.394 291.784C143.296 292.121 143.267 292.475 143.311 292.824C143.354 293.173 143.469 293.509 143.648 293.812C143.827 294.115 144.066 294.378 144.35 294.585C144.634 294.792 144.958 294.938 145.301 295.015C146.794 295.336 148.34 295.304 149.818 294.922C151.295 294.539 152.663 293.817 153.812 292.813C155.863 290.316 153.954 289.321 151.464 288.996Z" fill="white"/>
<path d="M161.589 289.731C163.624 290.071 165.713 289.816 167.606 288.997C170.834 287.676 172.154 283.861 167.752 283.274C165.736 283.014 163.689 283.373 161.882 284.303C159.413 285.945 158.558 289.058 161.589 289.731Z" fill="white"/>
<path d="M149.703 298.683C148.235 299.268 146.474 299.71 144.86 300.297C144.713 300.444 140.75 302.351 142.511 302.497H142.657C144.126 302.643 151.61 301.617 150.876 299.417C150.853 299.288 150.804 299.166 150.731 299.057C150.659 298.949 150.564 298.857 150.453 298.788C150.342 298.719 150.218 298.674 150.089 298.655C149.96 298.637 149.828 298.647 149.703 298.683Z" fill="white"/>
<path d="M158.651 298.094C161.366 297.656 164.024 296.917 166.576 295.892C166.78 295.747 166.932 295.541 167.011 295.304C167.09 295.067 167.091 294.811 167.015 294.573C165.988 292.37 159.531 295.892 158.065 296.48C157.861 296.564 157.697 296.724 157.607 296.927C157.518 297.13 157.51 297.359 157.586 297.567C157.661 297.775 157.814 297.946 158.012 298.044C158.211 298.142 158.439 298.16 158.651 298.094Z" fill="white"/>
<path d="M174.796 292.96C177.583 293.545 181.4 291.933 183.895 290.906C184.334 290.758 184.48 290.024 184.334 289.582C184.255 289.352 184.09 289.162 183.872 289.053C183.655 288.943 183.404 288.923 183.172 288.997C180.106 289.23 177.139 290.185 174.513 291.784C174.062 292.077 174.355 292.811 174.796 292.96Z" fill="white"/>
<path d="M283.832 215.181C244.228 230.537 205.152 255.301 154.693 272.121C154.56 272.178 154.452 272.28 154.388 272.409C154.324 272.539 154.308 272.687 154.343 272.827C154.378 272.967 154.463 273.09 154.58 273.173C154.698 273.257 154.842 273.296 154.986 273.283C194.872 262.597 229.301 240.203 278.109 219.857C293.17 213.585 306.169 209.764 322.28 209.144C339.227 208.74 356.087 211.69 371.889 217.824C373.051 218.263 373.504 216.356 372.475 215.915C358.416 210.258 343.454 207.176 328.303 206.816C313.072 206.629 297.955 209.472 283.832 215.181Z" fill="white"/>
<path d="M411.945 324.069C408.929 324.963 406.024 326.194 403.285 327.739C386.096 336.798 377.734 344.062 361.316 348.877C341.274 354.389 324.417 351.079 307.165 351.079C292.169 351.079 284.889 352.97 275.76 357.534C267.688 361.643 251.547 370.891 251.4 370.891C253.723 356.384 247.505 337.806 240.251 325.105C234.042 314.254 225.277 305.084 214.718 298.392C213.542 297.66 212.369 297.073 211.048 296.339C211.241 295.182 211.332 294.011 211.319 292.838C211.299 292.004 210.929 291.944 210.634 291.855C206.146 290.506 146.444 272.555 145.594 272.271C145.446 272.418 144.86 273.593 144.565 273.884C150.435 275.647 206.353 292.522 206.934 292.671C187.441 297.101 149.722 307.337 145.741 308.666C145.462 308.573 89.337 290.754 72.5125 286.367C76.034 285.633 106.117 278.297 111.253 276.978C110.96 276.39 110.668 275.949 110.373 275.352C110.08 275.352 69.4301 285.623 69.1374 285.918C68.725 287.27 68.3815 288.641 68.1084 290.027C59.4511 291.349 52.7009 299.714 51.3838 303.53C46.6894 305.145 32.7476 310.866 30.3992 311.746C28.5038 312.328 26.7186 313.221 25.117 314.39C25.0145 314.503 24.9472 314.643 24.923 314.794C24.8989 314.945 24.919 315.1 24.9809 315.239C25.0429 315.379 25.144 315.498 25.2721 315.581C25.4001 315.664 25.5496 315.709 25.7023 315.709C28.7848 315.416 65.3256 300.887 67.9783 299.86C68.2733 300.006 74.2895 302.062 77.077 302.942C119.862 316.095 147.313 322.731 145.601 322.313C150.377 325.358 154.893 328.794 159.102 332.584C167.777 340.767 174.412 350.872 178.472 362.085C182.69 372.77 185.877 385.906 183.315 397.011C180.265 408.904 170.221 415.362 159.39 420.937C129.357 436.628 123.33 438.59 94.6726 451.598C93.9386 451.891 94.3799 453.224 95.2603 452.918C126.716 441.111 157.427 424.154 160.709 422.686C160.796 422.838 160.926 422.96 161.083 423.038C161.24 423.117 161.416 423.147 161.589 423.125C167.52 423.391 173.409 422.02 178.611 419.162C194.307 413.369 209.273 407.943 222.931 400.526C235.768 393.771 248.483 387.255 251.398 372.651C259.856 369.841 275.337 358.589 286.181 355.332C311.874 348.092 341.388 362.203 375.401 346.09C387.996 339.955 392.493 335.404 412.823 325.249C412.825 324.657 412.539 323.913 411.945 324.069ZM209.429 293.842C209.429 293.988 209.136 296.19 209.136 296.336C206.2 296.924 147.648 312.036 146.187 312.478C146.26 311.452 146.26 310.423 146.187 309.398C150.142 308.515 205.173 294.866 209.429 293.842ZM69.5765 298.255C69.7228 297.375 70.6032 287.105 70.6032 287.105C79.4091 289.749 143.98 309.405 144.419 309.56C143.98 311.186 143.392 318.218 143.246 319.978C143.014 319.96 71.9783 299.114 69.5765 298.241V298.255ZM239.807 387.039C235.309 390.859 230.325 394.066 224.985 396.577C205.166 406.751 204.105 406.5 183.601 414.927C184.481 413.898 185.51 412.872 186.242 411.843C198.016 395.736 198.699 361.458 170.542 330.543C164.385 323.349 156.85 317.461 148.382 313.226C151.775 312.427 204.16 299.166 210.17 297.377C220.541 303.582 229.373 312.056 236.002 322.162C242.305 332.264 246.64 343.467 248.778 355.181C249.903 360.953 249.852 366.893 248.629 372.644C247.298 378.256 244.207 383.296 239.807 387.025V387.039Z" fill="white"/>
<path d="M439.534 288.117C434.92 284.349 429.84 281.193 424.419 278.725C413.322 273.539 401.275 270.693 389.03 270.365C376.785 270.036 364.604 272.232 353.244 276.816C352.218 277.257 352.952 279.018 353.978 278.577C367.819 273.169 382.785 271.277 397.536 273.07C412.288 274.863 426.364 280.285 438.507 288.851C439.253 289.29 439.975 288.409 439.534 288.117Z" fill="white"/>
<path d="M337.394 250.253C336.233 250.548 336.806 252.162 337.833 252.014C349.199 249.305 360.796 247.684 372.469 247.173C383.034 246.888 393.566 248.477 403.577 251.867C406.292 252.814 408.94 253.942 411.503 255.245C414.172 256.517 416.768 257.937 419.279 259.498C419.721 259.793 420.014 259.205 419.574 258.912C415.477 255.56 410.87 252.884 405.928 250.987C401.007 248.991 395.892 247.516 390.664 246.585C374.058 243.219 353.289 245.918 337.394 250.253Z" fill="white"/>
<path d="M332.698 225.16C326.476 225.872 320.393 227.504 314.65 230.003C314.208 230.296 314.504 230.737 314.943 230.737C318.501 230.342 323.883 228.684 330.938 227.508C347.077 224.937 363.577 225.787 379.367 230.003C385.248 231.768 391.114 233.676 396.977 236.019C397.562 236.314 398.152 235.434 397.562 235.139C395.067 233.977 392.572 232.644 390.08 231.617C371.845 224.49 352.061 222.264 332.698 225.16Z" fill="white"/>
<path d="M70.4568 175.705C72.6588 182.602 75.2999 189.352 78.0873 196.102C81.1698 203.586 84.2522 211.219 87.481 218.704C95.1046 236.376 110.031 270.22 119.913 286.793C120.059 286.942 120.498 286.942 120.352 286.647C117.418 279.311 114.043 272.266 110.668 265.075C107.29 257.737 87.3323 213.126 81.1675 197.865C78.5264 191.554 76.0316 185.089 73.3905 178.788C78.1234 181.873 83.2587 184.292 88.6517 185.977C125.081 198.121 158.999 191.942 181.984 175.851C179.343 182.016 176.995 188.179 174.5 194.341C171.712 201.387 153.956 243.502 147.645 257.291C144.124 265.068 140.444 272.854 137.225 280.917C137.079 281.209 137.52 281.358 137.666 281.065C145.117 267.748 151.829 254.03 157.771 239.974C163.935 226.181 178.609 189.786 180.07 185.677C181.676 182.283 183.096 178.805 184.326 175.257C185.06 171.882 183.591 170.121 183.164 166.746C181.631 157.24 181.042 147.606 181.403 137.984C186.548 140.906 192.013 143.22 197.691 144.881C201.361 145.615 206.79 146.642 209.872 143.705C209.975 143.581 210.043 143.431 210.068 143.271C210.093 143.111 210.074 142.948 210.014 142.798C209.954 142.648 209.854 142.517 209.726 142.419C209.598 142.32 209.445 142.259 209.285 142.24C208.123 142.386 207.083 142.825 205.909 142.974C199.893 144.135 193.877 141.652 188.446 139.45C186.054 138.585 183.746 137.505 181.55 136.221C181.696 133.141 182.576 117.146 182.723 112.156C182.73 112.085 182.721 112.013 182.699 111.945C182.676 111.876 182.639 111.814 182.591 111.761C182.543 111.707 182.484 111.665 182.418 111.636C182.352 111.607 182.281 111.592 182.209 111.592C182.138 111.592 182.067 111.607 182.001 111.636C181.935 111.665 181.876 111.707 181.828 111.761C181.78 111.814 181.743 111.876 181.72 111.945C181.697 112.013 181.689 112.085 181.696 112.156C179.494 131.668 176.999 143.266 182.43 173.203C160.501 187.634 133.83 192.999 108.027 188.172C108.175 185.823 108.027 183.621 108.175 181.275C108.61 157.143 113.355 127.478 111.265 104.384C111.269 104.324 111.261 104.263 111.241 104.206C111.221 104.148 111.189 104.096 111.148 104.052C111.106 104.007 111.056 103.972 111.001 103.947C110.945 103.923 110.885 103.911 110.825 103.911C110.764 103.911 110.704 103.923 110.648 103.947C110.593 103.972 110.543 104.007 110.501 104.052C110.46 104.096 110.428 104.148 110.408 104.206C110.388 104.263 110.38 104.324 110.384 104.384C109.56 128.198 105.251 175.32 105.983 187.738C94.9466 185.531 80.7006 181.856 71.9364 174.962C71.6747 173.656 71.5271 172.33 71.4951 170.999C71.7065 149.134 70.4428 123.613 84.5565 105.843C92.5595 96.1499 103.554 89.3882 115.815 86.6189C119.92 85.7851 124.101 85.3911 128.289 85.4435C128.867 90.3587 134.519 97.678 141.936 99.5317C144.423 100.206 147.064 100.022 149.434 99.0105C151.803 97.999 153.763 96.2187 154.997 93.9568C156.702 90.3365 157.555 86.3738 157.49 82.3727C168.221 81.9082 173.961 83.7223 183.905 91.9104C186.53 94.0126 207.796 111.348 207.531 111.134C206.65 112.31 203.863 115.977 203.568 116.565C203.175 117.133 202.923 117.787 202.834 118.472C202.856 118.647 202.944 118.806 203.082 118.915C203.219 119.025 203.393 119.077 203.568 119.06C204.198 118.807 204.757 118.404 205.194 117.885C205.782 117.299 213.556 106.145 214.293 104.825C214.585 104.384 213.854 103.65 213.412 104.238C212.386 105.411 211.359 106.44 210.479 107.613C209.993 108.291 209.453 108.929 208.864 109.52C206.729 107.643 192.746 95.9823 186.116 90.8837C180.95 86.9209 175.678 82.9581 169.22 81.3437C160.858 79.2903 153.078 82.3727 150.584 81.6387C148.674 81.051 148.528 73.8595 148.528 73.2764C150.409 73.5665 152.33 73.4689 154.172 72.9895C156.015 72.5102 157.74 71.6592 159.241 70.489C160.471 69.5177 161.447 68.263 162.085 66.8321C162.724 65.4013 163.007 63.8369 162.909 62.273C162.832 60.2411 162.537 58.2233 162.028 56.2545C161.589 54.2011 160.121 47.1559 159.829 45.8365C166.579 45.2488 167.313 40.113 166.284 36.8842C167.194 35.627 167.607 34.0779 167.445 32.5345C167.282 30.9911 166.555 29.5621 165.404 28.5219C167.459 24.4128 165.991 21.0377 162.028 20.011C163.204 16.6359 160.855 12.3804 155.72 14.5802C155.461 13.8436 155.003 13.1927 154.399 12.699C153.794 12.2053 153.064 11.888 152.291 11.7819C151.517 11.6758 150.73 11.785 150.014 12.0975C149.299 12.4101 148.683 12.9138 148.235 13.5535C147.599 12.8625 146.808 12.3329 145.927 12.0084C145.045 11.684 144.1 11.5739 143.167 11.6874C142.235 11.8009 141.343 12.1347 140.566 12.6611C139.788 13.1875 139.147 13.8915 138.695 14.7149C137.71 14.1466 136.603 13.8224 135.466 13.7694C134.33 13.7164 133.197 13.9361 132.163 14.4102C131.129 14.8843 130.224 15.599 129.522 16.4945C128.821 17.3901 128.344 18.4405 128.131 19.558C127.207 19.7041 126.322 20.0355 125.529 20.5325C124.736 21.0295 124.052 21.6817 123.518 22.4499C122.984 23.2181 122.611 24.0864 122.421 25.0026C122.232 25.9188 122.229 26.8638 122.414 27.7809C121.032 28.9071 120.117 30.5062 119.845 32.2686C119.574 34.0309 119.966 35.8312 120.946 37.3209C119.186 40.696 120.359 45.0978 124.321 45.6832C123.148 47.5903 124.029 53.8991 128.284 53.4601C122.709 61.3834 134.008 62.9978 134.154 62.9978C134.3 63.2928 135.327 73.7108 135.327 76.6469C135.455 78.105 135.202 79.5714 134.593 80.9024C134.137 81.7991 133.473 82.5735 132.656 83.1608C131.84 83.748 130.894 84.1309 129.899 84.2775C125.74 84.0348 121.568 84.1327 117.425 84.5702C105.128 86.8034 93.8961 92.9868 85.4322 102.182C74.7192 113.922 71.1978 129.624 70.0247 145.032C69.437 153.689 69.2907 162.349 69.437 171.152C69.2837 172.476 69.8691 175.705 70.4568 175.705ZM134.147 84.1335C137.573 81.3925 136.744 76.252 136.496 72.2474C136.426 69.3425 136.132 66.4473 135.615 63.5878C135.467 62.8538 135.32 61.8271 134.586 61.5344C134.001 61.2394 125.488 59.9084 129.304 55.0768C131.859 51.6808 135.576 56.9351 136.347 54.6355C136.298 52.8616 136.102 51.0949 135.762 49.3533C135.332 46.7498 135.743 44.077 136.935 41.7227C137.585 40.7555 138.457 39.9578 139.478 39.3961C140.499 38.8344 141.639 38.5251 142.804 38.494C147.418 38.494 153.529 39.7367 156.893 38.0526L159.975 59.625C160.493 62.1985 160.185 64.8698 159.095 67.2579C158.28 68.508 157.201 69.5635 155.932 70.3495C154.664 71.1355 153.239 71.6328 151.757 71.8061C147.513 72.5029 143.987 70.5471 140.31 68.2846C139.722 67.9896 139.283 68.7236 139.722 69.0186C141.448 71.1662 143.813 72.708 146.475 73.4204C146.256 75.4234 146.305 77.4466 146.621 79.4366C147.411 84.1753 149.555 84.5469 151.701 84.2635C152.781 84.1172 153.81 83.943 154.839 83.8384C154.398 89.1229 153.371 95.8732 147.794 97.9266C140.312 100.684 131.999 93.4109 129.304 85.7478C131.067 85.858 132.803 85.2792 134.147 84.1335Z" fill="#38A1FF"/>
</svg>
