<svg width="47" height="47" viewBox="0 0 47 47" fill="none" xmlns="http://www.w3.org/2000/svg">
<path d="M39.1665 13.7085H7.83317C5.67006 13.7085 3.9165 15.462 3.9165 17.6252V37.2085C3.9165 39.3716 5.67006 41.1252 7.83317 41.1252H39.1665C41.3296 41.1252 43.0832 39.3716 43.0832 37.2085V17.6252C43.0832 15.462 41.3296 13.7085 39.1665 13.7085Z" stroke="white" stroke-width="2" stroke-linecap="round" stroke-linejoin="round"/>
<path d="M31.3332 41.125V9.79167C31.3332 8.7529 30.9205 7.75668 30.186 7.02216C29.4515 6.28765 28.4553 5.875 27.4165 5.875H19.5832C18.5444 5.875 17.5482 6.28765 16.8137 7.02216C16.0792 7.75668 15.6665 8.7529 15.6665 9.79167V41.125" stroke="white" stroke-width="2" stroke-linecap="round" stroke-linejoin="round"/>
</svg>
