<svg width="50" height="54" viewBox="0 0 50 54" fill="none" xmlns="http://www.w3.org/2000/svg">
<path d="M31.4031 43.0452C32.4863 44.3395 34.3676 44.6122 35.775 43.6813C37.1823 42.7504 37.6662 40.9133 36.8999 39.4101L32.1965 30.4013V26.3807L37.9143 24.627C39.4027 24.153 40.2598 22.5958 39.862 21.0829C39.4641 19.5724 37.9511 18.6366 36.421 18.9584L30.293 20.3141H19.7072L13.5817 18.9584H13.5793C12.0418 18.617 10.5116 19.5527 10.1088 21.0755C9.70851 22.5983 10.5804 24.1653 12.086 24.627L17.8038 26.3807V30.4013L13.1004 39.4101C12.6779 40.2083 12.6067 41.1466 12.8965 42.0013C13.2919 43.1336 14.2646 43.9662 15.4435 44.1824C16.6224 44.3985 17.8259 43.9638 18.5971 43.0452L25.0004 35.2517L31.4031 43.0452ZM17.1335 41.8441C16.6668 42.3894 15.8661 42.5024 15.2668 42.1069C14.6675 41.7115 14.4587 40.9305 14.7805 40.287L19.592 31.0744C19.8032 31.0818 19.6607 25.8675 19.7 25.6809C19.7 25.2633 19.4274 24.8974 19.0295 24.7746L12.6413 22.817C12.1059 22.6549 11.7939 22.0974 11.9389 21.5571C12.0813 21.0167 12.6241 20.6852 13.1718 20.808L19.4004 22.1858L19.398 22.1883C19.4643 22.203 19.533 22.2104 19.6043 22.2104H30.3988C30.4676 22.2104 30.5339 22.203 30.6027 22.1883L36.8313 20.8104V20.808C37.3741 20.6876 37.9169 21.0192 38.0593 21.5571C38.2017 22.0974 37.8923 22.6525 37.3593 22.817L30.9711 24.7746C30.5732 24.8974 30.3006 25.2633 30.3006 25.6809V30.6348C30.3006 30.7871 30.3374 30.9369 30.4087 31.0744L35.2201 40.287C35.4019 40.6284 35.4313 41.0312 35.3061 41.3971C35.1391 41.881 34.7215 42.2371 34.218 42.3305C33.7121 42.4213 33.1963 42.2371 32.8672 41.8442L25.732 33.1572C25.5454 32.9485 25.2801 32.8281 25.0001 32.8281C24.7201 32.8281 24.4548 32.9485 24.2682 33.1572L17.1335 41.8441Z" fill="white"/>
<path d="M19.6406 14.1494C19.8666 21.233 30.1352 21.2305 30.3591 14.1494C30.1331 7.0658 19.8645 7.06832 19.6406 14.1494ZM28.4653 14.1494C28.4456 16.0479 26.8983 17.5781 24.9997 17.5781C23.0987 17.5781 21.5538 16.0479 21.5342 14.1494C21.5538 12.2484 23.0987 10.7207 24.9997 10.7207C26.8983 10.7207 28.4456 12.2484 28.4653 14.1494Z" fill="white"/>
<path d="M2.39436 26.5233C2.40173 20.948 4.46487 15.5716 8.19322 11.423C11.9191 7.27468 17.0449 4.64942 22.5861 4.0477L22.3012 4.3326C22.1244 4.5119 22.0237 4.75259 22.0212 5.00311C22.0212 5.25608 22.1219 5.49679 22.2988 5.67607C22.4781 5.85291 22.7188 5.95361 22.9717 5.95115C23.2223 5.95115 23.463 5.85045 23.6423 5.67361L25.671 3.64486V3.6424C25.8478 3.46556 25.9485 3.22487 25.9485 2.97435C25.9485 2.72137 25.8478 2.48067 25.671 2.30384L23.6423 0.275086C23.2714 -0.0933293 22.6721 -0.0908713 22.3037 0.277541C21.9353 0.645956 21.9328 1.24526 22.3012 1.61365L22.8121 2.12452C15.5763 2.7729 9.00392 6.59952 4.86543 12.5701C0.726942 18.5384 -0.550256 26.0394 1.38267 33.0418C3.31315 40.0443 8.25249 45.8283 14.8664 48.8319L15.6499 47.1077H15.6524C11.703 45.3074 8.35561 42.4092 6.00468 38.7597C3.65419 35.1099 2.40172 30.863 2.39436 26.5233Z" fill="white"/>
<path d="M49.4995 26.5234C49.502 22.0926 48.301 17.7453 46.0266 13.9432C43.7523 10.1411 40.4881 7.02935 36.5852 4.93433L35.6887 6.60444C55.2148 17.2562 49.3271 46.5281 27.4117 48.9991C27.9373 48.589 28.2222 47.9111 27.6966 47.3732H27.6991C27.5198 47.1964 27.2791 47.0957 27.0286 47.0957C26.778 47.0957 26.5373 47.1964 26.3581 47.3732L24.3293 49.402C24.1525 49.5813 24.0518 49.822 24.0518 50.0725C24.0518 50.323 24.1525 50.5637 24.3293 50.743L26.3581 52.7717C26.5373 52.9486 26.778 53.0493 27.0286 53.0493C27.2815 53.0493 27.5222 52.951 27.6991 52.7717C27.8784 52.5949 27.9766 52.3542 27.9766 52.1012C27.9766 51.8507 27.8759 51.61 27.6991 51.4307L27.1882 50.9199C33.2793 50.3672 38.9428 47.5599 43.0719 43.0459C47.2006 38.5316 49.4922 32.6393 49.4997 26.524L49.4995 26.5234Z" fill="white"/>
</svg>
