<svg width="47" height="49" viewBox="0 0 47 49" fill="none" xmlns="http://www.w3.org/2000/svg">
<path fill-rule="evenodd" clip-rule="evenodd" d="M13.3084 18.9807C10.0096 18.9807 7.32493 21.6654 7.32493 24.9642C7.32493 28.263 10.0096 30.9477 13.3084 30.9477C16.6072 30.9477 19.2919 28.263 19.2919 24.9642C19.2919 21.6654 16.6072 18.9807 13.3084 18.9807ZM13.3084 32.0695C9.39123 32.0695 6.20312 28.8816 6.20312 24.9642C6.20312 21.047 9.39102 17.8589 13.3084 17.8589C17.2256 17.8589 20.4137 21.0468 20.4137 24.9642C20.4137 28.8814 17.2259 32.0695 13.3084 32.0695Z" fill="white"/>
<path fill-rule="evenodd" clip-rule="evenodd" d="M15.3212 43.343C15.0397 43.343 14.7966 43.1319 14.7647 42.8462L13.8861 35.112C13.884 35.0907 13.8818 35.0694 13.8818 35.048C13.8818 34.999 13.8882 34.95 13.901 34.9052L14.8307 31.3697C14.9096 31.069 15.2167 30.892 15.5152 30.9709C15.8159 31.0498 15.9929 31.3569 15.914 31.6554L15.0099 35.0907L15.8777 42.7206C15.9119 43.0277 15.6922 43.307 15.383 43.3411C15.3617 43.3432 15.3404 43.3454 15.3191 43.3454L15.3212 43.343Z" fill="white"/>
<path fill-rule="evenodd" clip-rule="evenodd" d="M11.2962 43.3433C11.2748 43.3433 11.2535 43.3412 11.2322 43.339C10.9251 43.3049 10.7034 43.0256 10.7375 42.7185L11.6053 35.0886L10.7012 31.6533C10.6223 31.3548 10.8015 31.0477 11.1 30.9688C11.3985 30.8899 11.7056 31.069 11.7845 31.3676L12.7163 34.9031C12.7291 34.95 12.7355 34.9969 12.7355 35.046C12.7355 35.0673 12.7334 35.0886 12.7313 35.1099L11.8527 42.8441C11.8207 43.1298 11.5776 43.341 11.2962 43.341L11.2962 43.3433Z" fill="white"/>
<path fill-rule="evenodd" clip-rule="evenodd" d="M14.4427 35.6069H12.176C11.8668 35.6069 11.6152 35.3553 11.6152 35.0461C11.6152 34.737 11.8669 34.4854 12.176 34.4854H14.4427C14.7519 34.4854 15.0035 34.737 15.0035 35.0461C15.0035 35.3553 14.7519 35.6069 14.4427 35.6069Z" fill="white"/>
<path fill-rule="evenodd" clip-rule="evenodd" d="M21.6271 43.3409H0.881106C0.571908 43.3409 0.320312 43.0914 0.320312 42.7801V40.7138C0.320312 35.3295 4.70021 30.9473 10.0868 30.9473H16.5333C21.0006 30.9473 24.8919 33.9667 25.9968 38.2911C26.0736 38.5918 25.8923 38.8967 25.5917 38.9735C25.291 39.0503 24.986 38.869 24.9093 38.5683C23.9326 34.7428 20.4867 32.069 16.5332 32.069H10.0867C5.32084 32.069 1.4442 35.9457 1.4442 40.7115V42.217H21.6296C21.9388 42.217 22.1904 42.4686 22.1904 42.7778C22.1904 43.0891 21.9388 43.3385 21.6296 43.3385L21.6271 43.3409Z" fill="white"/>
<path fill-rule="evenodd" clip-rule="evenodd" d="M33.328 24.6399C30.0291 24.6399 27.3445 27.3246 27.3445 30.6234C27.3445 33.9222 30.0291 36.6069 33.328 36.6069C36.6268 36.6069 39.3115 33.9222 39.3115 30.6234C39.3115 27.3246 36.6268 24.6399 33.328 24.6399ZM33.328 37.7287C29.4108 37.7287 26.2227 34.5408 26.2227 30.6234C26.2227 26.7062 29.4105 23.5181 33.328 23.5181C37.2452 23.5181 40.4333 26.706 40.4333 30.6234C40.4333 34.5406 37.2454 37.7287 33.328 37.7287Z" fill="white"/>
<path fill-rule="evenodd" clip-rule="evenodd" d="M21.4613 47.8784H45.1949V46.9892C45.1949 41.8843 41.041 37.7304 35.9361 37.7304H30.7203C25.6153 37.7304 21.4614 41.8843 21.4614 46.9892L21.4613 47.8784ZM45.7556 49.0001H20.9006C20.5914 49.0001 20.3398 48.7484 20.3398 48.4393V46.9871C20.3398 41.264 24.9969 36.6064 30.7205 36.6064H35.9363C41.6594 36.6064 46.317 41.2635 46.317 46.9871V48.4393C46.317 48.7485 46.0653 49.0001 45.7562 49.0001H45.7556Z" fill="white"/>
<path fill-rule="evenodd" clip-rule="evenodd" d="M9.20794 1.12379C8.9883 1.12379 8.81131 1.30291 8.81131 1.52041V11.3339C8.81131 11.5535 8.99043 11.7305 9.20794 11.7305H11.6005C11.9097 11.7305 12.1613 11.9821 12.1613 12.2913V14.6945L15.4174 11.8669C15.5197 11.7774 15.6498 11.7305 15.7842 11.7305H27.3821C27.6018 11.7305 27.7788 11.5513 27.7788 11.3338V1.51872C27.7788 1.29909 27.5996 1.1221 27.3821 1.1221H9.20782L9.20794 1.12379ZM11.5983 16.4879C11.5194 16.4879 11.4405 16.4708 11.3659 16.4367C11.1655 16.345 11.0375 16.1467 11.0375 15.9271V12.8543H9.20791C8.36986 12.8543 7.6875 12.1719 7.6875 11.3339V1.52041C7.6875 0.682363 8.36986 0 9.20791 0H27.3822C28.2203 0 28.9027 0.682363 28.9027 1.52041V11.3355C28.9027 12.1736 28.2203 12.8559 27.3822 12.8559H15.9933L11.9674 16.3509C11.8629 16.4404 11.7327 16.4879 11.5983 16.4879Z" fill="white"/>
<path fill-rule="evenodd" clip-rule="evenodd" d="M24.1543 5.03467H12.4368C12.1276 5.03467 11.876 4.78305 11.876 4.47388C11.876 4.16471 12.1276 3.91309 12.4368 3.91309H24.1543C24.4635 3.91309 24.7151 4.16471 24.7151 4.47388C24.7151 4.78305 24.4635 5.03467 24.1543 5.03467Z" fill="white"/>
<path fill-rule="evenodd" clip-rule="evenodd" d="M24.1543 8.94532H12.4368C12.1276 8.94532 11.876 8.69369 11.876 8.38452C11.876 8.07533 12.1276 7.82373 12.4368 7.82373H24.1543C24.4635 7.82373 24.7151 8.07535 24.7151 8.38452C24.7151 8.69372 24.4635 8.94532 24.1543 8.94532Z" fill="white"/>
<path fill-rule="evenodd" clip-rule="evenodd" d="M35.0356 20.8869C34.8928 20.8869 34.752 20.8314 34.6454 20.7291L31.0694 17.2554H19.2536C18.4155 17.2554 17.7354 16.5731 17.7354 15.735V12.2955C17.7354 11.9863 17.987 11.7347 18.2961 11.7347C18.6053 11.7347 18.8569 11.9863 18.8569 12.2955V15.735C18.8569 15.9546 19.0339 16.1338 19.2536 16.1338H31.297C31.442 16.1338 31.5827 16.1913 31.6872 16.2916L34.4743 18.9997V16.6945C34.4743 16.3853 34.7259 16.1337 35.0351 16.1337H37.4276C37.6472 16.1337 37.8263 15.9546 37.8263 15.7371V5.92202C37.8263 5.70238 37.6472 5.5254 37.4276 5.5254H28.3396C28.0304 5.5254 27.7788 5.27377 27.7788 4.9646C27.7788 4.6554 28.0304 4.40381 28.3396 4.40381H37.4276C38.2656 4.40381 38.948 5.08617 38.948 5.92422V15.7377C38.948 16.5757 38.2656 17.2581 37.4276 17.2581H35.598V20.3309C35.598 20.5569 35.4636 20.7595 35.2547 20.8469C35.1843 20.8768 35.1097 20.8917 35.0372 20.8917L35.0356 20.8869Z" fill="white"/>
</svg>
