<svg width="18" height="17" viewBox="0 0 18 17" fill="none" xmlns="http://www.w3.org/2000/svg">
<path d="M8.49907 1.00002C8.53372 0.911451 8.42322 1.05335 8.49907 1.00002C8.57492 0.946694 8.40773 1.00002 8.49907 1.00002C8.59041 1.00002 9.42322 0.946694 9.49907 1.00002C9.57492 1.05335 9.46442 0.911451 9.49907 1.00002L11.4991 6.00002C11.5317 6.08212 11.4304 5.94776 11.4991 6.00002C11.5677 6.05228 11.4145 5.99294 11.4991 6.00002H16.4991C16.9078 6.03436 16.8104 6.72101 16.4991 7.00002L12.4991 10C12.4347 10.0577 12.5254 10.9157 12.4991 11C12.4728 11.0844 12.4796 10.9137 12.4991 11L13.4991 15C13.5202 15.0928 13.5306 15.9106 13.4991 16C13.4675 16.0895 13.5727 15.944 13.4991 16C13.4254 16.0561 13.59 15.9963 13.4991 16C13.4081 16.0038 13.5767 16.0498 13.4991 16L9.49907 13C9.42677 12.9538 8.58374 13 8.49907 13C8.4144 13 8.57137 12.9538 8.49907 13L4.49907 16C4.42146 16.0498 4.58999 16.0038 4.49907 16C4.40815 15.9963 4.5727 16.0561 4.49907 16C4.42544 15.944 4.53062 16.0895 4.49907 16C4.46752 15.9106 4.47791 15.0928 4.49907 15L5.49907 11C5.51859 10.9137 5.52537 11.0844 5.49907 11C5.47277 10.9157 5.56348 10.0576 5.49907 10L1.49907 7.00002C1.43011 6.93787 1.52361 7.0918 1.49907 7.00002C1.47453 6.90824 1.47097 7.09067 1.49907 7.00002C1.52717 6.90937 1.42774 6.05916 1.49907 6.00002C1.5704 5.94088 1.40842 6.00782 1.49907 6.00002H6.49907C6.58365 5.99294 6.43042 6.05228 6.49907 6.00002C6.56772 5.94776 6.46649 6.08212 6.49907 6.00002L8.49907 1.00002Z" stroke="#4A3AFF" stroke-width="1.5" stroke-linecap="round" stroke-linejoin="round"/>
</svg>
