<svg width="45" height="48" viewBox="0 0 45 48" fill="none" xmlns="http://www.w3.org/2000/svg">
<path d="M34.1823 29.1222C34.7684 28.1302 34.9069 26.9326 34.563 25.8367C34.3069 25.0209 34.4684 24.1239 34.9945 23.4415C35.6984 22.5263 35.9868 21.3535 35.7837 20.226C35.5806 19.0984 34.9022 18.0929 33.9192 17.4692C33.1877 17.0037 32.7216 16.2174 32.6777 15.3633C32.6154 14.2176 32.0661 13.1398 31.1708 12.4031C30.2755 11.6665 29.094 11.323 27.9332 11.4654C27.0632 11.5693 26.1933 11.2575 25.5979 10.6338C24.7995 9.79551 23.6711 9.31423 22.5011 9.31423C21.3311 9.31423 20.2004 9.79553 19.4043 10.6338C18.8089 11.2575 17.9366 11.5693 17.0713 11.4654C15.9082 11.323 14.7291 11.6687 13.8337 12.4031C12.9384 13.1398 12.3868 14.2176 12.3268 15.3633C12.2807 16.2152 11.8168 17.0037 11.0853 17.4692C10.1046 18.0929 9.42383 19.0984 9.22079 20.226C9.01772 21.3558 9.30386 22.5263 10.01 23.4415C10.5361 24.1239 10.6977 25.021 10.4415 25.8367C10.1 26.9326 10.2384 28.1302 10.8223 29.1222C11.4084 30.1141 12.3984 30.8327 13.5383 31.0903C14.3875 31.2824 15.1006 31.8653 15.4421 32.654C15.5275 32.8505 15.6429 33.0291 15.756 33.2098V46.7656C15.756 47.0526 15.929 47.317 16.199 47.4345C16.4621 47.552 16.7759 47.509 17.0021 47.317L22.508 42.6011L28.014 47.317C28.1571 47.4412 28.3278 47.5 28.5078 47.5C28.614 47.5 28.7178 47.4774 28.8147 47.4345C29.0847 47.317 29.2578 47.0526 29.2578 46.7656V33.2098C29.3709 33.0313 29.4863 32.8506 29.5716 32.6562C29.9132 31.8699 30.6239 31.2846 31.4754 31.0926C32.6154 30.835 33.6054 30.1164 34.1915 29.1244L34.1823 29.1222ZM17.2514 34.6266C17.4568 34.7419 17.6645 34.8504 17.8883 34.9294C18.989 35.3204 20.2167 35.248 21.2597 34.7261C21.4166 34.647 21.5851 34.5973 21.7512 34.5498V41.2901L17.2514 45.1474L17.2514 34.6266ZM23.2511 41.2906V34.5503C23.4195 34.5977 23.5857 34.6475 23.7426 34.7265C24.3425 35.0271 25.0048 35.1785 25.6671 35.1785C26.1563 35.1785 26.6479 35.0971 27.114 34.9299C27.3378 34.8508 27.5455 34.7401 27.7509 34.6271V45.1483L23.2511 41.2906ZM32.8832 28.3879C32.5001 29.0386 31.8771 29.4905 31.1294 29.6578C29.814 29.9538 28.711 30.8599 28.1826 32.0779C27.8849 32.7693 27.3218 33.2913 26.6018 33.5489C25.8795 33.8042 25.1065 33.759 24.4235 33.4178C23.8212 33.1173 23.1612 32.9659 22.5012 32.9659C21.8412 32.9659 21.1813 33.1173 20.579 33.4178C19.896 33.759 19.1205 33.8042 18.4006 33.5489C17.6806 33.2913 17.1176 32.7693 16.8176 32.0779C16.2891 30.8599 15.1884 29.9538 13.8707 29.6578C13.1231 29.4883 12.5 29.0364 12.1169 28.3879C11.7339 27.7371 11.6462 26.9846 11.87 26.2661C12.2646 25.0007 12.0154 23.6155 11.2031 22.558C10.7416 21.9569 10.5616 21.2203 10.6931 20.4814C10.827 19.7425 11.2539 19.1098 11.8977 18.7008C13.0308 17.98 13.7507 16.7597 13.82 15.4401C13.8592 14.6899 14.2053 14.012 14.7938 13.5285C15.3822 13.0449 16.1252 12.8325 16.8845 12.9206C18.2252 13.0833 19.5775 12.5998 20.4982 11.6326C21.022 11.0835 21.7304 10.7807 22.4989 10.7807C23.265 10.7807 23.9758 11.0835 24.4996 11.6326C25.4203 12.5998 26.7726 13.0855 28.1133 12.9206C28.8748 12.8302 29.6179 13.0449 30.204 13.5285C30.7925 14.012 31.1363 14.6899 31.1755 15.4401C31.247 16.7621 31.9647 17.98 33.0977 18.7008C33.7415 19.1098 34.1685 19.7425 34.3023 20.4814C34.4362 21.2225 34.2539 21.9592 33.7924 22.558C32.9778 23.6155 32.7285 25.0007 33.1255 26.2683C33.3493 26.9869 33.2616 27.7394 32.8785 28.3901L32.8832 28.3879ZM22.5014 14.4503C17.9531 14.4503 14.2516 18.0747 14.2516 22.5286C14.2516 26.9823 17.953 30.6069 22.5014 30.6069C27.0498 30.6069 30.7512 26.9824 30.7512 22.5286C30.7512 18.0748 27.0498 14.4503 22.5014 14.4503ZM22.5014 29.1381C18.7792 29.1381 15.7515 26.1735 15.7515 22.5286C15.7515 18.8838 18.7791 15.919 22.5014 15.919C26.2237 15.919 29.2513 18.8836 29.2513 22.5286C29.2513 26.1734 26.2237 29.1381 22.5014 29.1381ZM26.8559 20.4183L24.3106 20.0568L23.1729 17.7994C22.9214 17.2978 22.0791 17.2978 21.8276 17.7994L20.6899 20.0568L18.1469 20.4183C17.8631 20.459 17.63 20.6511 17.5424 20.9177C17.4547 21.1821 17.5285 21.4758 17.7316 21.6702L19.5731 23.4282L19.1392 25.9093C19.0908 26.185 19.2062 26.4629 19.4369 26.6279C19.6677 26.7928 19.9746 26.8154 20.2261 26.6844L22.5014 25.5139L24.7767 26.6844C24.8852 26.7409 25.0052 26.768 25.1252 26.768C25.2798 26.768 25.4367 26.7205 25.5659 26.6279C25.7967 26.4629 25.9121 26.185 25.8636 25.9093L25.4275 23.4282L27.269 21.6702C27.4744 21.4758 27.5459 21.1821 27.4582 20.9177C27.3705 20.6511 27.1351 20.459 26.8536 20.4183L26.8559 20.4183ZM24.1006 22.6463C23.9252 22.8158 23.8444 23.0576 23.8859 23.2971L24.1306 24.6936L22.8498 24.0361C22.6306 23.9231 22.3698 23.9231 22.1529 24.0361L20.8722 24.6936L21.1168 23.2971C21.1583 23.0599 21.0775 22.8158 20.9022 22.6463L19.8661 21.6589L21.2968 21.4555C21.5414 21.4216 21.7514 21.2702 21.8621 21.0533L22.5013 19.7834L23.1405 21.0533C23.249 21.2702 23.4613 21.4194 23.7059 21.4555L25.1366 21.6589L24.1006 22.6463ZM21.7514 7.10928V1.23437C21.7514 0.827627 22.0883 0.5 22.5013 0.5C22.9144 0.5 23.2513 0.82765 23.2513 1.23437V7.10928C23.2513 7.51602 22.9144 7.84365 22.5013 7.84365C22.0883 7.84365 21.7514 7.516 21.7514 7.10928ZM14.6069 5.78968C14.4477 5.41458 14.63 4.98527 15.013 4.82931C15.3961 4.6734 15.8345 4.85191 15.9938 5.22701L17.1684 8.00186C17.3276 8.37696 17.1453 8.80628 16.7622 8.96223C16.6676 9.00065 16.5707 9.01872 16.4761 9.01872C16.1807 9.01872 15.9015 8.84699 15.7838 8.56453L14.6092 5.78968L14.6069 5.78968ZM4.42356 15.199C4.58279 14.8239 5.01892 14.6477 5.40432 14.8013L8.23808 15.9493C8.62115 16.1052 8.80345 16.5345 8.64422 16.9096C8.52423 17.1921 8.24501 17.3638 7.95192 17.3638C7.85731 17.3638 7.76039 17.3457 7.66578 17.3073L4.83202 16.1594C4.44895 16.0035 4.26665 15.5742 4.42588 15.199L4.42356 15.199ZM8.23572 29.1118L5.40196 30.2597C5.30735 30.2981 5.21043 30.3162 5.11581 30.3162C4.82044 30.3162 4.54122 30.1444 4.42352 29.862C4.26429 29.4869 4.44659 29.0576 4.82965 28.9016L7.66341 27.7537C8.04648 27.5978 8.48491 27.7763 8.64417 28.1514C8.8034 28.5265 8.6211 28.9558 8.23803 29.1118L8.23572 29.1118ZM6.59037 7.99075C6.2973 7.70378 6.2973 7.23828 6.59037 6.9513C6.88343 6.66433 7.35881 6.66433 7.65188 6.9513L11.8933 11.1045C12.1863 11.3915 12.1863 11.857 11.8933 12.144C11.7479 12.2863 11.5541 12.3586 11.3625 12.3586C11.171 12.3586 10.9795 12.2863 10.8318 12.144L6.59037 7.99075ZM6.74959 23.2658H0.749955C0.336892 23.2658 0 22.9381 0 22.5314C0 22.1247 0.336909 21.797 0.749955 21.797H6.74959C7.16266 21.797 7.49955 22.1247 7.49955 22.5314C7.49955 22.9381 7.16264 23.2658 6.74959 23.2658ZM11.8932 32.9169C12.1863 33.2039 12.1863 33.6694 11.8932 33.9564L7.65184 38.1096C7.50646 38.252 7.31262 38.3243 7.12109 38.3243C6.92956 38.3243 6.73803 38.252 6.59034 38.1096C6.29727 37.8226 6.29727 37.3571 6.59034 37.0702L10.8317 32.9169C11.1248 32.63 11.6002 32.63 11.8932 32.9169ZM27.834 8.00232L29.0063 5.22747C29.1655 4.85237 29.6062 4.67612 29.987 4.82977C30.3701 4.98569 30.5501 5.41501 30.3932 5.79014L29.2209 8.565C29.1009 8.84745 28.8217 9.01919 28.5286 9.01919C28.4317 9.01919 28.3347 9.00111 28.2424 8.9627C27.8594 8.80678 27.6794 8.37746 27.8363 8.00232L27.834 8.00232ZM36.7643 15.9516L39.5981 14.8037C39.9788 14.6501 40.4196 14.8263 40.5788 15.2014C40.7381 15.5765 40.5558 16.0058 40.1727 16.1618L37.3389 17.3097C37.2443 17.3481 37.1474 17.3662 37.0528 17.3662C36.7597 17.3662 36.4782 17.1945 36.3605 16.912C36.2013 16.5369 36.3836 16.1076 36.7666 15.9516L36.7643 15.9516ZM40.5765 29.8644C40.4565 30.1468 40.1773 30.3185 39.8842 30.3185C39.7873 30.3185 39.6903 30.3005 39.598 30.2621L36.7643 29.1141C36.3812 28.9582 36.2012 28.5289 36.3581 28.1538C36.5174 27.7787 36.9581 27.6024 37.3389 27.7561L40.1727 28.904C40.5557 29.0599 40.7357 29.4892 40.5788 29.8644L40.5765 29.8644ZM33.1065 12.1465C32.8134 11.8595 32.8134 11.394 33.1065 11.107L37.3479 6.95379C37.6409 6.66682 38.1163 6.66682 38.4094 6.95379C38.7024 7.24076 38.7024 7.70626 38.4094 7.99324L34.168 12.1465C34.0226 12.2888 33.8288 12.3611 33.6372 12.3611C33.4457 12.3611 33.2542 12.2888 33.1065 12.1465ZM45 22.5317C45 22.9384 44.6654 23.2661 44.25 23.2661H38.2504C37.835 23.2661 37.5005 22.9384 37.5005 22.5317C37.5005 22.125 37.8351 21.7973 38.2504 21.7973H44.25C44.6654 21.7973 45 22.125 45 22.5317ZM38.4096 37.0726C38.7027 37.3596 38.7027 37.8251 38.4096 38.1121C38.2642 38.2544 38.0704 38.3268 37.8789 38.3268C37.6873 38.3268 37.4958 38.2544 37.3481 38.1121L33.1067 33.9589C32.8136 33.6719 32.8136 33.2064 33.1067 32.9194C33.3998 32.6324 33.8752 32.6324 34.1682 32.9194L38.4096 37.0726Z" fill="white"/>
</svg>
