<svg width="61" height="60" viewBox="0 0 61 60" fill="none" xmlns="http://www.w3.org/2000/svg">
<path fill-rule="evenodd" clip-rule="evenodd" d="M47.9323 38.5458C43.5049 41.5318 41.5777 46.4953 45.3635 50.6377C46.636 46.6221 48.917 43.0024 51.9928 40.1273C52.3676 39.7815 52.9485 39.8052 53.2943 40.1775C53.6402 40.5524 53.6164 41.1332 53.2442 41.4791C50.3111 44.2327 48.162 47.7176 47.0189 51.5771C54.0073 52.0233 55.0157 47.184 56.0558 42.1549C56.5548 39.7207 57.0696 37.2549 58.1837 35.1665C54.6223 35.544 50.9047 36.5182 47.9295 38.5458L47.9323 38.5458ZM8.36801 9.30124C7.99312 8.95539 7.972 8.37193 8.31521 7.99966C8.66106 7.62741 9.24452 7.60365 9.61679 7.9495C12.9803 11.1018 15.4619 15.0805 16.8161 19.4865C21.1221 14.9033 18.9651 9.43032 14.1126 6.15914C11.3801 4.30579 7.589 2.95407 2.81829 2.4736C4.06971 4.752 4.6373 7.4739 5.19171 10.1588C6.33487 15.6608 7.43578 20.9726 15.1688 20.3839H15.1662C13.9332 16.1466 11.5839 12.321 8.36801 9.30124ZM17.3631 21.5141C19.8104 19.3175 21.1806 16.4715 20.9324 13.4037L22.8438 14.3779V14.3753C23.1158 14.5205 23.4431 14.5205 23.7151 14.3753C29.3912 11.1517 27.7703 14.6604 29.6421 8.82049H36.3479L37.3828 12.0044C37.4778 12.2975 37.7128 12.5219 38.0111 12.6064C44.3025 14.3435 40.6539 15.6688 46.1215 12.8756L50.8525 17.6067L49.3503 20.5266C49.2051 20.7959 49.2051 21.1206 49.3503 21.3925C52.5738 27.0767 49.0651 25.4477 54.905 27.3274V33.7956L54.9077 33.793C52.0564 34.3395 49.3371 35.4351 46.9055 37.0165C43.2885 39.4559 40.8227 43.255 41.6754 47.4106L41.6728 47.4132C40.5217 48.0046 39.3152 48.4798 38.0717 48.831C37.7523 48.9075 37.4962 49.1425 37.3959 49.454L36.361 52.638H29.642L28.6097 49.454C28.5147 49.1583 28.2797 48.9313 27.9814 48.8521C21.6901 47.1149 25.3386 45.7896 19.8711 48.5828L15.14 43.8518L16.6607 40.8632C16.8059 40.5913 16.8059 40.2639 16.6607 39.9919C13.4372 34.3158 16.9511 35.9368 11.1059 34.065L11.1033 27.3538L14.274 26.319C14.5697 26.2266 14.7941 25.989 14.876 25.6906L15.8291 23.04C16.1274 24.6451 16.2488 26.2767 16.1855 27.9083C16.167 28.4152 16.5656 28.8402 17.0725 28.8587C17.5794 28.8798 18.0071 28.4811 18.0256 27.9742C18.0996 25.8015 17.8857 23.6286 17.3894 21.5139L17.3631 21.5141ZM3.39164 10.5232C2.74482 7.38679 2.10858 4.18963 0.302745 2.00869C0.070417 1.72884 0.022897 1.33547 0.186577 1.00807C0.350264 0.683341 0.690831 0.482698 1.0552 0.501176C8.92764 0.878706 17.2759 3.88049 20.1138 10.2485C20.2353 10.5178 20.3356 10.7897 20.4306 11.059L23.2424 12.4846C24.4462 11.8404 25.7082 11.3177 27.015 10.9217L28.0816 7.62422C28.1951 7.22293 28.5621 6.94572 28.9819 6.94836H37.0158C37.4145 6.94572 37.7709 7.20181 37.8897 7.58462L38.9854 10.9639H38.9827C40.2869 11.36 41.5463 11.8827 42.7475 12.5242L45.8628 10.9428C46.2218 10.7369 46.6733 10.7976 46.9663 11.0907L52.6505 16.7748C52.9119 17.06 52.9699 17.4771 52.7983 17.823L51.1905 20.9726C51.8505 22.1633 52.3891 23.4173 52.7983 24.7163L56.0958 25.7908C56.4971 25.9043 56.7717 26.2686 56.7717 26.6831V33.4972C57.7775 33.3546 58.8336 33.2543 59.9345 33.1988C60.3041 33.1751 60.6526 33.3783 60.8163 33.7084C60.98 34.041 60.9298 34.4396 60.6869 34.7195C59.0659 36.7471 58.4508 39.6591 57.8541 42.5392C56.6238 48.4795 55.4358 54.206 46.5544 53.353C46.1768 55.0559 46.0184 56.801 46.0792 58.5435C46.1003 59.0504 45.7069 59.478 45.1974 59.4992C44.6905 59.5203 44.2628 59.1243 44.2416 58.6174C44.1756 56.6215 44.3683 54.6229 44.8172 52.6772C43.7215 51.7109 42.8424 50.5255 42.2352 49.1976L38.9852 50.4886L37.9292 53.7861C37.8183 54.1847 37.4513 54.4619 37.0368 54.4619H28.9819C28.5806 54.4619 28.2268 54.2058 28.1027 53.8257L27.015 50.4464C25.7082 50.0662 24.4436 49.5514 23.2423 48.9125L20.127 50.5018C19.7653 50.713 19.3033 50.655 19.005 50.3593L13.3208 44.6751C13.0436 44.39 12.975 43.9623 13.1519 43.6059L14.7597 40.4563C14.1129 39.2577 13.5901 37.9931 13.1994 36.6862L9.894 35.6197V35.617C9.49271 35.5061 9.2155 35.1365 9.21814 34.7194V26.6827C9.22078 26.2867 9.47687 25.9329 9.8544 25.8115L13.2337 24.7158L14.1392 22.2764C5.88088 22.4533 4.67716 16.5922 3.40722 10.5225L3.39164 10.5232ZM32.9951 18.2348C44.065 18.2348 49.649 31.6831 41.7813 39.5163C33.9136 47.3496 20.4916 41.7736 20.4916 30.7301V30.7328C20.4837 27.4142 21.8011 24.2302 24.1455 21.8857C26.4925 19.5387 29.679 18.2268 32.9951 18.2348ZM40.5113 23.1902C42.5046 25.1835 43.624 27.8869 43.624 30.7038C43.624 33.5234 42.5047 36.2269 40.5113 38.22C33.8346 44.8968 22.3847 40.1262 22.3847 30.7038C22.3847 21.2836 33.8345 16.5107 40.5113 23.1902Z" fill="white"/>
</svg>
