<svg width="50" height="54" viewBox="0 0 50 54" fill="none" xmlns="http://www.w3.org/2000/svg">
<path d="M47.6102 11.9228V10.9803C47.6102 10.4596 47.1885 10.0378 46.6677 10.0378H30.6478C30.1294 10.0378 29.7053 10.4596 29.7053 10.9803V12.8063C29.6817 14.9952 27.5164 16.1545 25.5678 15.3911C21.0769 14.623 21.0722 21.4676 25.5678 20.702C27.5235 19.9409 29.6794 21.0954 29.7076 23.2867V25.1127C29.7076 25.6335 30.1294 26.0552 30.6501 26.0552H33.4186C35.6099 26.0835 36.7644 28.2324 36.0057 30.1927C35.2848 33.0225 39.0287 34.8486 40.8171 32.5395C41.524 31.696 41.4839 30.5579 41.1588 29.5659C40.6804 27.8482 42.1153 26.0058 43.9014 26.0529H46.6699C47.1882 26.0529 47.6123 25.6311 47.6123 25.1104V16.6302C47.6383 15.3909 49.4667 15.3885 49.4973 16.6302V25.1104C49.4973 26.6702 48.2296 27.9378 46.6699 27.9378H43.9014C43.3076 27.9237 42.8246 28.5339 42.9872 29.1088C44.1158 32.1248 41.934 35.5104 38.6612 35.4755C35.3884 35.5155 33.2066 32.1179 34.3352 29.1088C34.4954 28.5363 34.0148 27.9213 33.421 27.9378H30.6525C29.0928 27.9378 27.8251 26.6702 27.8251 25.1104V23.2844C27.8416 22.6906 27.2266 22.2123 26.6541 22.3702L26.0273 22.5257C23.2305 23.315 20.2004 20.9588 20.2853 18.0442C20.2075 15.1273 23.2164 12.7758 26.0273 13.5627L26.6517 13.7182C27.2266 13.8737 27.8369 13.4002 27.8228 12.804V10.978C27.8228 10.4573 27.401 10.0356 26.8803 10.0356H24.1118C21.9229 10.0096 20.7636 7.85606 21.5247 5.89807C22.248 3.06829 18.497 1.24221 16.7133 3.55132C16.0088 4.39481 16.0418 5.5329 16.3717 6.52484C16.85 8.24253 15.4151 10.085 13.629 10.0379H10.8605C10.3422 10.0379 9.91806 10.4597 9.91806 10.9804C9.91571 12.3729 10.149 14.1118 8.83185 15.0354C7.95536 15.7587 6.80316 15.7328 5.78058 15.3936C2.94609 14.6702 1.12948 18.4259 3.43383 20.2049C4.27262 20.9023 5.41065 20.8835 6.39559 20.5466C8.12974 20.0753 9.96523 21.4914 9.92048 23.2868V25.1152C9.92048 25.6359 10.3422 26.0577 10.863 26.0577H24.3381C25.5775 26.0812 25.5775 27.9167 24.3381 27.9426H10.863C9.30318 27.9426 8.03552 26.675 8.03552 25.1152V23.2868C8.04966 22.6884 7.4347 22.2124 6.85509 22.375L6.24485 22.5329C1.43819 23.7228 -1.62249 17.4647 2.27469 14.4062C3.57769 13.3529 5.30708 13.2115 6.86456 13.7229C7.43947 13.8784 8.05211 13.4048 8.03558 12.8087V10.9827C8.03558 9.42288 9.30324 8.15523 10.863 8.15523H13.6315C14.2253 8.16937 14.7059 7.55912 14.5457 6.98421C12.7621 1.949 19.1237 -1.74568 22.5144 2.39434C23.3956 3.52531 23.7019 4.96963 23.3555 6.35979L23.2 6.98656C23.0398 7.55912 23.5204 8.17411 24.1142 8.15759C25.6504 8.25183 27.632 7.77588 28.7676 8.89275C29.2695 8.44036 29.9245 8.15759 30.6526 8.15759H46.6726C48.2323 8.15759 49.5 9.42524 49.5 10.985V11.9275C49.5 12.4482 49.0782 12.87 48.5575 12.87C48.0368 12.87 47.615 12.4482 47.615 11.9275L47.6102 11.9228ZM42.297 38.0479L33.5346 40.5902C33.9045 38.307 32.0172 36.1912 29.7175 36.2124H23.6127C23.1226 36.2124 22.6466 36.0734 22.2343 35.8119L19.216 33.8963C17.9366 33.0857 16.4593 32.6546 14.9443 32.6546H4.26369C3.03609 32.6758 3.01492 34.5159 4.26369 34.5395H14.9443C16.1012 34.5395 17.2298 34.867 18.2076 35.4891L21.2259 37.4046C21.9422 37.8594 22.7669 38.0997 23.6151 38.0997H29.7199C32.3305 38.168 32.3376 41.9992 29.7199 42.0675H20.981C20.4602 42.0675 20.0385 42.4893 20.0385 43.01C20.0385 43.5307 20.4602 43.9525 20.981 43.9525H29.7199C30.7425 43.9525 31.6661 43.5472 32.3588 42.8969L42.8229 39.8621C43.6051 39.6359 44.425 40.0601 44.6961 40.8258C44.9576 41.5681 44.6183 42.3833 43.9067 42.7202L27.4838 50.4983C24.3572 51.9756 20.7052 51.8224 17.7177 50.0789L11.1978 46.276C10.6512 45.9579 10.0268 45.7882 9.39534 45.7882H4.26592C3.04073 45.8024 3.01715 47.652 4.26592 47.6732H9.39534C9.69458 47.6732 9.98911 47.7533 10.2483 47.9041L16.7681 51.707C18.6884 52.8286 20.8396 53.3917 22.9978 53.3917C24.8027 53.3917 26.6099 52.9959 28.2898 52.2018L44.7127 44.4237C48.4496 42.5882 46.3244 36.9569 42.2976 38.0547L42.297 38.0479Z" fill="white"/>
</svg>
