<svg width="54" height="54" viewBox="0 0 54 54" fill="none" xmlns="http://www.w3.org/2000/svg">
<path fill-rule="evenodd" clip-rule="evenodd" d="M33.5666 24.6959C31.3683 26.5004 29.1911 28.0073 27.5203 29.0994C27.2484 29.2846 26.8828 29.301 26.5898 29.1088C20.8387 25.3661 11.7151 18.3684 10.8877 10.9037C10.5901 8.21091 11.3541 5.47594 13.7258 2.84867C16.4233 -0.137082 20.5342 -0.744059 24.1687 0.884767C25.2303 1.36052 26.217 2.01203 27.0466 2.79713C30.8527 -0.743999 36.7654 -1.13541 40.3651 2.84869C44.9866 7.96471 43.5524 13.5495 39.7862 18.4548C38.0215 20.7562 35.7834 22.8771 33.5641 24.698L33.5666 24.6959ZM13.0133 36.7514L7.5293 27.2553C7.01137 26.3202 7.20354 25.4203 7.73553 24.7688C8.71514 23.5689 10.8244 23.0603 11.8673 24.8063L15.5068 31.1154C15.5889 31.256 15.7014 31.3615 15.835 31.4342L21.715 35.2354C24.607 37.1056 26.2053 40.0468 26.2053 43.4968V53.1592C26.2053 53.6232 26.5827 54.0005 27.0467 54.0005C27.5107 54.0005 27.8903 53.6232 27.8903 53.1592V43.4968C27.8903 40.0471 29.4887 37.1061 32.3806 35.2354L38.2607 31.4342C38.3919 31.3638 38.5068 31.256 38.5888 31.1154L42.2307 24.8087C43.2432 23.0791 45.3688 23.5525 46.3625 24.7712C46.8945 25.425 47.089 26.3249 46.5664 27.2577L41.0847 36.7538C40.8527 37.1546 40.9886 37.6701 41.3917 37.9022C41.7925 38.1342 42.3081 37.9983 42.5401 37.5952L48.0311 28.0829C48.8443 26.6322 48.6709 25.2237 47.9631 24.1175L47.9866 11.9216C48.0358 9.85921 52.2918 9.69986 52.2964 11.7809L52.3269 25.1276C52.2683 26.1635 52.2097 27.2158 52.1582 28.1907C51.7996 34.9048 51.6496 37.7948 50.4872 39.8221C49.6154 41.3431 48.085 42.5383 45.4016 44.6334C44.115 45.6365 42.5729 46.8434 40.6933 48.4019C39.2402 49.6088 38.4598 51.2657 38.4598 53.1524C38.4598 53.6164 38.8371 53.9937 39.3011 53.9937C39.7652 53.9937 40.1425 53.6164 40.1425 53.1524C40.1425 51.7533 40.6908 50.5838 41.7642 49.6909C43.5992 48.1675 45.146 46.9606 46.4303 45.9552C49.2871 43.7265 50.9159 42.4539 51.9424 40.6587C53.304 38.2894 53.4634 35.2778 53.8359 28.2774L54 25.1721L53.9695 11.7811C53.9602 7.51105 46.4983 7.59072 46.3039 11.849L46.2851 22.5685C44.429 21.5514 42.0362 21.7904 40.7777 23.9652L37.2318 30.101L31.4736 33.8226C29.4371 35.1397 27.9207 36.9349 27.0466 39.0816C26.1724 36.9349 24.6584 35.1397 22.6219 33.8226L16.8637 30.101L13.3202 23.9634C12.0617 21.7886 9.66658 21.5519 7.81277 22.569L7.79168 11.8496C7.59716 7.59125 0.135021 7.51157 0.126022 11.7816C0.116647 16.0469 -0.131774 21.0714 0.0955552 25.2195C0.161179 26.3842 0.212733 27.3685 0.261947 28.2779C0.634575 35.2806 0.796282 38.29 2.15319 40.6592C3.182 42.4567 4.80849 43.727 7.66297 45.9557C8.94958 46.9611 10.494 48.168 12.3314 49.6914C13.4047 50.582 13.9531 51.7537 13.9531 53.1528C13.9531 53.6169 14.3304 53.9942 14.7968 53.9942C15.2631 53.9942 15.6381 53.6168 15.6381 53.1528C15.6381 51.2663 14.8577 49.6094 13.4046 48.4024C11.5251 46.8415 9.983 45.6369 8.69633 44.6339C6.0129 42.5387 4.48493 41.3458 3.61307 39.8226C2.45065 37.793 2.29598 34.9057 1.93973 28.1912C1.88817 27.2139 1.83192 26.1616 1.77334 25.1281L1.8038 11.7814C1.80849 9.69795 6.06446 9.8597 6.11366 11.922L6.1371 24.118C5.43167 25.2242 5.25354 26.6327 6.06913 28.0833L11.5578 37.5957C11.7898 37.9964 12.3054 38.1347 12.7062 37.9027C13.1069 37.6707 13.2452 37.1551 13.0132 36.7543L13.0133 36.7514ZM27.0469 27.4005C32.2168 23.9789 40.7967 17.3818 41.5347 10.7187C41.7807 8.48286 41.1316 6.19786 39.1231 3.97393C36.0788 0.603851 31.0657 1.15227 27.9585 4.25985C27.4617 4.75435 26.6297 4.76606 26.1305 4.25048C23.1143 1.15697 18.0029 0.615572 14.9701 3.97393C10.9485 8.42676 12.357 13.1563 15.6404 17.4334C18.6331 21.3331 23.182 24.8441 27.0469 27.4005ZM39.325 10.6227C39.5594 7.80803 38.4556 4.99572 35.7886 3.84734C35.362 3.66454 34.8675 3.86141 34.6824 4.28794C34.4996 4.71447 34.6964 5.209 35.123 5.39414C37.101 6.24722 37.8181 8.39627 37.6446 10.4844C37.6071 10.9485 37.9516 11.3539 38.4133 11.3937C38.8773 11.4312 39.2828 11.0867 39.3226 10.6251L39.325 10.6227Z" fill="white"/>
</svg>
