<svg width="54" height="64" viewBox="0 0 54 64" fill="none" xmlns="http://www.w3.org/2000/svg">
<path d="M39.3094 39.6953C42.7769 36.3324 44.6836 31.827 44.6836 26.9945C44.6836 17.2465 36.7535 9.31635 27.0054 9.31635C17.2574 9.31635 9.32728 17.2465 9.32728 26.9945C9.32728 31.8216 11.2367 36.3327 14.7015 39.6953C16.5197 41.4599 17.4476 43.6348 17.4476 46.1691V46.6706C16.088 46.9656 15.0582 48.1804 15.0582 49.6286C15.0582 50.5967 15.5114 51.4629 16.2247 52.018C15.5168 52.5731 15.0582 53.4393 15.0582 54.4075C15.0582 56.0756 16.4178 57.4352 18.0859 57.4352H18.6357C19.99 60.8759 23.2831 63.1608 27.0051 63.1608C30.7272 63.1608 34.0208 60.8759 35.3746 57.4352H35.9244C37.5925 57.4352 38.9521 56.0756 38.9521 54.4075C38.9521 53.4393 38.4989 52.5732 37.7856 52.018C38.4935 51.4629 38.9521 50.5967 38.9521 49.6286C38.9521 48.1804 37.9304 46.9656 36.5627 46.6706V46.1691C36.5627 43.6348 37.4885 41.4599 39.3094 39.6953ZM15.6028 38.7674C12.39 35.6512 10.6174 31.4703 10.6174 26.9948C10.6174 17.9518 17.9708 10.6011 27.0111 10.6011C36.054 10.6011 43.4047 17.9545 43.4047 26.9948C43.4047 31.4706 41.6348 35.6512 38.4193 38.7674C36.3383 40.7868 35.2817 43.2701 35.2817 46.1689V46.6006H18.7329V46.1689C18.7329 43.2725 17.6839 40.7785 15.6028 38.7674ZM27.0054 61.8705C23.9911 61.8705 21.3013 60.1193 20.0433 57.4349H33.9723C32.7092 60.1194 30.0194 61.8705 27.0054 61.8705ZM35.922 56.145H18.088C17.128 56.145 16.3449 55.3619 16.3449 54.4018C16.3449 53.4418 17.1279 52.6586 18.088 52.6586H35.9165C36.8766 52.6586 37.6597 53.4417 37.6597 54.4018C37.6597 55.3619 36.8767 56.145 35.922 56.145ZM37.6598 49.6283C37.6598 50.5883 36.8767 51.3715 35.9166 51.3715H18.0881C17.128 51.3715 16.3449 50.5884 16.3449 49.6283C16.3449 48.6683 17.128 47.8851 18.0881 47.8851H35.9166C36.8766 47.8932 37.6598 48.6682 37.6598 49.6283ZM7.91928 8.81477C7.66451 8.56001 7.66451 8.15506 7.91928 7.90299C8.17404 7.64823 8.57899 7.64823 8.83106 7.90299L12.5534 11.6253C12.8081 11.8801 12.8081 12.285 12.5534 12.5371C12.43 12.6604 12.2637 12.7302 12.1001 12.7302C11.9365 12.7302 11.7703 12.6685 11.6469 12.5451L7.91928 8.81477ZM6.5596 26.9941C6.5596 27.3508 6.26997 27.6404 5.9133 27.6404H0.646306C0.289633 27.6404 0 27.3508 0 26.9941C0 26.6374 0.289633 26.3478 0.646306 26.3478H5.9133C6.27265 26.3478 6.5596 26.6374 6.5596 26.9941ZM12.548 41.4517C12.8028 41.7065 12.8028 42.1114 12.548 42.3635L8.8257 46.0858C8.70234 46.2092 8.53607 46.2789 8.37248 46.2789C8.2089 46.2789 8.04263 46.2172 7.91926 46.0939C7.6645 45.8391 7.6645 45.4341 7.91926 45.1821L11.6416 41.4598C11.8883 41.1996 12.2986 41.1996 12.548 41.4517ZM41.4626 12.5426C41.2078 12.2879 41.2078 11.8829 41.4626 11.6308L45.1849 7.90855C45.4397 7.65379 45.8446 7.65379 46.0967 7.90855C46.3514 8.16332 46.3514 8.56827 46.0967 8.82033L42.3744 12.5426C42.251 12.666 42.0847 12.7357 41.9212 12.7357C41.7522 12.7277 41.586 12.666 41.4626 12.5426ZM26.3589 5.91061V0.643622C26.3589 0.289634 26.6486 0 27.0052 0C27.3619 0 27.6515 0.289633 27.6515 0.646306V5.9133C27.6515 6.26997 27.3619 6.5596 27.0052 6.5596C26.6486 6.54887 26.3589 6.26192 26.3589 5.91061ZM54 26.9946C54 27.3513 53.7104 27.6409 53.3537 27.6409H48.0867C47.73 27.6409 47.4404 27.3513 47.4404 26.9946C47.4404 26.638 47.73 26.3483 48.0867 26.3483H53.3537C53.7104 26.3483 54 26.638 54 26.9946ZM46.0912 45.174C46.3459 45.4287 46.3459 45.8337 46.0912 46.0857C45.9678 46.2091 45.8015 46.2788 45.638 46.2788C45.4744 46.2788 45.3081 46.2171 45.1847 46.0857L41.4624 42.3634C41.2077 42.1087 41.2077 41.7037 41.4624 41.4517C41.7172 41.1969 42.1221 41.1969 42.3742 41.4517L46.0912 45.174Z" fill="white"/>
</svg>
