<svg width="51" height="49" viewBox="0 0 51 49" fill="none" xmlns="http://www.w3.org/2000/svg">
<path d="M41.3928 0.115088C41.0916 -0.0655318 40.7245 -0.0304873 40.4539 0.198655L31.9399 7.29107C28.9937 9.74694 25.5061 11.0463 21.8615 11.0463H8.37999C6.88099 11.0463 5.62676 12.219 5.25965 13.8068H3.56065C1.7722 13.8068 0.320312 15.4701 0.320312 17.5189V25.9647C0.320312 28.0135 1.77226 29.6768 3.56065 29.6768H5.25965C5.62675 31.2646 6.88099 32.4373 8.37999 32.4373H8.89298L11.0744 47.4068C11.2062 48.3314 11.9004 49 12.7193 49H18.407C18.8941 49 19.3576 48.752 19.6777 48.3234C19.9978 47.8947 20.1295 47.3286 20.0518 46.7786L18.967 39.3384H20.5037C21.0755 39.3384 21.612 39.0473 21.9744 38.5459C22.3368 38.0418 22.4803 37.3786 22.365 36.737L21.612 32.4372H21.8709C25.516 32.4372 29.0035 33.7338 31.9493 36.1924L40.4608 43.28C40.6185 43.4121 40.8044 43.4795 40.9903 43.4795C41.1292 43.4795 41.2727 43.4444 41.3998 43.3689C41.701 43.1883 41.8939 42.8379 41.8939 42.4443V1.03959C41.8869 0.654096 41.694 0.295693 41.3928 0.115088ZM2.12726 25.9678V17.5193C2.12726 16.6162 2.77203 15.8776 3.56035 15.8776H5.13935V27.6097H3.56035C2.77203 27.6097 2.12726 26.8709 2.12726 25.9678ZM6.9466 28.7283V14.7588C6.9466 13.8557 7.59136 13.1171 8.37969 13.1171H20.8021V30.3702H20.5127H20.5009H8.37969C7.59136 30.3702 6.9466 29.6314 6.9466 28.7283ZM12.8319 46.9332L10.7235 32.4405H16.1216L18.2301 46.9332H12.8319ZM20.5784 37.1472C20.5784 37.1607 20.5854 37.1957 20.5596 37.2361C20.529 37.2766 20.4984 37.2766 20.4866 37.2766H18.6488L17.9428 32.4457H19.75L20.5784 37.1472ZM40.0792 40.4118L33.0081 34.5188C29.9536 31.9712 26.3694 30.564 22.6091 30.3996V13.076C26.3672 12.9116 29.9466 11.5017 33.0081 8.95683L40.0792 3.06378V40.4118ZM50.3203 21.7433C50.3203 22.3148 49.9156 22.7784 49.4167 22.7784H45.8022C45.3033 22.7784 44.8986 22.3148 44.8986 21.7433C44.8986 21.1717 45.3033 20.7081 45.8022 20.7081H49.4167C49.9156 20.7081 50.3203 21.1717 50.3203 21.7433ZM45.1645 10.0518C44.8091 9.64479 44.8091 8.98968 45.1645 8.58803L47.5741 5.82753C47.9295 5.42046 48.5013 5.42046 48.8519 5.82753C49.2002 6.23459 49.2072 6.8897 48.8519 7.29135L46.4423 10.0518C46.2681 10.2513 46.0328 10.3565 45.8045 10.3565C45.5739 10.3565 45.3386 10.254 45.1645 10.0518ZM48.8496 36.1958C49.2049 36.6029 49.2049 37.258 48.8496 37.6597C48.6754 37.8592 48.4401 37.9643 48.2119 37.9643C47.9836 37.9643 47.7483 37.8619 47.5741 37.6597L45.1645 34.8992C44.8091 34.4921 44.8091 33.837 45.1645 33.4353C45.5198 33.0364 46.0916 33.0283 46.4423 33.4353L48.8496 36.1958Z" fill="white"/>
</svg>
