<svg width="120" height="24" viewBox="0 0 120 24" fill="none" xmlns="http://www.w3.org/2000/svg">
<path d="M21 10.207C20.9911 10.419 20.879 10.6611 20.6616 10.8523C19.791 11.6171 18.9199 12.3811 18.0484 13.1445C17.6415 13.5015 17.234 13.858 16.826 14.2139C16.7677 14.2646 16.7528 14.3095 16.7708 14.3882C17.084 15.757 17.3947 17.1263 17.7028 18.4962C17.7652 18.7715 17.8266 19.0473 17.894 19.3217C17.9923 19.728 17.8668 20.1295 17.5501 20.3568C17.2017 20.6067 16.8317 20.623 16.4634 20.4046C15.2903 19.7072 14.1187 19.007 12.9486 18.3041C12.6754 18.1408 12.3989 17.9814 12.1302 17.8122C12.0404 17.7556 11.9751 17.7551 11.8829 17.8105C10.4599 18.6647 9.03387 19.5136 7.61258 20.3675C7.31073 20.5487 7.00243 20.6168 6.6688 20.4798C6.22738 20.2987 5.99675 19.8346 6.10645 19.3523C6.41666 17.9872 6.72735 16.622 7.03852 15.2569C7.104 14.9701 7.16256 14.6812 7.23354 14.3965C7.25409 14.3143 7.23975 14.2658 7.17737 14.2116C6.64267 13.7465 6.10932 13.2798 5.57732 12.8115C4.8319 12.1572 4.08362 11.5074 3.3425 10.8482C3.03994 10.5796 2.92522 10.2366 3.04926 9.84445C3.1733 9.45226 3.45053 9.21614 3.86399 9.17359C4.59674 9.09855 5.33068 9.0357 6.06415 8.96854C6.78973 8.9021 7.51531 8.83614 8.24089 8.77065C8.48275 8.74891 8.72461 8.72453 8.96671 8.70613C9.04462 8.70039 9.08621 8.66621 9.11536 8.59523C9.77259 7.05086 10.4309 5.50713 11.0904 3.96404C11.2725 3.53744 11.5978 3.29916 12.0112 3.30992C12.4247 3.32067 12.723 3.52262 12.8869 3.90238C13.3331 4.93554 13.7736 5.9711 14.2159 7.00617C14.4411 7.53196 14.6667 8.05917 14.888 8.58735C14.9219 8.6686 14.9704 8.70015 15.0553 8.70684C15.6384 8.75623 16.2214 8.80802 16.8042 8.86219C17.6528 8.9393 18.5013 9.01705 19.3497 9.09544C19.6193 9.11934 19.8891 9.14324 20.158 9.17336C20.647 9.23119 21.0038 9.63915 21 10.207Z" fill="#4A3AFF"/>
<path d="M45 10.207C44.9911 10.419 44.879 10.6611 44.6616 10.8523C43.791 11.6171 42.9199 12.3811 42.0484 13.1445C41.6415 13.5015 41.234 13.858 40.826 14.2139C40.7677 14.2646 40.7528 14.3095 40.7708 14.3882C41.084 15.757 41.3947 17.1263 41.7028 18.4962C41.7652 18.7715 41.8266 19.0473 41.894 19.3217C41.9923 19.728 41.8668 20.1295 41.5501 20.3568C41.2017 20.6067 40.8317 20.623 40.4634 20.4046C39.2903 19.7072 38.1187 19.007 36.9486 18.3041C36.6754 18.1408 36.3989 17.9814 36.1302 17.8122C36.0404 17.7556 35.9751 17.7551 35.8829 17.8105C34.4599 18.6647 33.0339 19.5136 31.6126 20.3675C31.3107 20.5487 31.0024 20.6168 30.6688 20.4798C30.2274 20.2987 29.9968 19.8346 30.1065 19.3523C30.4167 17.9872 30.7274 16.622 31.0385 15.2569C31.104 14.9701 31.1626 14.6812 31.2335 14.3965C31.2541 14.3143 31.2398 14.2658 31.1774 14.2116C30.6427 13.7465 30.1093 13.2798 29.5773 12.8115C28.8319 12.1572 28.0836 11.5074 27.3425 10.8482C27.0399 10.5796 26.9252 10.2366 27.0493 9.84445C27.1733 9.45226 27.4505 9.21614 27.864 9.17359C28.5967 9.09855 29.3307 9.0357 30.0641 8.96854C30.7897 8.9021 31.5153 8.83614 32.2409 8.77065C32.4827 8.74891 32.7246 8.72453 32.9667 8.70613C33.0446 8.70039 33.0862 8.66621 33.1154 8.59523C33.7726 7.05086 34.4309 5.50713 35.0904 3.96404C35.2725 3.53744 35.5978 3.29916 36.0112 3.30992C36.4247 3.32067 36.723 3.52262 36.8869 3.90238C37.3331 4.93554 37.7736 5.9711 38.2159 7.00617C38.4411 7.53196 38.6667 8.05917 38.888 8.58735C38.9219 8.6686 38.9704 8.70015 39.0553 8.70684C39.6384 8.75623 40.2214 8.80802 40.8042 8.86219C41.6528 8.9393 42.5013 9.01705 43.3497 9.09544C43.6193 9.11934 43.8891 9.14324 44.158 9.17336C44.647 9.23119 45.0038 9.63915 45 10.207Z" fill="#4A3AFF"/>
<path d="M69 10.207C68.9911 10.419 68.879 10.6611 68.6616 10.8523C67.791 11.6171 66.9199 12.3811 66.0484 13.1445C65.6415 13.5015 65.234 13.858 64.826 14.2139C64.7677 14.2646 64.7528 14.3095 64.7708 14.3882C65.084 15.757 65.3947 17.1263 65.7028 18.4962C65.7652 18.7715 65.8266 19.0473 65.894 19.3217C65.9923 19.728 65.8668 20.1295 65.5501 20.3568C65.2017 20.6067 64.8317 20.623 64.4634 20.4046C63.2903 19.7072 62.1187 19.007 60.9486 18.3041C60.6754 18.1408 60.3989 17.9814 60.1302 17.8122C60.0404 17.7556 59.9751 17.7551 59.8829 17.8105C58.4599 18.6647 57.0339 19.5136 55.6126 20.3675C55.3107 20.5487 55.0024 20.6168 54.6688 20.4798C54.2274 20.2987 53.9968 19.8346 54.1065 19.3523C54.4167 17.9872 54.7274 16.622 55.0385 15.2569C55.104 14.9701 55.1626 14.6812 55.2335 14.3965C55.2541 14.3143 55.2398 14.2658 55.1774 14.2116C54.6427 13.7465 54.1093 13.2798 53.5773 12.8115C52.8319 12.1572 52.0836 11.5074 51.3425 10.8482C51.0399 10.5796 50.9252 10.2366 51.0493 9.84445C51.1733 9.45226 51.4505 9.21614 51.864 9.17359C52.5967 9.09855 53.3307 9.0357 54.0641 8.96854C54.7897 8.9021 55.5153 8.83614 56.2409 8.77065C56.4827 8.74891 56.7246 8.72453 56.9667 8.70613C57.0446 8.70039 57.0862 8.66621 57.1154 8.59523C57.7726 7.05086 58.4309 5.50713 59.0904 3.96404C59.2725 3.53744 59.5978 3.29916 60.0112 3.30992C60.4247 3.32067 60.723 3.52262 60.8869 3.90238C61.3331 4.93554 61.7736 5.9711 62.2159 7.00617C62.4411 7.53196 62.6667 8.05917 62.888 8.58735C62.9219 8.6686 62.9704 8.70015 63.0553 8.70684C63.6384 8.75623 64.2214 8.80802 64.8042 8.86219C65.6528 8.9393 66.5013 9.01705 67.3497 9.09544C67.6193 9.11934 67.8891 9.14324 68.158 9.17336C68.647 9.23119 69.0038 9.63915 69 10.207Z" fill="#4A3AFF"/>
<path d="M93 10.207C92.9911 10.419 92.879 10.6611 92.6616 10.8523C91.791 11.6171 90.9199 12.3811 90.0484 13.1445C89.6415 13.5015 89.234 13.858 88.826 14.2139C88.7677 14.2646 88.7528 14.3095 88.7708 14.3882C89.084 15.757 89.3947 17.1263 89.7028 18.4962C89.7652 18.7715 89.8266 19.0473 89.894 19.3217C89.9923 19.728 89.8668 20.1295 89.5501 20.3568C89.2017 20.6067 88.8317 20.623 88.4634 20.4046C87.2903 19.7072 86.1187 19.007 84.9486 18.3041C84.6754 18.1408 84.3989 17.9814 84.1302 17.8122C84.0404 17.7556 83.9751 17.7551 83.8829 17.8105C82.4599 18.6647 81.0339 19.5136 79.6126 20.3675C79.3107 20.5487 79.0024 20.6168 78.6688 20.4798C78.2274 20.2987 77.9968 19.8346 78.1065 19.3523C78.4167 17.9872 78.7274 16.622 79.0385 15.2569C79.104 14.9701 79.1626 14.6812 79.2335 14.3965C79.2541 14.3143 79.2398 14.2658 79.1774 14.2116C78.6427 13.7465 78.1093 13.2798 77.5773 12.8115C76.8319 12.1572 76.0836 11.5074 75.3425 10.8482C75.0399 10.5796 74.9252 10.2366 75.0493 9.84445C75.1733 9.45226 75.4505 9.21614 75.864 9.17359C76.5967 9.09855 77.3307 9.0357 78.0641 8.96854C78.7897 8.9021 79.5153 8.83614 80.2409 8.77065C80.4827 8.74891 80.7246 8.72453 80.9667 8.70613C81.0446 8.70039 81.0862 8.66621 81.1154 8.59523C81.7726 7.05086 82.4309 5.50713 83.0904 3.96404C83.2725 3.53744 83.5978 3.29916 84.0112 3.30992C84.4247 3.32067 84.723 3.52262 84.8869 3.90238C85.3331 4.93554 85.7736 5.9711 86.2159 7.00617C86.4411 7.53196 86.6667 8.05917 86.888 8.58735C86.9219 8.6686 86.9704 8.70015 87.0553 8.70684C87.6384 8.75623 88.2214 8.80802 88.8042 8.86219C89.6528 8.9393 90.5013 9.01705 91.3497 9.09544C91.6193 9.11934 91.8891 9.14324 92.158 9.17336C92.647 9.23119 93.0038 9.63915 93 10.207Z" fill="#4A3AFF"/>
<path d="M117 10.207C116.991 10.419 116.879 10.6611 116.662 10.8523C115.791 11.6171 114.92 12.3811 114.048 13.1445C113.641 13.5015 113.234 13.858 112.826 14.2139C112.768 14.2646 112.753 14.3095 112.771 14.3882C113.084 15.757 113.395 17.1263 113.703 18.4962C113.765 18.7715 113.827 19.0473 113.894 19.3217C113.992 19.728 113.867 20.1295 113.55 20.3568C113.202 20.6067 112.832 20.623 112.463 20.4046C111.29 19.7072 110.119 19.007 108.949 18.3041C108.675 18.1408 108.399 17.9814 108.13 17.8122C108.04 17.7556 107.975 17.7551 107.883 17.8105C106.46 18.6647 105.034 19.5136 103.613 20.3675C103.311 20.5487 103.002 20.6168 102.669 20.4798C102.227 20.2987 101.997 19.8346 102.106 19.3523C102.417 17.9872 102.727 16.622 103.039 15.2569C103.104 14.9701 103.163 14.6812 103.234 14.3965C103.254 14.3143 103.24 14.2658 103.177 14.2116C102.643 13.7465 102.109 13.2798 101.577 12.8115C100.832 12.1572 100.084 11.5074 99.3425 10.8482C99.0399 10.5796 98.9252 10.2366 99.0493 9.84445C99.1733 9.45226 99.4505 9.21614 99.864 9.17359C100.597 9.09855 101.331 9.0357 102.064 8.96854C102.79 8.9021 103.515 8.83614 104.241 8.77065C104.483 8.74891 104.725 8.72453 104.967 8.70613C105.045 8.70039 105.086 8.66621 105.115 8.59523C105.773 7.05086 106.431 5.50713 107.09 3.96404C107.273 3.53744 107.598 3.29916 108.011 3.30992C108.425 3.32067 108.723 3.52262 108.887 3.90238C109.333 4.93554 109.774 5.9711 110.216 7.00617C110.441 7.53196 110.667 8.05917 110.888 8.58735C110.922 8.6686 110.97 8.70015 111.055 8.70684C111.638 8.75623 112.221 8.80802 112.804 8.86219C113.653 8.9393 114.501 9.01705 115.35 9.09544C115.619 9.11934 115.889 9.14324 116.158 9.17336C116.647 9.23119 117.004 9.63915 117 10.207Z" fill="#4A3AFF"/>
</svg>
