<svg width="49" height="55" viewBox="0 0 49 55" fill="none" xmlns="http://www.w3.org/2000/svg">
<path d="M24.4927 43.9589C21.7209 43.9589 19.4639 41.7019 19.4639 38.9301C19.4639 38.4033 19.8916 37.9707 20.4232 37.9707C20.9549 37.9707 21.3826 38.3984 21.3826 38.9301C21.3826 40.6506 22.7818 42.0474 24.5 42.0474C26.2205 42.0474 27.6173 40.6483 27.6173 38.9301C27.6173 38.4033 28.045 37.9707 28.5767 37.9707C29.1083 37.9707 29.5361 38.3984 29.5361 38.9301C29.5288 41.7019 27.2692 43.9589 24.4927 43.9589Z" fill="white"/>
<path d="M20.4204 33.6835C19.8936 33.6835 19.4611 33.2558 19.4611 32.7241C19.4611 31.0036 18.0619 29.6068 16.3437 29.6068C14.6232 29.6068 13.2264 31.0059 13.2264 32.7241C13.2264 33.2509 12.7986 33.6835 12.267 33.6835C11.7353 33.6835 11.3076 33.2558 11.3076 32.7241C11.3076 29.9523 13.5646 27.6953 16.3364 27.6953C19.1082 27.6953 21.3652 29.9523 21.3652 32.7241C21.3797 33.2509 20.9472 33.6835 20.4204 33.6835Z" fill="white"/>
<path d="M36.7154 33.2821C36.1886 33.2821 35.756 32.8544 35.756 32.3227C35.756 30.6022 34.3568 29.2054 32.6386 29.2054C30.9181 29.2054 29.5213 30.6046 29.5213 32.3227C29.5213 32.8495 29.0936 33.2821 28.5619 33.2821C28.0303 33.2821 27.6025 32.8544 27.6025 32.3227C27.6025 29.551 29.8596 27.2939 32.6313 27.2939C35.4031 27.2939 37.6601 29.551 37.6601 32.3227C37.6746 32.8544 37.2421 33.2821 36.7154 33.2821Z" fill="white"/>
<path d="M40.0622 54.0744C42.7228 54.0744 44.8808 51.9092 44.8808 49.2558L44.8832 39.7709C47.2224 39.3384 48.9961 37.2892 48.9961 34.8291C48.9961 32.3667 47.2199 30.3199 44.8832 29.8873V20.4099C44.8832 17.7492 42.718 15.5913 40.0646 15.5913L29.4297 15.5889C29.0406 13.5855 27.4554 11.9955 25.4521 11.6112V7.17447C26.7522 6.76607 27.6922 5.55297 27.6922 4.1248C27.6922 2.36071 26.2568 0.925293 24.4927 0.925293C22.7286 0.925293 21.2932 2.36071 21.2932 4.1248C21.2932 5.55297 22.2404 6.76605 23.5333 7.17447V11.6112C21.53 12.0003 19.9399 13.5855 19.5557 15.5889H8.9276C6.26698 15.5889 4.10901 17.7541 4.10901 20.4074V29.8849C1.76984 30.3174 -0.00390625 32.3667 -0.00390625 34.8267C-0.00390625 37.2892 1.77225 39.336 4.10901 39.7685V49.246C4.10901 51.9066 6.27422 54.0646 8.9276 54.0646M23.2118 4.11991C23.2118 3.4143 23.7869 2.83433 24.4974 2.83433C25.2078 2.83433 25.783 3.40947 25.783 4.11991C25.783 4.83035 25.2078 5.40549 24.4974 5.40549C23.787 5.40791 23.2118 4.82552 23.2118 4.11991ZM24.4926 13.4309C25.8773 13.4309 27.0541 14.3396 27.4553 15.5889H21.5299C21.9383 14.3348 23.1127 13.4309 24.4926 13.4309ZM1.90507 34.8294C1.90507 33.4303 2.83302 32.2437 4.10171 31.8547V37.8114C2.83302 37.4151 1.90507 36.2262 1.90507 34.8294ZM8.92778 52.1561C7.32565 52.1561 6.02071 50.8511 6.02071 49.249V20.4102C6.02071 18.8081 7.32565 17.5032 8.92778 17.5032H40.0623C41.6644 17.5032 42.9694 18.8081 42.9694 20.4102V49.2515C42.9694 50.8536 41.6644 52.1586 40.0623 52.1586M44.8833 37.8119V31.8551C46.1568 32.2514 47.0799 33.4331 47.0799 34.8299C47.0848 36.2266 46.1568 37.4156 44.8833 37.8119Z" fill="white"/>
</svg>
