<svg width="20" height="16" viewBox="0 0 20 16" fill="none" xmlns="http://www.w3.org/2000/svg">
<path d="M2.03818 7.30512C6.9939 5.18829 10.2985 3.79274 11.9519 3.11849C16.6729 1.19334 17.6539 0.858924 18.2933 0.847763C18.4339 0.845452 18.7483 0.879621 18.952 1.04165C19.124 1.17847 19.1713 1.36329 19.1939 1.493C19.2166 1.62272 19.2448 1.91822 19.2224 2.14911C18.9665 4.78448 17.8596 11.1798 17.2964 14.1315C17.0581 15.3805 16.5889 15.7992 16.1346 15.8402C15.1474 15.9293 14.3978 15.2006 13.4417 14.5861C11.9455 13.6246 11.1002 13.026 9.64792 12.0877C7.96953 11.0033 9.05756 10.4073 10.0141 9.43332C10.2644 9.17842 14.614 5.29961 14.6982 4.94775C14.7087 4.90374 14.7185 4.7397 14.6191 4.65308C14.5197 4.56647 14.373 4.59609 14.2671 4.61964C14.1171 4.65303 11.7269 6.2019 7.09661 9.26624C6.41817 9.72299 5.80365 9.94553 5.25307 9.93387C4.6461 9.92101 3.47853 9.5974 2.61056 9.32078C1.54596 8.9815 0.699837 8.80212 0.773515 8.22592C0.811892 7.9258 1.23345 7.61887 2.03818 7.30512Z" fill="#0C1518"/>
</svg>
