<svg width="20" height="13" viewBox="0 0 20 13" fill="none" xmlns="http://www.w3.org/2000/svg">
<path fill-rule="evenodd" clip-rule="evenodd" d="M2.93775 0.347656H0.750191C0.125032 0.347656 0 0.644751 0 0.973172C0 1.55827 0.741188 4.46252 3.45388 8.30252C5.26134 10.9258 7.80898 12.3477 10.1266 12.3477C11.5179 12.3477 11.69 12.0314 11.69 11.4887V9.50606C11.69 8.87448 11.822 8.74816 12.2621 8.74816C12.5872 8.74816 13.1423 8.91187 14.4417 10.176C15.925 11.6757 16.1691 12.3477 17.0033 12.3477H19.1919C19.817 12.3477 20.1301 12.0314 19.9491 11.4079C19.752 10.7874 19.0438 9.88601 18.1036 8.81789C17.5935 8.20955 16.8293 7.55372 16.5972 7.2253C16.2721 6.80391 16.3652 6.61696 16.5972 6.24206C16.5972 6.24206 19.2629 2.44854 19.541 1.16012C19.681 0.692246 19.541 0.347656 18.8788 0.347656H16.6912C16.1351 0.347656 15.878 0.644751 15.739 0.973172C15.739 0.973172 14.6267 3.71271 13.0503 5.49225C12.5402 6.00761 12.3081 6.17233 12.0301 6.17233C11.891 6.17233 11.69 6.00761 11.69 5.53974V1.16012C11.69 0.598267 11.5289 0.347656 11.0648 0.347656H7.62594C7.27885 0.347656 7.0698 0.608372 7.0698 0.855951C7.0698 1.3885 7.858 1.51178 7.93902 3.01039V6.2653C7.93902 6.97974 7.81198 7.10909 7.53291 7.10909C6.79173 7.10909 4.98727 4.35641 3.917 1.20761C3.70694 0.595235 3.49689 0.347656 2.93775 0.347656Z" fill="#0C1518"/>
</svg>
