<svg width="18" height="19" viewBox="0 0 18 19" fill="none" xmlns="http://www.w3.org/2000/svg">
<path d="M9 1.97416C11.3855 1.97416 11.7108 1.97416 12.6867 1.97416C13.5542 1.97416 13.988 2.19103 14.3133 2.29946C14.747 2.51633 15.0723 2.62477 15.3976 2.95007C15.7229 3.27537 15.9398 3.60067 16.0482 4.0344C16.1566 4.35971 16.2651 4.79344 16.3735 5.66091C16.3735 6.63681 16.3735 6.85368 16.3735 9.34766C16.3735 11.8416 16.3735 12.0585 16.3735 13.0344C16.3735 13.9019 16.1566 14.3356 16.0482 14.6609C15.8313 15.0946 15.7229 15.4199 15.3976 15.7452C15.0723 16.0705 14.747 16.2874 14.3133 16.3959C13.988 16.5043 13.5542 16.6127 12.6867 16.7212C11.7108 16.7212 11.494 16.7212 9 16.7212C6.50602 16.7212 6.28916 16.7212 5.31325 16.7212C4.44578 16.7212 4.01205 16.5043 3.68675 16.3959C3.25301 16.179 2.92771 16.0705 2.60241 15.7452C2.27711 15.4199 2.06024 15.0946 1.95181 14.6609C1.84337 14.3356 1.73494 13.9019 1.62651 13.0344C1.62651 12.0585 1.62651 11.8416 1.62651 9.34766C1.62651 6.85368 1.62651 6.63681 1.62651 5.66091C1.62651 4.79344 1.84337 4.35971 1.95181 4.0344C2.16868 3.60067 2.27711 3.27537 2.60241 2.95007C2.92771 2.62477 3.25301 2.4079 3.68675 2.29946C4.01205 2.19103 4.44578 2.0826 5.31325 1.97416C6.28916 1.97416 6.61446 1.97416 9 1.97416ZM9 0.347656C6.50602 0.347656 6.28916 0.347656 5.31325 0.347656C4.33735 0.347656 3.68675 0.564524 3.14458 0.781392C2.60241 0.998259 2.06024 1.32356 1.51807 1.86573C0.975904 2.4079 0.759037 2.84163 0.433736 3.49224C0.216868 4.0344 0.108434 4.68501 0 5.66091C0 6.63681 0 6.96212 0 9.34766C0 11.8416 0 12.0585 0 13.0344C0 14.0103 0.216868 14.6609 0.433736 15.2031C0.650603 15.7452 0.975904 16.2874 1.51807 16.8296C2.06024 17.3718 2.49398 17.5886 3.14458 17.9139C3.68675 18.1308 4.33735 18.2392 5.31325 18.3477C6.28916 18.3477 6.61446 18.3477 9 18.3477C11.3855 18.3477 11.7108 18.3477 12.6867 18.3477C13.6627 18.3477 14.3133 18.1308 14.8554 17.9139C15.3976 17.6971 15.9398 17.3718 16.4819 16.8296C17.0241 16.2874 17.241 15.8537 17.5663 15.2031C17.7831 14.6609 17.8916 14.0103 18 13.0344C18 12.0585 18 11.7332 18 9.34766C18 6.96212 18 6.63681 18 5.66091C18 4.68501 17.7831 4.0344 17.5663 3.49224C17.3494 2.95007 17.0241 2.4079 16.4819 1.86573C15.9398 1.32356 15.506 1.10669 14.8554 0.781392C14.3133 0.564524 13.6627 0.45609 12.6867 0.347656C11.7108 0.347656 11.494 0.347656 9 0.347656Z" fill="#0C1518"/>
<path d="M9 4.68501C6.39759 4.68501 4.33735 6.74525 4.33735 9.34766C4.33735 11.9501 6.39759 14.0103 9 14.0103C11.6024 14.0103 13.6627 11.9501 13.6627 9.34766C13.6627 6.74525 11.6024 4.68501 9 4.68501ZM9 12.3838C7.3735 12.3838 5.96386 11.0826 5.96386 9.34766C5.96386 7.72115 7.26506 6.31151 9 6.31151C10.6265 6.31151 12.0361 7.61272 12.0361 9.34766C12.0361 10.9742 10.6265 12.3838 9 12.3838Z" fill="#0C1518"/>
<path d="M13.7711 5.66091C14.3699 5.66091 14.8554 5.17544 14.8554 4.57657C14.8554 3.97771 14.3699 3.49224 13.7711 3.49224C13.1722 3.49224 12.6867 3.97771 12.6867 4.57657C12.6867 5.17544 13.1722 5.66091 13.7711 5.66091Z" fill="#0C1518"/>
</svg>
