<svg width="12" height="19" viewBox="0 0 12 19" fill="none" xmlns="http://www.w3.org/2000/svg">
<path fill-rule="evenodd" clip-rule="evenodd" d="M1.07731 5.0121C1.07731 2.43603 3.31771 0.347656 6.08146 0.347656C8.84521 0.347656 11.0856 2.43603 11.0856 5.0121C11.0856 7.58823 8.84521 9.67674 6.08146 9.67674C3.31771 9.67674 1.07731 7.58823 1.07731 5.0121ZM4.01286 5.01216C4.01286 6.07705 4.93902 6.94041 6.08146 6.94041C7.2239 6.94041 8.15006 6.07705 8.15006 5.01216C8.15006 3.94728 7.2239 3.08399 6.08146 3.08399C4.93902 3.08399 4.01286 3.94728 4.01286 5.01216Z" fill="#0C1518"/>
<path d="M7.84814 13.3882C9.85151 13.0078 11.052 12.1235 11.1155 12.076C11.7018 11.6378 11.7959 10.8396 11.3258 10.2931C10.8557 9.74669 9.99946 9.65892 9.41309 10.0971C9.40071 10.1064 8.12027 11.022 6.0135 11.0233C3.9068 11.022 2.5993 10.1064 2.58691 10.0971C2.00054 9.65892 1.14427 9.74669 0.674205 10.2931C0.204068 10.8396 0.298238 11.6378 0.884459 12.076C0.948839 12.1242 2.19891 13.0315 4.25842 13.403L1.38811 16.1991C0.866485 16.7033 0.882168 17.5062 1.42313 17.9924C1.68717 18.2297 2.02747 18.3477 2.36749 18.3477C2.72397 18.3477 3.0801 18.2178 3.34707 17.9597L6.01357 15.312L8.9494 17.9769C9.48134 18.4719 10.3427 18.4711 10.8736 17.9755C11.4046 17.4798 11.4039 16.6767 10.8721 16.1818L7.84814 13.3882Z" fill="#0C1518"/>
</svg>
