<svg width="49" height="49" viewBox="0 0 49 49" fill="none" xmlns="http://www.w3.org/2000/svg">
<path d="M3.23234 14.6989H5.92724C6.81247 14.6989 7.53026 15.4341 7.53026 16.3302V18.3791C5.87718 20.3715 4.70702 22.7511 4.1502 25.2787C3.97185 26.0922 3.89354 26.9274 3.91094 27.767V27.7779C3.93269 28.935 4.1328 30.0835 4.50691 31.1862L7.80434 41.1761C9.34645 45.8525 13.6576 49 18.5342 49H21.3118C26.1949 49 30.5105 45.8549 32.0479 41.1761L35.3388 31.1862C35.578 30.4576 35.7455 29.7115 35.8347 28.9916L38.7254 26.0574C39.1604 25.6181 39.3257 25.0004 39.2256 24.4305C39.4149 24.3522 39.5867 24.2347 39.7324 24.0846L40.9679 22.8426C41.2746 22.5359 41.4464 22.1248 41.4464 21.6898C41.4464 21.3614 41.3464 21.0438 41.168 20.7763L48.2892 14.6341C48.2892 14.6341 48.3 14.6232 48.3066 14.6167C48.7416 14.2099 48.9852 13.6314 49.0026 12.9897C49.02 12.1871 48.6742 11.3758 48.0608 10.7515C47.4605 10.1382 46.6753 9.78797 45.8944 9.78363C45.2702 9.78363 44.6982 10.012 44.2914 10.4362L35.6434 19.2233L34.88 19.9868C34.8474 20.0194 34.8126 20.0651 34.7799 20.1042L34.023 20.872C32.5983 18.2946 30.5037 16.1456 27.9871 14.6797H30.1643C31.9457 14.6797 33.3987 13.2158 33.3987 11.4105C33.3987 9.60736 31.9457 8.14137 30.1643 8.14137H25.3205C23.3216 8.14137 21.5554 9.14843 20.4809 10.6797L20.4831 3.80853C20.4831 1.7096 18.7909 0 16.7072 0C14.6256 0 12.9313 1.7096 12.9313 3.80853V10.7081C11.8568 9.17032 10.0906 8.16977 8.09175 8.16977H3.23261C2.36909 8.16977 1.55563 8.50908 0.937898 9.12683C0.331076 9.74456 -0.00390625 10.5624 -0.00390625 11.4367C-0.00390625 13.2399 1.44906 14.7059 3.23044 14.7059L3.23234 14.6989ZM30.149 9.25254C31.3301 9.25254 32.2936 10.227 32.2936 11.4298C32.2936 12.6327 31.3301 13.6071 30.149 13.6071C28.9679 13.6071 28 12.6327 28 11.4298C28 10.227 28.9636 9.25254 30.149 9.25254ZM45.0612 11.2079C45.3222 10.9404 45.6571 10.886 45.8855 10.886C46.3706 10.886 46.8773 11.1209 47.2776 11.5255C47.6843 11.9366 47.917 12.4781 47.9062 12.9784C47.9062 13.2177 47.8388 13.5635 47.5669 13.8245L40.4173 19.9885L38.4184 17.9831L38.401 17.9657L45.0612 11.2014L45.0612 11.2079ZM37.6505 18.7578L40.1996 21.3135C40.2997 21.4136 40.3606 21.5528 40.3606 21.6985C40.3606 21.8442 40.304 21.9769 40.1996 22.0835L38.9642 23.3255C38.8532 23.4364 38.6923 23.493 38.5074 23.4712C38.3899 23.4647 38.279 23.4103 38.1898 23.3255L35.645 20.7698L37.6505 18.7644L37.6505 18.7578ZM34.2769 22.177L34.8903 21.5528L37.4243 24.0868C37.62 24.2825 37.8636 24.4217 38.1094 24.4935C38.2095 24.761 38.1595 25.0786 37.9485 25.2961L26.527 36.9108C25.0675 38.3921 22.7859 38.5138 21.2372 37.2327V35.4404L34.2791 22.177L34.2769 22.177ZM33.2199 21.7029L28.1367 26.8708C26.762 25.929 25.8529 24.3325 25.8529 22.5272V19.0754V19.058V16.3348C25.8529 15.8563 26.0704 15.4169 26.4205 15.1102C29.3112 16.5088 31.7038 18.8295 33.2199 21.7029ZM20.4698 15.2493V14.1575C20.4698 11.456 22.6405 9.25702 25.3093 9.25702H27.7476C27.2299 9.83561 26.9189 10.5991 26.9189 11.4343C26.9189 12.2695 27.2364 13.033 27.7476 13.6116H27.4583C26.9689 13.6116 26.4947 13.7442 26.0836 14.0009C25.2702 14.4859 24.7634 15.3756 24.7634 16.3348V19.0623C24.7634 19.6409 24.535 20.1868 24.1348 20.6001C23.7346 21.0068 23.193 21.2352 22.6209 21.2352C21.4355 21.2352 20.4719 20.2607 20.4719 19.0579V15.2494L20.4698 15.2493ZM16.6939 1.09388C18.1751 1.09388 19.3779 2.31409 19.3779 3.81706C19.3779 5.32002 18.1751 6.54024 16.6939 6.54024C15.2127 6.54024 14.0099 5.32002 14.0099 3.81706C14.0099 2.31409 15.2127 1.09388 16.6939 1.09388ZM14.0099 21.9573L14.0077 6.48612C14.6929 7.18866 15.6455 7.62153 16.6917 7.62153C17.7379 7.62153 18.6906 7.18651 19.3758 6.48612V19.058C19.3758 20.8611 20.8287 22.3271 22.6166 22.3271C23.4192 22.3271 24.1696 22.0313 24.7613 21.5028V22.5272C24.7613 24.637 25.7923 26.5032 27.367 27.656L21.2353 33.8918V31.0403C21.2353 30.7401 20.9895 30.4944 20.6894 30.4944C20.3892 30.4944 20.1434 30.7401 20.1434 31.0403V38.6637C20.1434 38.9639 20.3892 39.2097 20.6894 39.2097C20.9895 39.2097 21.2353 38.9639 21.2353 38.6637V38.5528C21.9923 38.9878 22.8383 39.2097 23.6844 39.2097C24.9873 39.2097 26.2967 38.6963 27.2972 37.6784L34.4139 30.4398C34.3748 30.579 34.3465 30.7182 34.303 30.8508L31.0056 40.8407C29.6135 45.0735 25.7158 47.9118 21.3047 47.9118H18.5271C14.1225 47.9118 10.2249 45.0668 8.83287 40.8407L5.53544 30.8464C5.25703 30.022 5.09608 29.1694 5.02865 28.3124H7.70617C11.1754 28.3124 13.9988 25.4609 13.9988 21.9524L14.0099 21.9573ZM12.918 21.9573C12.918 24.8633 10.5841 27.2254 7.71084 27.2254H5.00503C5.02678 26.6468 5.09421 26.0726 5.21602 25.5158C5.75109 23.0993 6.87996 20.8219 8.4895 18.9297C9.72057 17.4702 11.241 16.2522 12.9158 15.3604V21.9598L12.918 21.9573ZM1.712 9.88995C2.12309 9.47886 2.65815 9.25484 3.2324 9.25484H8.07628C10.7385 9.25484 12.905 11.443 12.9158 14.1379C11.3346 14.9057 9.87509 15.941 8.62224 17.1895V16.3325C8.62224 14.8296 7.41289 13.6093 5.92735 13.6093H3.23245C2.05138 13.6093 1.08781 12.6349 1.08781 11.4321C1.08781 10.847 1.30961 10.3011 1.712 9.88995Z" fill="white"/>
</svg>
