<svg width="40" height="50" viewBox="0 0 40 50" fill="none" xmlns="http://www.w3.org/2000/svg">
<path d="M39.3355 6.89948L20.2811 0.547639C20.0906 0.48412 19.8909 0.48412 19.7095 0.547639L0.655095 6.89948C0.283078 7.02652 0.0380859 7.37132 0.0380859 7.7615V23.3316C0.0380859 35.3994 8.14078 46.1519 19.7551 49.4637C19.8367 49.4909 19.9184 49.5 20 49.5C20.0817 49.5 20.1634 49.4909 20.245 49.4637C31.85 46.1518 39.962 35.3994 39.962 23.3316V7.7615C39.962 7.37133 39.7079 7.02654 39.345 6.89948H39.3355ZM38.1378 23.3319C38.1378 34.5107 30.6884 44.4734 19.9905 47.6493C9.29256 44.4735 1.84316 34.5107 1.84316 23.3319V8.41457L19.9905 2.36237L38.1378 8.41457V23.3319Z" fill="white"/>
<path d="M19.7004 6.29141L6.08966 10.8282C5.71765 10.9553 5.47266 11.3001 5.47266 11.6903V23.3318C5.47266 32.3782 11.18 40.572 19.6728 43.7201C19.7727 43.7564 19.8815 43.7745 19.9904 43.7745C20.0993 43.7745 20.2082 43.7564 20.308 43.7201C28.8009 40.5715 34.5082 32.3782 34.5082 23.3318V11.6903C34.5082 11.3001 34.2541 10.9553 33.8912 10.8282L20.2804 6.29141C20.0899 6.22789 19.8903 6.22789 19.7088 6.29141H19.7004ZM32.6939 12.3436V23.3319C32.6939 31.5165 27.6036 38.9293 19.9908 41.8967C12.3782 38.9296 7.28768 31.5072 7.28768 23.3319V12.3436L19.9908 8.1062L32.6939 12.3436Z" fill="white"/>
<path d="M14.283 23.2953C13.9292 22.9414 13.3575 22.9414 13.0037 23.2953C12.6498 23.6491 12.6498 24.2208 13.0037 24.5746L18.0577 29.6287C18.2301 29.8011 18.4569 29.8918 18.7019 29.8918H18.7564C19.0195 29.8736 19.2554 29.7466 19.4187 29.547L27.0679 19.7567C27.3764 19.3575 27.3038 18.795 26.9136 18.4864C26.5144 18.1779 25.9519 18.2505 25.6433 18.6407L18.6295 27.6237L14.3014 23.2956L14.283 23.2953Z" fill="white"/>
</svg>
