<svg width="47" height="47" viewBox="0 0 47 47" fill="none" xmlns="http://www.w3.org/2000/svg">
<path d="M33.2918 41.125V37.2083C33.2918 35.1308 32.4665 33.1384 30.9975 31.6693C29.5285 30.2003 27.536 29.375 25.4585 29.375H9.79183C7.7143 29.375 5.72186 30.2003 4.25283 31.6693C2.78379 33.1384 1.9585 35.1308 1.9585 37.2083V41.125" stroke="white" stroke-width="2" stroke-linecap="round" stroke-linejoin="round"/>
<path d="M17.6248 21.5417C21.9511 21.5417 25.4582 18.0346 25.4582 13.7083C25.4582 9.3821 21.9511 5.875 17.6248 5.875C13.2986 5.875 9.7915 9.3821 9.7915 13.7083C9.7915 18.0346 13.2986 21.5417 17.6248 21.5417Z" stroke="white" stroke-width="2" stroke-linecap="round" stroke-linejoin="round"/>
<path d="M45.0415 41.1248V37.2081C45.0402 35.4725 44.4625 33.7865 43.3992 32.4148C42.3358 31.043 40.847 30.0633 39.1665 29.6294" stroke="white" stroke-width="2" stroke-linecap="round" stroke-linejoin="round"/>
<path d="M31.3335 6.12939C33.0185 6.56082 34.5119 7.54077 35.5785 8.91475C36.645 10.2887 37.2239 11.9786 37.2239 13.7179C37.2239 15.4573 36.645 17.1471 35.5785 18.5211C34.5119 19.8951 33.0185 20.8751 31.3335 21.3065" stroke="white" stroke-width="2" stroke-linecap="round" stroke-linejoin="round"/>
</svg>
