<svg width="42" height="51" viewBox="0 0 42 51" fill="none" xmlns="http://www.w3.org/2000/svg">
<path d="M21.0164 10.6577C21.1517 10.4871 21.3493 10.3771 21.5656 10.352C21.782 10.327 21.9995 10.3889 22.1702 10.5241C22.9694 11.1575 23.9543 11.5113 24.9738 11.5311C25.1917 11.5354 25.3989 11.6261 25.5499 11.7831C25.7009 11.9402 25.7834 12.1508 25.7791 12.3687C25.7748 12.5865 25.6841 12.7937 25.5271 12.9448C25.37 13.0958 25.1594 13.1782 24.9415 13.1739C23.5627 13.1475 22.2307 12.6693 21.15 11.8126C21.0654 11.7456 20.9947 11.6626 20.9422 11.5682C20.8896 11.4739 20.8562 11.3701 20.8438 11.2629C20.8314 11.1556 20.8402 11.047 20.8699 10.9431C20.8995 10.8393 20.9493 10.7423 21.0164 10.6577ZM9.59046 37.4852H10.0718C9.49154 35.2035 8.49219 33.0496 7.12467 31.1332C6.63184 30.4761 6.5601 30.5856 5.95776 29.8491C1.98829 25.0095 2.75382 18.3081 2.78832 18.025C3.1889 15.1744 4.29922 12.47 6.01733 10.1603C7.73545 7.85063 10.0063 6.00957 12.6214 4.80622C13.1175 3.76964 14.9623 0.691644 19.6009 0.00880159C19.7177 -0.00844072 19.8369 -0.000286648 19.9503 0.0327077C20.0637 0.065702 20.1687 0.122761 20.258 0.199993C20.3473 0.277226 20.419 0.372816 20.468 0.480246C20.5171 0.587677 20.5424 0.70442 20.5422 0.822517L20.5515 4.8785L24.348 5.53561C24.4682 5.55625 24.5824 5.60343 24.6821 5.67371C24.7818 5.744 24.8647 5.83562 24.9246 5.94192L25.8555 7.60056C27.0733 8.44823 35.4383 14.3726 35.7548 15.804C36.5312 19.2428 35.4394 22.4128 31.9644 21.8116C30.9449 21.4222 29.859 21.2362 28.7681 21.264C27.2535 21.3368 26.5974 21.8614 25.2285 22.0854C24.0094 22.2647 22.7649 22.1367 21.6078 21.713L24.3458 27.0717C26.4196 27.9624 28.21 29.4038 29.5228 31.2397C30.8356 33.0756 31.6207 35.2359 31.793 37.4863H32.1122C32.6615 37.4983 33.186 37.7176 33.5805 38.1C33.975 38.4824 34.2104 38.9998 34.2396 39.5485V42.816H35.0774C35.6267 42.828 36.1512 43.0472 36.5457 43.4297C36.9402 43.8121 37.1756 44.3295 37.2048 44.8782V49.2841H41.1786C41.3965 49.2841 41.6054 49.3706 41.7594 49.5246C41.9135 49.6787 42 49.8876 42 50.1054C42 50.3233 41.9135 50.5322 41.7594 50.6862C41.6054 50.8403 41.3965 50.9268 41.1786 50.9268H0.821382C0.603538 50.9268 0.394616 50.8403 0.240577 50.6862C0.0865381 50.5322 0 50.3233 0 50.1054C0 49.8876 0.0865381 49.6787 0.240577 49.5246C0.394616 49.3706 0.603538 49.2841 0.821382 49.2841H4.49679V44.8771C4.52608 44.3283 4.7617 43.8108 5.15642 43.4284C5.55114 43.0459 6.0758 42.8268 6.62527 42.8149H7.46198V39.5474C7.49127 38.9986 7.72689 38.4811 8.12161 38.0987C8.51632 37.7162 9.04099 37.4971 9.59046 37.4852ZM35.0796 44.4576H6.62472C6.5107 44.4698 6.4031 44.5165 6.31631 44.5914C6.22952 44.6664 6.16767 44.766 6.13901 44.8771V49.2841H35.5642V44.8771C35.5357 44.7662 35.474 44.6666 35.3874 44.5916C35.3008 44.5167 35.1934 44.4699 35.0796 44.4576ZM32.1144 39.1279H9.59046C9.47641 39.1401 9.36878 39.1867 9.28197 39.2617C9.19517 39.3366 9.13334 39.4363 9.10475 39.5474V42.8149H32.599V39.5474C32.5706 39.4364 32.509 39.3368 32.4224 39.2618C32.3358 39.1868 32.2283 39.1401 32.1144 39.1279ZM11.7376 37.4852H14.4092C13.8011 34.9969 12.8298 32.6118 11.5267 30.4065C11.4689 30.3136 11.4303 30.2101 11.4131 30.102C11.3958 29.9939 11.4004 29.8835 11.4264 29.7772C11.4525 29.6709 11.4995 29.5709 11.5647 29.4831C11.63 29.3952 11.7121 29.3213 11.8063 29.2656C11.9005 29.2099 12.0049 29.1736 12.1133 29.1589C12.2217 29.1441 12.332 29.1511 12.4377 29.1796C12.5434 29.208 12.6423 29.2573 12.7286 29.3245C12.815 29.3917 12.8871 29.4755 12.9406 29.5709C14.3958 32.0295 15.4597 34.6995 16.0942 37.4852H30.1453C29.9697 35.5078 29.2494 33.6178 28.0644 32.0251C26.8793 30.4324 25.276 29.1994 23.4324 28.4631C23.2537 28.3881 23.1072 28.2524 23.019 28.0798L19.1546 20.5171C17.7857 19.6377 16.5185 18.6093 15.3763 17.4506C15.2215 17.2972 15.134 17.0887 15.1331 16.8708C15.1321 16.6529 15.2177 16.4436 15.3711 16.2889C15.5244 16.1341 15.733 16.0466 15.9508 16.0457C16.1687 16.0447 16.378 16.1303 16.5328 16.2837C19.7274 19.4493 22.5656 20.8549 24.97 20.465C26.3132 20.246 28.5753 18.8289 32.3203 20.2044C33.3279 20.3599 33.6646 20.0018 33.7774 19.883C34.5183 19.1054 34.3447 17.1719 34.1919 16.3384C32.6625 14.4766 26.909 10.3226 24.7701 8.84359C24.5549 8.69464 24.5812 8.67931 23.6859 7.08747L19.5943 6.38054C19.4038 6.34767 19.231 6.24865 19.1063 6.10091C18.9816 5.95317 18.913 5.76618 18.9126 5.57284L18.9038 1.82351C17.8432 2.04816 16.8494 2.51683 16.0014 3.19234C15.1534 3.86786 14.4744 4.73164 14.0183 5.71522C13.9795 5.81778 13.9209 5.91167 13.8457 5.99146C13.7705 6.07125 13.6803 6.13537 13.5802 6.18012C11.1538 7.24174 9.03886 8.90562 7.43595 11.014C5.83305 13.1223 4.79533 15.6051 4.42123 18.2271C4.41465 18.2873 3.71429 24.5243 7.23035 28.8086C7.78561 29.4866 7.80642 29.2976 8.44381 30.1519C10.0286 32.3471 11.1494 34.8423 11.7376 37.4852Z" fill="white"/>
</svg>
